<svg width="82" height="82" viewBox="0 0 82 82" fill="none" xmlns="http://www.w3.org/2000/svg">
<g clip-path="url(#clip0_290_473)">
<path d="M40.3438 38.375H39.0312V39.6875H40.3438V38.375Z" fill="white"/>
<path d="M42.9688 38.375H41.6562V39.6875H42.9688V38.375Z" fill="white"/>
<path d="M40.3438 41H39.0312V42.3125H40.3438V41Z" fill="white"/>
<path d="M42.9688 41H41.6562V42.3125H42.9688V41Z" fill="white"/>
<path d="M40.3438 43.625H39.0312V44.9375H40.3438V43.625Z" fill="white"/>
<path d="M42.9688 43.625H41.6562V44.9375H42.9688V43.625Z" fill="white"/>
<path d="M55.4375 32.4687C56.7842 32.4711 58.0915 32.014 59.1433 31.1729C60.1951 30.3318 60.9286 29.1571 61.2224 27.8427C61.5162 26.5284 61.3529 25.1532 60.7593 23.9443C60.1658 22.7354 59.1777 21.7651 57.9581 21.1938C56.7385 20.6225 55.3605 20.4843 54.0518 20.8021C52.7431 21.1199 51.582 21.8747 50.7602 22.9417C49.9385 24.0087 49.5054 25.3241 49.5324 26.6706C49.5595 28.0171 50.045 29.3141 50.9089 30.3472L47.6455 33.759C45.837 32.0857 43.4639 31.1562 41 31.1562C38.5361 31.1562 36.163 32.0857 34.3545 33.759L31.0911 30.3472C32.0764 29.1797 32.5769 27.679 32.49 26.1538C32.403 24.6285 31.7351 23.1945 30.6235 22.1465C29.5118 21.0985 28.041 20.5161 26.5133 20.5191C24.9855 20.522 23.517 21.11 22.4094 22.1623C21.3018 23.2146 20.6394 24.6512 20.5583 26.1767C20.4772 27.7023 20.9836 29.201 21.9733 30.3648C22.9631 31.5286 24.3611 32.269 25.8799 32.4339C27.3987 32.5988 28.923 32.1756 30.1394 31.2514L33.4416 34.7037C31.9109 36.5323 31.0995 38.8562 31.1593 41.24C31.2192 43.6239 32.1461 45.9042 33.7666 47.6537L30.3521 50.9132C29.1857 49.9271 27.6859 49.4253 26.161 49.5109C24.6361 49.5964 23.2018 50.2629 22.1531 51.3732C21.1044 52.4836 20.5208 53.9535 20.5224 55.4808C20.5239 57.0082 21.1105 58.4769 22.1615 59.5851C23.2125 60.6933 24.6481 61.3568 26.1732 61.4393C27.6983 61.5218 29.197 61.0169 30.3614 60.0284C31.5257 59.04 32.2672 57.6431 32.4334 56.1248C32.5997 54.6066 32.178 53.0823 31.2551 51.8653L34.7118 48.5656C36.4766 50.0375 38.7019 50.8437 41 50.8437C43.2981 50.8437 45.5234 50.0375 47.2883 48.5656L50.745 51.8653C49.8397 53.0635 49.4275 54.5628 49.593 56.0553C49.7585 57.5478 50.489 58.9204 51.6347 59.8912C52.7804 60.862 54.2542 61.3574 55.7537 61.2756C57.2532 61.1939 58.6644 60.5412 59.6978 59.4516C60.7311 58.362 61.3081 56.9181 61.3103 55.4165C61.3125 53.9148 60.7398 52.4692 59.7097 51.3766C58.6796 50.2839 57.2702 49.6271 55.771 49.5409C54.2718 49.4547 52.7965 49.9458 51.648 50.9132L48.2334 47.6537C49.8539 45.9042 50.7808 43.6239 50.8407 41.24C50.9005 38.8561 50.0891 36.5322 48.5584 34.7037L51.8606 31.2514C52.8861 32.0403 54.1436 32.4683 55.4375 32.4687ZM28.5312 30.7066C27.9171 31.0025 27.2442 31.1562 26.5625 31.1562C25.8808 31.1562 25.2079 31.0025 24.5937 30.7066V29.1874C24.5941 28.8395 24.7326 28.5059 24.9786 28.2598C25.2247 28.0137 25.5583 27.8753 25.9062 27.8749H27.2187C27.5667 27.8753 27.9003 28.0137 28.1464 28.2598C28.3924 28.5059 28.5308 28.8395 28.5312 29.1874V30.7066ZM25.5781 25.5781C25.5781 25.3834 25.6359 25.1931 25.744 25.0312C25.8522 24.8693 26.0059 24.7431 26.1858 24.6686C26.3657 24.5941 26.5636 24.5746 26.7545 24.6126C26.9455 24.6506 27.1209 24.7443 27.2586 24.882C27.3962 25.0197 27.49 25.1951 27.528 25.386C27.5659 25.577 27.5464 25.7749 27.4719 25.9548C27.3974 26.1346 27.2713 26.2884 27.1094 26.3965C26.9475 26.5047 26.7572 26.5624 26.5625 26.5624C26.3015 26.5622 26.0513 26.4583 25.8668 26.2738C25.6822 26.0893 25.5784 25.839 25.5781 25.5781ZM29.8437 29.7711V29.1874C29.8421 28.7129 29.7114 28.2477 29.4657 27.8418C29.22 27.4358 28.8685 27.1043 28.4489 26.8827C28.6882 26.5382 28.8286 26.1347 28.8549 25.7161C28.8811 25.2974 28.7923 24.8796 28.5979 24.5079C28.4035 24.1362 28.111 23.8248 27.7522 23.6075C27.3934 23.3902 26.982 23.2754 26.5625 23.2754C26.143 23.2754 25.7316 23.3902 25.3728 23.6075C25.0139 23.8248 24.7215 24.1362 24.5271 24.5079C24.3327 24.8796 24.2439 25.2974 24.2701 25.7161C24.2964 26.1347 24.4368 26.5382 24.6761 26.8827C24.2565 27.1043 23.905 27.4358 23.6593 27.8418C23.4136 28.2477 23.2829 28.7129 23.2812 29.1874V29.7711C22.6482 29.125 22.22 28.3064 22.0503 27.4179C21.8806 26.5294 21.977 25.6105 22.3275 24.7766C22.6779 23.9427 23.2667 23.2308 24.0201 22.7301C24.7735 22.2295 25.6579 21.9624 26.5625 21.9624C27.4671 21.9624 28.3515 22.2295 29.1049 22.7301C29.8583 23.2308 30.4471 23.9427 30.7975 24.7766C31.148 25.6105 31.2444 26.5294 31.0747 27.4179C30.905 28.3064 30.4768 29.125 29.8437 29.7711ZM28.5312 59.5816C27.9171 59.8775 27.2442 60.0312 26.5625 60.0312C25.8808 60.0312 25.2079 59.8775 24.5937 59.5816V58.0624C24.5941 57.7145 24.7326 57.3809 24.9786 57.1348C25.2247 56.8887 25.5583 56.7503 25.9062 56.7499H27.2187C27.5667 56.7503 27.9003 56.8887 28.1464 57.1348C28.3924 57.3809 28.5308 57.7145 28.5312 58.0624V59.5816ZM25.5781 54.4531C25.5781 54.2584 25.6359 54.0681 25.744 53.9062C25.8522 53.7443 26.0059 53.6181 26.1858 53.5436C26.3657 53.4691 26.5636 53.4496 26.7545 53.4876C26.9455 53.5256 27.1209 53.6193 27.2586 53.757C27.3962 53.8947 27.49 54.0701 27.528 54.261C27.5659 54.452 27.5464 54.6499 27.4719 54.8298C27.3974 55.0096 27.2713 55.1634 27.1094 55.2715C26.9475 55.3797 26.7572 55.4374 26.5625 55.4374C26.3015 55.4372 26.0513 55.3334 25.8668 55.1488C25.6822 54.9643 25.5784 54.714 25.5781 54.4531ZM29.8437 58.6461V58.0624C29.8421 57.5879 29.7114 57.1227 29.4657 56.7168C29.22 56.3108 28.8685 55.9793 28.4489 55.7577C28.6882 55.4132 28.8286 55.0097 28.8549 54.5911C28.8811 54.1724 28.7923 53.7546 28.5979 53.3829C28.4035 53.0112 28.111 52.6998 27.7522 52.4825C27.3934 52.2652 26.982 52.1504 26.5625 52.1504C26.143 52.1504 25.7316 52.2652 25.3728 52.4825C25.0139 52.6998 24.7215 53.0112 24.5271 53.3829C24.3327 53.7546 24.2439 54.1724 24.2701 54.5911C24.2964 55.0097 24.4368 55.4132 24.6761 55.7577C24.2565 55.9793 23.905 56.3108 23.6593 56.7168C23.4136 57.1227 23.2829 57.5879 23.2812 58.0624V58.6461C22.6482 58 22.22 57.1814 22.0503 56.2929C21.8806 55.4044 21.977 54.4855 22.3275 53.6516C22.6779 52.8177 23.2667 52.1058 24.0201 51.6051C24.7735 51.1045 25.6579 50.8374 26.5625 50.8374C27.4671 50.8374 28.3515 51.1045 29.1049 51.6051C29.8583 52.1058 30.4471 52.8177 30.7975 53.6516C31.148 54.4855 31.2444 55.4044 31.0747 56.2929C30.905 57.1814 30.4768 58 29.8437 58.6461ZM57.4062 59.5816C56.7921 59.8775 56.1192 60.0312 55.4375 60.0312C54.7558 60.0312 54.0829 59.8775 53.4687 59.5816V58.0624C53.4691 57.7145 53.6076 57.3809 53.8536 57.1348C54.0997 56.8887 54.4333 56.7503 54.7812 56.7499H56.0937C56.4417 56.7503 56.7753 56.8887 57.0214 57.1348C57.2674 57.3809 57.4058 57.7145 57.4062 58.0624V59.5816ZM54.4531 54.4531C54.4531 54.2584 54.5109 54.0681 54.619 53.9062C54.7272 53.7443 54.8809 53.6181 55.0608 53.5436C55.2407 53.4691 55.4386 53.4496 55.6295 53.4876C55.8205 53.5256 55.9959 53.6193 56.1336 53.757C56.2712 53.8947 56.365 54.0701 56.403 54.261C56.4409 54.452 56.4214 54.6499 56.3469 54.8298C56.2724 55.0096 56.1463 55.1634 55.9844 55.2715C55.8225 55.3797 55.6322 55.4374 55.4375 55.4374C55.1765 55.4372 54.9263 55.3334 54.7418 55.1488C54.5572 54.9643 54.4534 54.714 54.4531 54.4531ZM55.4375 50.8437C56.3417 50.8428 57.2261 51.1091 57.9795 51.609C58.7329 52.109 59.3219 52.8204 59.6724 53.6539C60.0229 54.4874 60.1194 55.4059 59.9497 56.2941C59.7801 57.1823 59.3518 58.0005 58.7187 58.6461V58.0624C58.7171 57.5879 58.5864 57.1227 58.3407 56.7168C58.095 56.3108 57.7435 55.9793 57.3239 55.7577C57.5632 55.4132 57.7036 55.0097 57.7299 54.5911C57.7561 54.1724 57.6673 53.7546 57.4729 53.3829C57.2785 53.0112 56.986 52.6998 56.6272 52.4825C56.2684 52.2652 55.857 52.1504 55.4375 52.1504C55.018 52.1504 54.6066 52.2652 54.2478 52.4825C53.8889 52.6998 53.5965 53.0112 53.4021 53.3829C53.2077 53.7546 53.1189 54.1724 53.1451 54.5911C53.1714 55.0097 53.3118 55.4132 53.5511 55.7577C53.1315 55.9793 52.78 56.3108 52.5343 56.7168C52.2886 57.1227 52.1579 57.5879 52.1562 58.0624V58.6461C51.5232 58.0005 51.0949 57.1823 50.9253 56.2941C50.7556 55.4059 50.8521 54.4874 51.2026 53.6539C51.5531 52.8204 52.1421 52.109 52.8955 51.609C53.6489 51.1091 54.5333 50.8428 55.4375 50.8437ZM41.6562 49.4979C41.4389 49.5146 41.2215 49.5312 41 49.5312C40.7785 49.5312 40.561 49.5146 40.3437 49.4979V47.5624H41.6562V49.4979ZM44.2812 48.873C43.8559 49.0483 43.4169 49.1887 42.9687 49.2927V46.9062C42.9688 46.82 42.9518 46.7347 42.9188 46.655C42.8859 46.5754 42.8375 46.503 42.7766 46.4421C42.7156 46.3812 42.6433 46.3328 42.5637 46.2998C42.484 46.2669 42.3987 46.2499 42.3125 46.2499H39.6875C39.6013 46.2499 39.516 46.2669 39.4363 46.2998C39.3567 46.3328 39.2844 46.3812 39.2234 46.4421C39.1625 46.503 39.1141 46.5754 39.0812 46.655C39.0482 46.7347 39.0312 46.82 39.0312 46.9062V49.2927C38.5831 49.1887 38.1441 49.0483 37.7187 48.873V37.0624H44.2812V48.873ZM49.5312 40.9999C49.5299 42.4306 49.1685 43.8379 48.4804 45.0922C47.7923 46.3465 46.7996 47.4075 45.5937 48.1773V36.4062C45.5938 36.32 45.5768 36.2347 45.5438 36.155C45.5109 36.0754 45.4625 36.003 45.4016 35.9421C45.3406 35.8812 45.2683 35.8328 45.1887 35.7998C45.109 35.7669 45.0237 35.7499 44.9375 35.7499H37.0625C36.9763 35.7499 36.891 35.7669 36.8113 35.7998C36.7317 35.8328 36.6594 35.8812 36.5984 35.9421C36.5375 36.003 36.4891 36.0754 36.4562 36.155C36.4232 36.2347 36.4062 36.32 36.4062 36.4062V48.1773C35.1595 47.3791 34.142 46.27 33.4539 44.9592C32.7658 43.6484 32.4308 42.1811 32.482 40.7015C32.5331 39.222 32.9685 37.7812 33.7454 36.521C34.5223 35.2608 35.6139 34.2246 36.9128 33.5143C38.2116 32.804 39.6731 32.4441 41.1533 32.47C42.6335 32.4959 44.0814 32.9068 45.3547 33.6621C46.6279 34.4174 47.6826 35.4912 48.4149 36.7778C49.1472 38.0644 49.5319 39.5195 49.5312 40.9999ZM57.4062 30.7066C56.7921 31.0025 56.1192 31.1562 55.4375 31.1562C54.7558 31.1562 54.0829 31.0025 53.4687 30.7066V29.1874C53.4691 28.8395 53.6076 28.5059 53.8536 28.2598C54.0997 28.0137 54.4333 27.8753 54.7812 27.8749H56.0937C56.4417 27.8753 56.7753 28.0137 57.0214 28.2598C57.2674 28.5059 57.4058 28.8395 57.4062 29.1874V30.7066ZM54.4531 25.5781C54.4531 25.3834 54.5109 25.1931 54.619 25.0312C54.7272 24.8693 54.8809 24.7431 55.0608 24.6686C55.2407 24.5941 55.4386 24.5746 55.6295 24.6126C55.8205 24.6506 55.9959 24.7443 56.1336 24.882C56.2712 25.0197 56.365 25.1951 56.403 25.386C56.4409 25.577 56.4214 25.7749 56.3469 25.9548C56.2724 26.1346 56.1463 26.2884 55.9844 26.3965C55.8225 26.5047 55.6322 26.5624 55.4375 26.5624C55.1765 26.5622 54.9263 26.4583 54.7418 26.2738C54.5572 26.0893 54.4534 25.839 54.4531 25.5781ZM50.8437 26.5624C50.8427 25.8087 51.0272 25.0663 51.3808 24.4007C51.7345 23.7351 52.2465 23.1668 52.8717 22.7458C53.4969 22.3248 54.2161 22.0641 54.9659 21.9867C55.7156 21.9093 56.4729 22.0176 57.1709 22.302C57.8689 22.5864 58.4862 23.0382 58.9684 23.6176C59.4505 24.1969 59.7827 24.886 59.9357 25.624C60.0886 26.3621 60.0576 27.1264 59.8454 27.8496C59.6332 28.5729 59.2462 29.2328 58.7187 29.7711V29.1874C58.7171 28.7129 58.5864 28.2477 58.3407 27.8418C58.095 27.4358 57.7435 27.1043 57.3239 26.8827C57.5632 26.5382 57.7036 26.1347 57.7299 25.7161C57.7561 25.2974 57.6673 24.8796 57.4729 24.5079C57.2785 24.1362 56.986 23.8248 56.6272 23.6075C56.2684 23.3902 55.857 23.2754 55.4375 23.2754C55.018 23.2754 54.6066 23.3902 54.2478 23.6075C53.8889 23.8248 53.5965 24.1362 53.4021 24.5079C53.2077 24.8796 53.1189 25.2974 53.1451 25.7161C53.1714 26.1347 53.3118 26.5382 53.5511 26.8827C53.1315 27.1043 52.78 27.4358 52.5343 27.8418C52.2886 28.2477 52.1579 28.7129 52.1562 29.1874V29.7711C51.3149 28.9151 50.8435 27.7627 50.8437 26.5624Z" fill="#F4F6FC"/>
</g>
<defs>
<linearGradient id="paint0_linear_290_473" x1="13.2575" y1="82" x2="86.7239" y2="56.2879" gradientUnits="userSpaceOnUse">
<stop stop-color="#425DC5"/>
<stop offset="1" stop-color="#5442C5"/>
</linearGradient>
<clipPath id="clip0_290_473">
<rect width="42" height="42" fill="white" transform="translate(20 20)"/>
</clipPath>
</defs>
</svg>
