<svg width="82" height="82" viewBox="0 0 82 82" fill="none" xmlns="http://www.w3.org/2000/svg">
<path d="M51.6533 41.2153C49.9338 41.2153 48.3094 41.7759 46.9558 42.8365C46.6887 43.0458 46.6419 43.4319 46.8511 43.6988C47.0603 43.9658 47.4466 44.0128 47.7135 43.8035C48.8488 42.914 50.2112 42.4438 51.6533 42.4438C55.1798 42.4438 58.0489 45.3128 58.0489 48.8393C58.0489 52.3658 55.1798 55.2349 51.6533 55.2349C48.1268 55.2349 45.2578 52.3658 45.2578 48.8393C45.2578 47.6334 45.5965 46.4576 46.2375 45.439C46.4183 45.152 46.3319 44.7728 46.0448 44.5921C45.7577 44.4114 45.3784 44.4977 45.1978 44.7848C44.4333 45.9996 44.0292 47.4016 44.0292 48.8393C44.0292 53.0433 47.4493 56.4635 51.6533 56.4635C55.8573 56.4635 59.2775 53.0433 59.2775 48.8393C59.2775 44.6355 55.8573 41.2153 51.6533 41.2153Z" fill="white"/>
<path d="M56.4711 49.1417H52.2676V44.9382C52.2676 44.599 51.9926 44.324 51.6534 44.324C51.3142 44.324 51.0391 44.599 51.0391 44.9382V49.756C51.0391 50.0952 51.3142 50.3703 51.6534 50.3703H56.4711C56.8103 50.3703 57.0853 50.0952 57.0853 49.756C57.0853 49.4168 56.8103 49.1417 56.4711 49.1417Z" fill="white"/>
<path d="M57.5325 40.3304V29.6753C57.5325 28.0742 56.2298 26.7716 54.6287 26.7716H53.3103V25.2598C53.3103 23.9111 52.2132 22.814 50.8645 22.814C49.5158 22.814 48.4187 23.9111 48.4187 25.2598V26.7715H45.245V25.2598C45.245 23.9111 44.1478 22.814 42.7991 22.814C41.4504 22.814 40.3533 23.9111 40.3533 25.2598V26.7715H37.1796V25.2598C37.1796 23.9111 36.0824 22.814 34.7337 22.814C33.385 22.814 32.2879 23.9111 32.2879 25.2598V26.7715H29.1142V25.2598C29.1142 23.9111 28.017 22.814 26.6683 22.814C25.3196 22.814 24.2222 23.9111 24.2222 25.2598V26.7715H22.9037C21.3027 26.7715 20 28.0741 20 29.6753V29.9783C20 30.3175 20.2751 30.5926 20.6143 30.5926C20.9534 30.5926 21.2285 30.3175 21.2285 29.9783V29.6753C21.2285 28.7516 21.9801 28.0001 22.9037 28.0001H24.2221C24.2221 28.0001 24.2221 29.5117 24.2221 29.5117C24.2221 30.8604 25.3192 31.9576 26.6679 31.9576C28.0166 31.9576 29.1138 30.8604 29.1138 29.5117V28.0001H32.2875C32.2875 28.0001 32.2875 29.5117 32.2875 29.5117C32.2875 30.8604 33.3846 31.9576 34.7333 31.9576C36.082 31.9576 37.1791 30.8604 37.1791 29.5117V28.0001H40.3529C40.3529 28.0001 40.3529 29.5117 40.3529 29.5117C40.3529 30.8604 41.45 31.9576 42.7987 31.9576C44.1474 31.9576 45.2445 30.8604 45.2445 29.5117V28.0001H48.4183C48.4183 28.0001 48.4183 29.5117 48.4183 29.5117C48.4183 30.8604 49.5154 31.9576 50.8641 31.9576C52.2128 31.9576 53.3099 30.8604 53.3099 29.5117V28.0001H54.6283C55.552 28.0001 56.3036 28.7516 56.3036 29.6753V34.0107H21.2285V32.4353C21.2285 32.0961 20.9534 31.8211 20.6143 31.8211C20.2751 31.8211 20 32.096 20 32.4353V53.634C20 55.2352 21.3027 56.5378 22.9037 56.5378H44.7483C46.581 58.1834 49.0021 59.1861 51.6533 59.1861C53.8671 59.1861 55.979 58.4962 57.7609 57.1911C58.0346 56.9906 58.0939 56.6062 57.8934 56.3326C57.6929 56.0588 57.3085 55.9996 57.0349 56.2C55.4651 57.3499 53.6042 57.9575 51.6532 57.9575C46.6255 57.9575 42.5351 53.8671 42.5351 48.8394C42.5351 43.8117 46.6255 39.7213 51.6532 39.7213C52.563 39.7213 53.469 39.8574 54.3386 40.125C54.3558 40.1303 54.3728 40.1358 54.39 40.1412C58.0847 41.3063 60.7714 44.7648 60.7714 48.8394C60.7714 50.9417 60.0386 52.9931 58.7082 54.616C58.4931 54.8783 58.5313 55.2654 58.7936 55.4804C59.0561 55.6955 59.4431 55.6572 59.6581 55.395C61.1683 53.5531 62 51.225 62 48.8394C62 45.3166 60.2297 42.1998 57.5325 40.3304ZM27.8853 29.5117C27.8853 30.1829 27.3392 30.729 26.6679 30.729C25.9966 30.729 25.4506 30.183 25.4506 29.5117V25.2598C25.4506 24.5885 25.9966 24.0425 26.6679 24.0425C27.3392 24.0425 27.8853 24.5885 27.8853 25.2598V29.5117ZM35.9507 29.5117C35.9507 30.1829 35.4046 30.729 34.7334 30.729C34.0621 30.729 33.516 30.183 33.516 29.5117V25.2598C33.516 24.5885 34.0621 24.0425 34.7334 24.0425C35.4046 24.0425 35.9507 24.5885 35.9507 25.2598V29.5117ZM44.0163 29.5117C44.0163 30.1829 43.4702 30.729 42.7989 30.729C42.1277 30.729 41.5816 30.183 41.5816 29.5117V25.2598C41.5816 24.5885 42.1277 24.0425 42.7989 24.0425C43.4702 24.0425 44.0163 24.5885 44.0163 25.2598V29.5117ZM52.0818 29.5117C52.0818 30.1829 51.5357 30.729 50.8644 30.729C50.1932 30.729 49.6471 30.183 49.6471 29.5117V25.2598C49.6471 24.5885 50.1932 24.0425 50.8644 24.0425C51.5357 24.0425 52.0818 24.5885 52.0818 25.2598V29.5117ZM35.7501 35.2392H41.7823V41.1101H35.7501V35.2392ZM27.2608 55.3092H22.9037C21.9801 55.3092 21.2285 54.5577 21.2285 53.6339V49.4382H27.2607V55.3092H27.2608ZM27.2608 48.2097H21.2285V42.3387H27.2607V48.2097H27.2608ZM27.2608 41.1101H21.2285V35.2392H27.2607V41.1101H27.2608ZM28.4893 42.3387H34.5214V48.2097H28.4893V42.3387ZM34.5216 55.3092H28.4894V49.4383H34.5216V55.3092ZM34.5216 41.1101H28.4894V35.2392H34.5216V41.1101ZM35.75 42.3387H41.7823V45.7364C41.534 46.5246 41.3781 47.3534 41.3264 48.2098H35.75V42.3387ZM43.5762 55.3092H35.7501V49.4383H41.3239C41.4457 51.6065 42.2273 53.6359 43.5762 55.3092ZM43.0109 43.1577V42.3387H43.6106C43.3978 42.6015 43.1976 42.8748 43.0109 43.1577ZM49.0431 38.8266C47.4393 39.245 45.9862 40.0398 44.7833 41.1101H43.0109V35.2392H49.0431V38.8266ZM56.3039 39.5948C55.7254 39.3034 55.122 39.0689 54.5016 38.8916C54.4884 38.8878 54.4751 38.884 54.462 38.8803C53.5495 38.6225 52.6016 38.4927 51.6535 38.4927C51.1849 38.4928 50.7238 38.5246 50.2717 38.5852V35.239H56.3039V39.5948Z" fill="white"/>
<defs>
<linearGradient id="paint0_linear_290_487" x1="13.2575" y1="82" x2="86.7239" y2="56.2879" gradientUnits="userSpaceOnUse">
<stop stop-color="#425DC5"/>
<stop offset="1" stop-color="#5442C5"/>
</linearGradient>
</defs>
</svg>
