<svg width="82" height="82" viewBox="0 0 82 82" fill="none" xmlns="http://www.w3.org/2000/svg">
<path d="M53.6304 41.7186C53.2963 41.6572 52.9757 41.8785 52.9144 42.2127C52.8531 42.5469 53.0743 42.8675 53.4085 42.9288C56.8859 43.5664 59.4097 46.5968 59.4097 50.1344C59.4097 53.6903 56.863 56.6621 53.4979 57.3228C53.4912 57.3239 53.4845 57.3243 53.4779 57.3255C53.0155 57.4149 52.5464 57.4603 52.0838 57.4603C48.0443 57.4603 44.7578 54.1739 44.7578 50.1344C44.7578 46.5507 47.3389 43.5558 50.7591 42.9288C51.0933 42.8675 51.3145 42.5469 51.2532 42.2127C51.192 41.8785 50.8709 41.6571 50.5372 41.7186C48.5762 42.0781 46.8762 43.0903 45.6408 44.5049L41.8155 43.0234V40.8883C43.2017 39.827 44.1576 38.2321 44.3746 36.4129C46.0222 36.3398 47.249 35.0216 47.249 33.4543C47.249 32.7281 46.9821 32.0354 46.5078 31.5007V28.8005C46.508 23.9478 42.5602 20 37.7077 20C32.8552 20 28.9073 23.9478 28.9073 28.8004V31.5705C28.4276 32.1007 28.1665 32.7575 28.1665 33.4542C28.1665 35.0198 29.3907 36.3396 31.0404 36.4127C31.2566 38.2434 32.2228 39.9046 33.7446 40.9913V43.0233L25.099 46.3751C25.0951 46.3766 25.0913 46.3781 25.0874 46.3797C24.9352 46.4423 21.3597 47.9603 21.3597 52.1394V60.6063C21.3597 61.3748 21.9848 62 22.7534 62C23.1348 62 52.4175 62 52.8229 62C53.5877 62 54.2099 61.3779 54.2099 60.613V58.4236C57.9028 57.4758 60.6402 54.1189 60.6402 50.1346C60.6402 46.0028 57.6921 42.4634 53.6304 41.7186ZM43.6151 45.0398L41.3987 49.4817C41.3686 49.4604 40.8126 49.0653 38.6709 47.5443C40.2435 45.6032 39.7168 46.2533 41.3961 44.1804L43.6151 45.0398ZM39.3672 49.5484L38.7336 50.5022H36.8315L36.1979 49.5484L37.7826 48.4229L39.3672 49.5484ZM34.9752 43.221V41.6854C35.8066 42.043 36.7928 42.2518 37.7949 42.2518C38.7605 42.2518 39.7166 42.0403 40.5851 41.6351V43.2268L37.7825 46.6862L34.9752 43.221ZM45.4234 34.7541C45.1436 34.9947 44.7994 35.138 44.4233 35.1753V31.7336C45.9991 31.8862 46.5492 33.7858 45.4234 34.7541ZM30.9923 35.1753C30.0463 35.0816 29.3971 34.3241 29.3971 33.4543C29.3971 32.5822 30.1542 31.899 30.9923 31.7616V35.1753ZM31.0124 30.5182C30.7257 30.5444 30.3848 30.629 30.1378 30.7253V28.8004C30.1378 24.6264 33.5336 21.2306 37.7076 21.2306C41.8815 21.2306 45.2774 24.6263 45.2774 28.8004V30.6713C45.006 30.5747 44.7195 30.5162 44.4233 30.4987C44.4233 29.7593 44.5132 29.9697 42.3695 27.6698C42.1981 27.4859 41.9971 27.2161 41.5718 27.1268C41.2761 27.0646 40.9587 27.1174 40.6892 27.2935C38.2715 28.8728 35.2375 29.7594 32.3232 29.5685C31.611 29.5214 31.1221 29.9264 31.0124 30.5182ZM32.2228 35.6234C32.2228 35.1081 32.2228 31.3299 32.2228 30.7954C35.3536 31.0051 38.6569 30.0783 41.3215 28.35C42.4333 29.5447 43.0314 30.1647 43.1929 30.3726C43.1929 36.5099 43.1943 35.4179 43.1894 35.7584C43.1176 38.6588 40.7399 41.0212 37.7949 41.0212C34.5185 41.0213 32.2228 38.4953 32.2228 35.6234ZM34.1652 44.1819L36.8911 47.5465C36.0031 48.1772 34.6283 49.1537 34.1662 49.4819L31.9498 45.04L34.1652 44.1819ZM28.286 60.7695V53.451C28.286 53.1113 28.0106 52.8358 27.6707 52.8358C27.3309 52.8358 27.0555 53.1113 27.0555 53.451V60.7695H22.7534C22.6634 60.7695 22.5902 60.6963 22.5902 60.6064V52.1396C22.5902 48.8295 25.386 47.59 25.5515 47.5196L30.7971 45.486L33.1047 50.1106C33.1047 50.1106 33.1047 50.1106 33.1047 50.1106C33.2556 50.4129 33.5301 50.6333 33.8578 50.7152C34.4574 50.8652 34.8145 50.5308 35.194 50.2613L35.8543 51.2551L34.2439 60.7695H28.286ZM47.284 60.7694H41.3211L40.7689 57.5065C40.7123 57.1716 40.3958 56.9462 40.0597 57.0025C39.7247 57.0592 39.4991 57.3768 39.5558 57.7118L40.0733 60.7694H35.492L37.0216 51.7326H38.5438L39.0698 54.8405C39.1264 55.1755 39.4435 55.4012 39.7791 55.3445C40.1141 55.2878 40.3397 54.9702 40.283 54.6352L39.711 51.2551L40.3712 50.2613L40.7586 50.5365C41.3365 50.947 42.1442 50.7442 42.4603 50.1107C42.4604 50.1107 42.4604 50.1107 42.4604 50.1107L44.7678 45.4864L44.8728 45.527C44.0175 46.8651 43.5275 48.4578 43.5275 50.1347C43.5275 53.0751 45.0185 55.6737 47.2841 57.2145V60.7694H47.284ZM52.9795 60.6131C52.9795 60.6994 52.9094 60.7695 52.8231 60.7695H48.5145V57.91C49.6015 58.411 50.8106 58.6911 52.084 58.6911C52.3864 58.6911 52.6851 58.6751 52.9796 58.6443V60.6131H52.9795Z" fill="white"/>
<path d="M54.9959 48.3164C54.7587 48.0731 54.3694 48.0681 54.1258 48.3053L51.707 50.663L50.6936 49.6698C50.451 49.432 50.0614 49.4358 49.8235 49.6786C49.5857 49.9212 49.5896 50.3108 49.8322 50.5487L51.2751 51.9627C51.3947 52.0799 51.5502 52.1385 51.7057 52.1385C51.8607 52.1385 52.0157 52.0804 52.1352 51.9639L54.9847 49.1865C55.2281 48.9492 55.233 48.5598 54.9959 48.3164Z" fill="white"/>
<path d="M52.0839 43.7422C48.5592 43.7422 45.6916 46.6098 45.6916 50.1345C45.6916 53.6592 48.5592 56.5268 52.0839 56.5268C55.6086 56.5268 58.4762 53.6592 58.4762 50.1345C58.4762 46.6098 55.6086 43.7422 52.0839 43.7422ZM52.0839 55.2961C49.2377 55.2961 46.9222 52.9805 46.9222 50.1344C46.9222 47.2882 49.2377 44.9727 52.0839 44.9727C54.9301 44.9727 57.2456 47.2882 57.2456 50.1344C57.2456 52.9805 54.9301 55.2961 52.0839 55.2961Z" fill="white"/>
<defs>
<linearGradient id="paint0_linear_290_353" x1="13.2575" y1="82" x2="86.7239" y2="56.2879" gradientUnits="userSpaceOnUse">
<stop stop-color="#425DC5"/>
<stop offset="1" stop-color="#5442C5"/>
</linearGradient>
</defs>
</svg>
