<svg width="83" height="82" viewBox="0 0 83 82" fill="none" xmlns="http://www.w3.org/2000/svg">
<g clip-path="url(#clip0_290_528)">
<path d="M58.5349 21.6595H24.4651C22.2787 21.6595 20.5 23.4383 20.5 25.6246V48.2459C20.5 50.4328 22.2787 52.2119 24.4651 52.2119H35.7027C35.6015 54.3991 35.2102 56.5192 34.5357 58.5341H31.7903C31.2915 58.5341 30.887 58.9385 30.887 59.4373C30.887 59.9362 31.2915 60.3406 31.7903 60.3406H51.2096C51.7084 60.3406 52.1129 59.9362 52.1129 59.4373C52.1129 58.9385 51.7084 58.5341 51.2096 58.5341H48.4642C47.7897 56.5191 47.3984 54.399 47.2972 52.2119H58.5348C60.7212 52.2119 62.4999 50.4328 62.4999 48.2459V25.6246C62.5 23.4383 60.7213 21.6595 58.5349 21.6595ZM22.3064 25.6246C22.3064 24.4344 23.2749 23.4659 24.4651 23.4659H58.5348C59.7251 23.4659 60.6935 24.4343 60.6935 25.6246V46.2525H22.3064V25.6246ZM36.434 58.5342C37.0569 56.5078 37.4181 54.3894 37.5119 52.212H45.4881C45.582 54.3891 45.9432 56.5075 46.566 58.5342H36.434ZM60.6937 48.246H60.6936C60.6936 49.4368 59.7251 50.4056 58.5349 50.4056H24.4651C23.2749 50.4056 22.3065 49.4368 22.3065 48.246V48.059H60.6937V48.246Z" fill="white"/>
<path d="M53.5436 42.6398H34.0954C33.5966 42.6398 33.1921 43.0442 33.1921 43.543C33.1921 44.0419 33.5966 44.4463 34.0954 44.4463H53.5437C54.0425 44.4463 54.447 44.0419 54.447 43.543C54.4469 43.0441 54.0425 42.6398 53.5436 42.6398Z" fill="white"/>
<path d="M29.6018 42.6398H29.4563C28.9576 42.6398 28.5531 43.0442 28.5531 43.543C28.5531 44.0419 28.9576 44.4463 29.4563 44.4463H29.6017C30.1005 44.4463 30.505 44.0419 30.505 43.543C30.505 43.0441 30.1006 42.6398 29.6018 42.6398Z" fill="white"/>
<path d="M46.8292 29.1316L52.1537 33.6837L46.8292 38.2359C46.4501 38.5601 46.4055 39.1302 46.7296 39.5093C46.9083 39.7183 47.1615 39.8257 47.4166 39.8257C47.6242 39.8257 47.8329 39.7544 48.003 39.609L54.1306 34.3703C54.3314 34.1987 54.4469 33.9479 54.4469 33.6838C54.4469 33.4197 54.3315 33.1689 54.1307 32.9973L48.003 27.7585C47.624 27.4343 47.0538 27.479 46.7296 27.8582C46.4054 28.2373 46.4499 28.8074 46.8292 29.1316Z" fill="white"/>
<path d="M28.8695 34.3703L34.997 39.609C35.1671 39.7545 35.3758 39.8256 35.5834 39.8256C35.8383 39.8256 36.0918 39.7183 36.2704 39.5093C36.5945 39.1302 36.55 38.56 36.1708 38.2358L30.8464 33.6837L36.1708 29.1315C36.5499 28.8073 36.5945 28.2372 36.2704 27.8581C35.9462 27.4789 35.376 27.4343 34.9969 27.7584L28.8694 32.9971C28.6686 33.1687 28.5531 33.4195 28.5531 33.6836C28.5531 33.9477 28.6687 34.1987 28.8695 34.3703Z" fill="white"/>
<path d="M38.9172 41.6182C39.01 41.6485 39.1043 41.6628 39.197 41.6628C39.5775 41.6628 39.9315 41.4204 40.0557 41.039L44.6622 26.8878C44.8166 26.4135 44.5572 25.9038 44.0829 25.7494C43.6085 25.5949 43.0989 25.8543 42.9445 26.3287L38.338 40.4799C38.1835 40.9541 38.4429 41.4638 38.9172 41.6182Z" fill="white"/>
</g>
<defs>
<linearGradient id="paint0_linear_290_528" x1="13.7575" y1="82" x2="87.2239" y2="56.2879" gradientUnits="userSpaceOnUse">
<stop stop-color="#425DC5"/>
<stop offset="1" stop-color="#5442C5"/>
</linearGradient>
<clipPath id="clip0_290_528">
<rect width="42" height="42" fill="white" transform="translate(20.5 20)"/>
</clipPath>
</defs>
</svg>
