<svg width="83" height="82" viewBox="0 0 83 82" fill="none" xmlns="http://www.w3.org/2000/svg">
<path d="M59.813 28.0385C59.8542 28.1995 59.8751 28.365 59.875 28.5312V48.8749H23.125V28.5312C23.1256 28.0092 23.3332 27.5088 23.7023 27.1397C24.0714 26.7707 24.5718 26.563 25.0938 26.5624H25.75V47.5624H27.0625V24.5937C27.0631 24.0717 27.2707 23.5713 27.6398 23.2022C28.0089 22.8332 28.5093 22.6255 29.0312 22.6249H53.9688C54.1348 22.6248 54.3001 22.6457 54.4609 22.687L54.7891 21.416C54.5211 21.3471 54.2455 21.3123 53.9688 21.3124H29.0312C28.1613 21.3134 27.3273 21.6594 26.7121 22.2746C26.097 22.8897 25.751 23.7237 25.75 24.5937V25.2499H25.0938C24.2238 25.2509 23.3898 25.5969 22.7746 26.2121C22.1595 26.8272 21.8135 27.6612 21.8125 28.5312V52.1562C21.8135 53.0261 22.1595 53.8602 22.7746 54.4753C23.3898 55.0904 24.2238 55.4365 25.0938 55.4374H37.2718L35.7952 59.3749H34.2812V60.6874H48.7188V59.3749H47.2048L45.7282 55.4374H57.9062C58.7762 55.4365 59.6102 55.0904 60.2254 54.4753C60.8405 53.8602 61.1865 53.0261 61.1875 52.1562V28.5312C61.1876 28.2547 61.1528 27.9792 61.084 27.7114L59.813 28.0385ZM45.803 59.3749H37.197L38.6735 55.4374H44.3265L45.803 59.3749ZM59.875 52.1562C59.8744 52.6781 59.6668 53.1786 59.2977 53.5476C58.9286 53.9167 58.4282 54.1243 57.9062 54.1249H25.0938C24.5718 54.1243 24.0714 53.9167 23.7023 53.5476C23.3332 53.1786 23.1256 52.6781 23.125 52.1562V50.1874H59.875V52.1562Z" fill="white"/>
<path d="M55.9375 32.4688H57.25V47.5625H55.9375V32.4688Z" fill="white"/>
<path d="M29.0312 23.9375H30.3438V25.25H29.0312V23.9375Z" fill="white"/>
<path d="M31.6562 23.9375H32.9688V25.25H31.6562V23.9375Z" fill="white"/>
<path d="M34.2812 23.9375H35.5938V25.25H34.2812V23.9375Z" fill="white"/>
<path d="M28.375 27.2188V46.9062C28.375 47.0803 28.4441 47.2472 28.5672 47.3703C28.6903 47.4934 28.8572 47.5625 29.0312 47.5625H53.9688C54.1428 47.5625 54.3097 47.4934 54.4328 47.3703C54.5559 47.2472 54.625 47.0803 54.625 46.9062V36.4062H53.3125V40.7281L51.1516 38.5672L50.2234 39.4953L53.3125 42.5844V46.25H29.6875V42.6637L34.9375 39.1637L36.5422 40.2336L37.2703 39.1415L35.3016 37.829C35.1937 37.7571 35.0671 37.7188 34.9375 37.7188C34.8079 37.7188 34.6813 37.7571 34.5734 37.829L29.6875 41.0863V27.875H48.0625V26.5625H29.0312C28.8572 26.5625 28.6903 26.6316 28.5672 26.7547C28.4441 26.8778 28.375 27.0447 28.375 27.2188Z" fill="white"/>
<path d="M32.9688 32.7969C32.9688 33.5107 33.1804 34.2086 33.577 34.8021C33.9736 35.3957 34.5373 35.8583 35.1969 36.1315C35.8564 36.4047 36.5821 36.4762 37.2823 36.3369C37.9824 36.1976 38.6256 35.8539 39.1303 35.3491C39.6351 34.8443 39.9789 34.2012 40.1181 33.501C40.2574 32.8009 40.1859 32.0752 39.9128 31.4156C39.6396 30.7561 39.1769 30.1924 38.5834 29.7958C37.9898 29.3992 37.292 29.1875 36.5781 29.1875C35.6212 29.1886 34.7037 29.5692 34.0271 30.2458C33.3504 30.9225 32.9698 31.8399 32.9688 32.7969ZM38.875 32.7969C38.875 33.2512 38.7403 33.6952 38.4879 34.073C38.2355 34.4507 37.8768 34.7451 37.4571 34.9189C37.0374 35.0928 36.5756 35.1382 36.13 35.0496C35.6845 34.961 35.2752 34.7422 34.954 34.421C34.6328 34.0998 34.414 33.6905 34.3254 33.245C34.2368 32.7994 34.2822 32.3376 34.4561 31.9179C34.6299 31.4982 34.9243 31.1395 35.302 30.8871C35.6798 30.6347 36.1238 30.5 36.5781 30.5C37.1871 30.5007 37.7709 30.7429 38.2015 31.1735C38.6321 31.6041 38.8743 32.1879 38.875 32.7969Z" fill="white"/>
<path d="M43.021 35.2168L41.2047 35.8983C40.1488 36.2912 39.2568 37.0297 38.6739 37.9938C38.0909 38.9579 37.8513 40.0908 37.9939 41.2084C38.0547 41.6827 38.0056 42.1646 37.8504 42.617C37.6952 43.0693 37.438 43.4799 37.0988 43.817C37.007 43.9087 36.9444 44.0256 36.919 44.1529C36.8937 44.2802 36.9066 44.4122 36.9562 44.5322C37.0059 44.6521 37.09 44.7546 37.1979 44.8268C37.3058 44.899 37.4327 44.9375 37.5625 44.9375H42.0399C43.157 44.9388 44.2424 44.5659 45.1229 43.8784C46.0035 43.1909 46.6284 42.2284 46.8981 41.1443L47.3199 39.4572C50.3291 37.6995 52.9465 35.3441 55.0105 32.5361L60.7707 24.7185C61.0741 24.3067 61.2197 23.7998 61.1813 23.2897C61.1428 22.7796 60.9228 22.3003 60.5611 21.9386C60.1994 21.5769 59.72 21.3569 59.21 21.3184C58.6999 21.28 58.193 21.4257 57.7811 21.7291L49.964 27.4895C47.1444 29.562 44.7811 32.1923 43.021 35.2168ZM44.8413 34.7692L47.7306 37.6585C47.4435 37.8471 47.1523 38.0315 46.8559 38.2088L44.2909 35.6438C44.4683 35.3476 44.6518 35.0561 44.8413 34.7694V34.7692ZM38.8449 43.625C39.2519 42.8303 39.4092 41.9312 39.296 41.0455C39.1952 40.2507 39.356 39.4447 39.754 38.7493L40.0447 38.7978C40.2683 38.8344 40.4715 38.9495 40.6179 39.1224C40.7644 39.2952 40.8444 39.5146 40.8438 39.7412C40.8432 40.2473 41.0122 40.739 41.3236 41.1379C41.6351 41.5369 42.0712 41.82 42.5624 41.9422L42.9759 42.0456C43.1512 42.09 43.3105 42.1831 43.4353 42.314C43.5601 42.4449 43.6454 42.6085 43.6814 42.7857L43.764 43.1984C43.2326 43.4789 42.6407 43.6254 42.0397 43.625H38.8449ZM44.8997 42.2709C44.7799 41.9061 44.57 41.5774 44.2893 41.3154C44.0087 41.0534 43.6663 40.8665 43.2942 40.7721L42.8806 40.6687C42.6736 40.6172 42.4898 40.4979 42.3585 40.3297C42.2272 40.1616 42.156 39.9543 42.1562 39.741C42.1574 39.2884 42.0227 38.8459 41.7695 38.4707C41.5163 38.0955 41.1563 37.805 40.7362 37.6367C41.02 37.4235 41.3328 37.2521 41.6652 37.1276L43.3034 36.5131L46.0233 39.2329L45.6248 40.8263C45.4928 41.3555 45.2452 41.8489 44.8997 42.2709ZM58.5598 22.786C58.7188 22.6688 58.9145 22.6126 59.1115 22.6275C59.3084 22.6424 59.4935 22.7273 59.6331 22.867C59.7727 23.0066 59.8577 23.1917 59.8725 23.3886C59.8874 23.5856 59.8312 23.7813 59.714 23.9403L53.9539 31.7579C52.5123 33.719 50.7834 35.4516 48.8254 36.8973L45.6027 33.6746C47.0486 31.7166 48.7813 29.9876 50.7424 28.546L58.5598 22.786Z" fill="white"/>
<path d="M52.2953 30.6066L51.5078 29.5566C51.126 29.8432 50.7484 30.1444 50.3856 30.4522L51.2346 31.453C51.5772 31.1624 51.9344 30.8773 52.2953 30.6066Z" fill="white"/>
<path d="M48.4199 34.3172C48.9997 33.609 49.6227 32.9374 50.2855 32.3062L49.3805 31.3557C48.6784 32.0243 48.0185 32.7359 47.4044 33.4862L48.4199 34.3172Z" fill="white"/>
<defs>
<linearGradient id="paint0_linear_290_2253" x1="13.7575" y1="82" x2="87.2239" y2="56.2879" gradientUnits="userSpaceOnUse">
<stop stop-color="#425DC5"/>
<stop offset="1" stop-color="#5442C5"/>
</linearGradient>
</defs>
</svg>
