<svg width="83" height="82" viewBox="0 0 83 82" fill="none" xmlns="http://www.w3.org/2000/svg">
<path d="M29.6875 49.5312H31V50.8438H29.6875V49.5312Z" fill="white"/>
<path d="M53.9688 54.125H55.2812V55.4375H53.9688V54.125Z" fill="white"/>
<path d="M24.4375 27.2188H25.75V28.5312H24.4375V27.2188Z" fill="white"/>
<path d="M27.0625 27.2188H28.375V28.5312H27.0625V27.2188Z" fill="white"/>
<path d="M29.6875 27.2188H31V28.5312H29.6875V27.2188Z" fill="white"/>
<path d="M25.0938 39.0312H32.9688C33.1428 39.0312 33.3097 38.9621 33.4328 38.839C33.5559 38.716 33.625 38.549 33.625 38.375V33.125C33.625 32.951 33.5559 32.784 33.4328 32.661C33.3097 32.5379 33.1428 32.4688 32.9688 32.4688H25.0938C24.9197 32.4688 24.7528 32.5379 24.6297 32.661C24.5066 32.784 24.4375 32.951 24.4375 33.125V38.375C24.4375 38.549 24.5066 38.716 24.6297 38.839C24.7528 38.9621 24.9197 39.0312 25.0938 39.0312ZM25.75 33.7812H32.3125V37.7188H25.75V33.7812Z" fill="white"/>
<path d="M35.5938 39.0312H43.4688C43.6428 39.0312 43.8097 38.9621 43.9328 38.839C44.0559 38.716 44.125 38.549 44.125 38.375V33.125C44.125 32.951 44.0559 32.784 43.9328 32.661C43.8097 32.5379 43.6428 32.4688 43.4688 32.4688H35.5938C35.4197 32.4688 35.2528 32.5379 35.1297 32.661C35.0066 32.784 34.9375 32.951 34.9375 33.125V38.375C34.9375 38.549 35.0066 38.716 35.1297 38.839C35.2528 38.9621 35.4197 39.0312 35.5938 39.0312ZM36.25 33.7812H42.8125V37.7188H36.25V33.7812Z" fill="white"/>
<path d="M27.7188 29.8438H33.625V31.1562H27.7188V29.8438Z" fill="white"/>
<path d="M34.9375 29.8438H44.125V31.1562H34.9375V29.8438Z" fill="white"/>
<path d="M45.4375 29.8438H54.625V31.1562H45.4375V29.8438Z" fill="white"/>
<path d="M24.4375 29.8438H26.4062V31.1562H24.4375V29.8438Z" fill="white"/>
<path d="M24.4375 40.3438H29.0312V41.6562H24.4375V40.3438Z" fill="white"/>
<path d="M42.1562 42.9688H46.75V44.2812H42.1562V42.9688Z" fill="white"/>
<path d="M30.3438 40.3438H46.75V41.6562H30.3438V40.3438Z" fill="white"/>
<path d="M24.4375 42.9688H40.8438V44.2812H24.4375V42.9688Z" fill="white"/>
<path d="M59.2188 35.0938H57.25V26.5625C57.25 26.0404 57.0426 25.5396 56.6734 25.1704C56.3042 24.8012 55.8034 24.5938 55.2812 24.5938H23.7812C23.2591 24.5938 22.7583 24.8012 22.3891 25.1704C22.0199 25.5396 21.8125 26.0404 21.8125 26.5625V48.875C21.8125 49.3971 22.0199 49.8979 22.3891 50.2671C22.7583 50.6363 23.2591 50.8438 23.7812 50.8438H28.375V49.5312H23.7812C23.6072 49.5312 23.4403 49.4621 23.3172 49.339C23.1941 49.216 23.125 49.049 23.125 48.875V46.9062H48.0625V49.5312H32.3125V50.8438H35.4494L34.3994 56.0938H32.9688C32.7947 56.0938 32.6278 56.1629 32.5047 56.286C32.3816 56.409 32.3125 56.576 32.3125 56.75C32.3125 56.924 32.3816 57.091 32.5047 57.214C32.6278 57.3371 32.7947 57.4062 32.9688 57.4062H46.0938C46.2678 57.4062 46.4347 57.3371 46.5578 57.214C46.6809 57.091 46.75 56.924 46.75 56.75C46.75 56.576 46.6809 56.409 46.5578 56.286C46.4347 56.1629 46.2678 56.0938 46.0938 56.0938H44.6631L43.6131 50.8438H48.0625V55.4375C48.0625 55.9596 48.2699 56.4604 48.6391 56.8296C49.0083 57.1988 49.5091 57.4062 50.0312 57.4062H59.2188C59.7409 57.4062 60.2417 57.1988 60.6109 56.8296C60.9801 56.4604 61.1875 55.9596 61.1875 55.4375V46.8531H59.875V52.1562H49.375V40.3438H59.875V45.5833H61.1875V37.0625C61.1875 36.5404 60.9801 36.0396 60.6109 35.6704C60.2417 35.3012 59.7409 35.0938 59.2188 35.0938ZM43.3244 56.0938H35.7381L36.7881 50.8438H42.2757L43.3244 56.0938ZM23.125 45.5938V26.5625C23.125 26.3885 23.1941 26.2215 23.3172 26.0985C23.4403 25.9754 23.6072 25.9062 23.7812 25.9062H55.2812C55.4553 25.9062 55.6222 25.9754 55.7453 26.0985C55.8684 26.2215 55.9375 26.3885 55.9375 26.5625V35.0938H54.625V33.125C54.625 32.951 54.5559 32.784 54.4328 32.661C54.3097 32.5379 54.1428 32.4688 53.9688 32.4688H46.0938C45.9197 32.4688 45.7528 32.5379 45.6297 32.661C45.5066 32.784 45.4375 32.951 45.4375 33.125V38.375C45.4375 38.549 45.5066 38.716 45.6297 38.839C45.7528 38.9621 45.9197 39.0312 46.0938 39.0312H48.0625V45.5938H23.125ZM48.0625 37.0625V37.7188H46.75V33.7812H53.3125V35.0938H50.0312C49.5091 35.0938 49.0083 35.3012 48.6391 35.6704C48.2699 36.0396 48.0625 36.5404 48.0625 37.0625ZM59.875 53.4688V55.4375C59.875 55.6115 59.8059 55.7785 59.6828 55.9015C59.5597 56.0246 59.3928 56.0938 59.2188 56.0938H50.0312C49.8572 56.0938 49.6903 56.0246 49.5672 55.9015C49.4441 55.7785 49.375 55.6115 49.375 55.4375V53.4688H59.875ZM49.375 39.0312V37.0625C49.375 36.8885 49.4441 36.7215 49.5672 36.5985C49.6903 36.4754 49.8572 36.4062 50.0312 36.4062H59.2188C59.3928 36.4062 59.5597 36.4754 59.6828 36.5985C59.8059 36.7215 59.875 36.8885 59.875 37.0625V39.0312H49.375Z" fill="white"/>
<path d="M58.5625 42.3125C58.5625 42.1385 58.4934 41.9715 58.3703 41.8485C58.2472 41.7254 58.0803 41.6562 57.9062 41.6562H51.3438C51.1697 41.6562 51.0028 41.7254 50.8797 41.8485C50.7566 41.9715 50.6875 42.1385 50.6875 42.3125V46.25C50.6875 46.424 50.7566 46.591 50.8797 46.714C51.0028 46.8371 51.1697 46.9062 51.3438 46.9062H57.9062C58.0803 46.9062 58.2472 46.8371 58.3703 46.714C58.4934 46.591 58.5625 46.424 58.5625 46.25V42.3125ZM57.25 45.5938H52V42.9688H57.25V45.5938Z" fill="white"/>
<path d="M50.6875 48.875H58.5625V50.1875H50.6875V48.875Z" fill="white"/>
<defs>
<linearGradient id="paint0_linear_290_2070" x1="13.7575" y1="82" x2="87.2239" y2="56.2879" gradientUnits="userSpaceOnUse">
<stop stop-color="#425DC5"/>
<stop offset="1" stop-color="#5442C5"/>
</linearGradient>
</defs>
</svg>
