<svg width="24" height="24" viewBox="-5 -6 24 24" fill="none" xmlns="http://www.w3.org/2000/svg">
<path d="M8.91578 10.6212L12.8258 6.75122C12.9195 6.65826 12.9939 6.54766 13.0447 6.4258C13.0954 6.30394 13.1216 6.17323 13.1216 6.04122C13.1216 5.90921 13.0954 5.7785 13.0447 5.65664C12.9939 5.53479 12.9195 5.42418 12.8258 5.33122C12.6384 5.14497 12.385 5.04043 12.1208 5.04043C11.8566 5.04043 11.6031 5.14497 11.4158 5.33122L7.82578 8.89122L7.82578 1.50122C7.82578 1.236 7.72043 0.98165 7.53289 0.794114C7.34535 0.606577 7.091 0.50122 6.82578 0.50122C6.56057 0.50122 6.30621 0.606577 6.11868 0.794114C5.93114 0.98165 5.82578 1.236 5.82578 1.50122L5.82578 8.95122L2.21578 5.33122C2.12282 5.23749 2.01222 5.1631 1.89036 5.11233C1.7685 5.06156 1.6378 5.03542 1.50578 5.03542C1.37377 5.03542 1.24307 5.06156 1.12121 5.11233C0.999347 5.1631 0.888746 5.23749 0.795783 5.33122C0.702055 5.42418 0.627661 5.53479 0.576892 5.65664C0.526123 5.7785 0.499985 5.90921 0.499985 6.04122C0.499985 6.17323 0.526123 6.30394 0.576892 6.4258C0.62766 6.54766 0.702055 6.65826 0.795783 6.75122L4.67578 10.6212C5.23829 11.183 6.00078 11.4986 6.79578 11.4986C7.59079 11.4986 8.35328 11.183 8.91578 10.6212Z" fill="#425DC5"/>
</svg>
