<svg width="16" height="16" viewBox="0 0 16 16" fill="none" xmlns="http://www.w3.org/2000/svg">
<path d="M14 5.49997C14 5.75518 13.9021 6.01197 13.7071 6.20702L8.70708 11.207C8.31655 11.5976 7.68359 11.5978 7.29298 11.207C7.29294 11.207 7.2929 11.2069 7.29286 11.2069L2.29298 6.20702C1.9024 5.81645 1.90224 5.1834 2.29309 4.7928C2.68346 4.40268 3.31633 4.40203 3.70708 4.79292C3.70712 4.79295 3.70716 4.79299 3.7072 4.79303L8.00003 9.08586L12.293 4.79291C12.6835 4.40238 13.3165 4.40218 13.7071 4.79291L14 5.49997ZM14 5.49997C14 5.2448 13.9022 4.98807 13.7072 4.79303L14 5.49997Z" fill="#425DC5" stroke="#425DC5"/>
</svg>
