<svg width="32" height="32" viewBox="0 0 32 32" fill="none" xmlns="http://www.w3.org/2000/svg">
<g clip-path="url(#clip0_118_2664)">
<path d="M22.2761 12.9422C22.7968 12.4215 22.7968 11.5772 22.2761 11.0565C21.7555 10.5358 20.9112 10.5358 20.3905 11.0565L14.6666 16.7804L12.2761 14.3898C11.7555 13.8692 10.9112 13.8692 10.3905 14.3898C9.86983 14.9105 9.86983 15.7548 10.3905 16.2755L13.7239 19.6088C14.2446 20.1295 15.0888 20.1295 15.6095 19.6088L22.2761 12.9422Z" fill="#425DC5"/>
<path fill-rule="evenodd" clip-rule="evenodd" d="M0 16C0 29.176 2.824 32 16 32C29.176 32 32 29.176 32 16C32 2.824 29.176 0 16 0C2.824 0 0 2.824 0 16ZM2.66669 16C2.66669 19.2332 2.84344 21.6492 3.25031 23.4801C3.6505 25.2807 4.23694 26.3477 4.94462 27.0553C5.65231 27.7631 6.71931 28.3496 8.51994 28.7497C10.3508 29.1566 12.7669 29.3333 16 29.3333C19.2332 29.3333 21.6492 29.1566 23.4801 28.7497C25.2807 28.3496 26.3477 27.763 27.0553 27.0553C27.7631 26.3477 28.3496 25.2806 28.7497 23.4801C29.1566 21.6492 29.3333 19.2332 29.3333 16C29.3333 12.7669 29.1566 10.3507 28.7497 8.51994C28.3496 6.71938 27.763 5.65237 27.0553 4.94462C26.3477 4.23694 25.2806 3.65044 23.4801 3.25031C21.6492 2.84344 19.2332 2.66669 16 2.66669C12.7669 2.66669 10.3507 2.84344 8.51994 3.25031C6.71938 3.6505 5.65237 4.23694 4.94462 4.94462C4.23688 5.65231 3.65044 6.71931 3.25031 8.51994C2.84337 10.3507 2.66669 12.7669 2.66669 16Z" fill="#425DC5"/>
</g>
<defs>
<clipPath id="clip0_118_2664">
<rect width="32" height="32" fill="white"/>
</clipPath>
</defs>
</svg>
