<svg width="21" height="21" viewBox="0 0 21 21" fill="none" xmlns="http://www.w3.org/2000/svg">
<g clip-path="url(#clip0_283_16604)">
<path d="M20.5002 3.8335H6.3335V5.50016H20.5002V3.8335Z" fill="#425DC5"/>
<path d="M20.5002 9.6665H6.3335V11.3332H20.5002V9.6665Z" fill="#425DC5"/>
<path d="M20.5002 15.5H6.3335V17.1667H20.5002V15.5Z" fill="#425DC5"/>
<path d="M2.16667 6.33333C3.08714 6.33333 3.83333 5.58714 3.83333 4.66666C3.83333 3.74619 3.08714 3 2.16667 3C1.24619 3 0.5 3.74619 0.5 4.66666C0.5 5.58714 1.24619 6.33333 2.16667 6.33333Z" fill="#425DC5"/>
<path d="M2.16667 12.1668C3.08714 12.1668 3.83333 11.4206 3.83333 10.5002C3.83333 9.57969 3.08714 8.8335 2.16667 8.8335C1.24619 8.8335 0.5 9.57969 0.5 10.5002C0.5 11.4206 1.24619 12.1668 2.16667 12.1668Z" fill="#425DC5"/>
<path d="M2.16667 17.9998C3.08714 17.9998 3.83333 17.2536 3.83333 16.3332C3.83333 15.4127 3.08714 14.6665 2.16667 14.6665C1.24619 14.6665 0.5 15.4127 0.5 16.3332C0.5 17.2536 1.24619 17.9998 2.16667 17.9998Z" fill="#425DC5"/>
</g>
<defs>
<clipPath id="clip0_283_16604">
<rect width="20" height="20" fill="white" transform="translate(0.5 0.5)"/>
</clipPath>
</defs>
</svg>
