<svg width="24" height="24" viewBox="-3.5 -2 24 24" fill="none" xmlns="http://www.w3.org/2000/svg">
<g clip-path="url(#clip0_290_4073)">
<path fill-rule="evenodd" clip-rule="evenodd" d="M0.984009 7.4779C0.984009 3.35494 4.41006 0 8.62037 0C12.8307 0 16.2567 3.35494 16.2567 7.4779C16.2567 10.5297 12.3147 15.744 9.96193 18.5734C9.63169 18.9777 9.13633 19.2 8.62037 19.2C8.1044 19.2 7.60907 18.9777 7.27885 18.5734C4.92602 15.744 0.984009 10.5297 0.984009 7.4779ZM8.62037 17.9066C8.68229 17.9066 8.82676 17.8863 8.92995 17.765C12.6862 13.2379 14.9358 9.37768 14.9358 7.4779C14.9358 4.06232 12.1083 1.29347 8.62037 1.29347C5.13241 1.29347 2.3049 4.06232 2.3049 7.4779C2.3049 9.37768 4.55453 13.2379 8.31079 17.765C8.41398 17.8863 8.55846 17.9066 8.62037 17.9066Z" fill="white"/>
<path fill-rule="evenodd" clip-rule="evenodd" d="M4.91131 7.63633C4.91131 5.59425 6.48025 3.92725 8.40222 3.92725C10.3242 3.92725 11.8931 5.59425 11.8931 7.63633C11.8931 9.67838 10.3242 11.3454 8.40222 11.3454C6.48025 11.3454 4.91131 9.67838 4.91131 7.63633ZM6.14685 7.63633C6.14685 8.96998 7.16667 10.0326 8.40222 10.0326C9.63777 10.0326 10.6576 8.99078 10.6576 7.65717C10.6576 6.32357 9.63777 5.26085 8.40222 5.26085C7.16667 5.26085 6.14685 6.30273 6.14685 7.63633Z" fill="white"/>
</g>
<defs>
<clipPath id="clip0_290_4073">
<rect width="16" height="19.2" fill="white" transform="translate(0.984009)"/>
</clipPath>
</defs>
</svg>
