<svg width="338" height="1384" viewBox="0 0 338 1384" fill="none" xmlns="http://www.w3.org/2000/svg">
<path fill-rule="evenodd" clip-rule="evenodd" d="M-44.1147 1378.93C-169.509 1399.52 -296.929 1354.11 -416.407 1299.21C-514.421 1254.18 -588.073 1172.96 -664.828 1093.75C-736.324 1019.96 -812.98 949.771 -849.036 852.724C-886.391 752.181 -871.982 646.797 -870.2 540.975C-867.857 401.809 -917.047 241.796 -836.947 134.795C-756.442 27.2525 -603.156 -14.2339 -469.648 5.90099C-343.233 24.9663 -278.152 188.033 -157.924 237.201C-22.4986 292.586 179.248 176.861 260.232 304.395C341.209 431.918 137.642 572.363 149.808 721.82C163.206 886.407 376.92 1021.6 331.22 1176.46C288.574 1320.96 99.6844 1355.32 -44.1147 1378.93Z" fill="#F4F6FC"/>
</svg>
