<svg width="941" height="737" viewBox="0 0 941 737" fill="none" xmlns="http://www.w3.org/2000/svg">
<g filter="url(#filter0_i_281_14198)">
<path fill-rule="evenodd" clip-rule="evenodd" d="M165.803 -274.956C246.017 -373.512 371.511 -424.005 497.345 -462.134C600.575 -493.414 709.561 -481.451 819.542 -473.047C921.985 -465.219 1025.91 -463.505 1117.25 -414.766C1211.87 -364.271 1270.96 -275.83 1339.8 -195.433C1430.32 -89.7044 1573.24 -2.53955 1584.23 130.669C1595.27 264.551 1508.03 397.244 1394.74 470.695C1287.47 540.244 1130.63 461.33 1008.03 504.242C869.931 552.579 795.642 772.976 650.457 731.206C505.285 689.439 564.545 449.329 456.34 345.517C337.18 231.195 87.5588 271.699 19.0897 125.475C-44.8021 -10.9724 73.8145 -161.935 165.803 -274.956Z" fill="#F4F6FC"/>
</g>
<defs>
<filter id="filter0_i_281_14198" x="0.979492" y="-482.475" width="1584.19" height="1222.92" filterUnits="userSpaceOnUse" color-interpolation-filters="sRGB">
<feFlood flood-opacity="0" result="BackgroundImageFix"/>
<feBlend mode="normal" in="SourceGraphic" in2="BackgroundImageFix" result="shape"/>
<feColorMatrix in="SourceAlpha" type="matrix" values="0 0 0 0 0 0 0 0 0 0 0 0 0 0 0 0 0 0 127 0" result="hardAlpha"/>
<feOffset dy="4"/>
<feGaussianBlur stdDeviation="2"/>
<feComposite in2="hardAlpha" operator="arithmetic" k2="-1" k3="1"/>
<feColorMatrix type="matrix" values="0 0 0 0 0.8875 0 0 0 0 0.8875 0 0 0 0 0.8875 0 0 0 1 0"/>
<feBlend mode="normal" in2="shape" result="effect1_innerShadow_281_14198"/>
</filter>
</defs>
</svg>
