<svg width="386" height="2174" viewBox="0 0 386 2174" fill="none" xmlns="http://www.w3.org/2000/svg">
<path fill-rule="evenodd" clip-rule="evenodd" d="M1444.34 1915.31C1572.33 1795.3 1629.74 1617.57 1670.09 1440.57C1703.19 1295.36 1676.17 1146.41 1653.96 995.743C1633.27 855.402 1620.86 712.433 1544.9 591.343C1466.2 465.891 1338.67 393.057 1221.28 306.027C1066.91 191.574 933.032 3.15412 748.497 0.902168C563.029 -1.36138 388.703 131.624 298.492 294.765C213.074 449.24 336.931 657.629 289.683 830.64C236.462 1025.52 -59.9149 1149.15 11.6567 1345.08C83.2223 1540.99 408.203 1436.15 561.65 1575.15C730.631 1728.22 698.983 2075.94 907.002 2156.11C1101.11 2230.91 1297.57 2052.94 1444.34 1915.31Z" fill="#F4F6FC"/>
</svg>
