<svg width="427" height="1542" viewBox="0 0 427 1542" fill="none" xmlns="http://www.w3.org/2000/svg">
<path fill-rule="evenodd" clip-rule="evenodd" d="M727.627 44.0088C850.115 77.837 946.797 172.446 1032.29 272.337C1102.43 354.284 1135.29 458.885 1171.81 562.966C1205.82 659.914 1246.03 755.758 1238.12 858.984C1229.93 965.929 1172.7 1055.59 1126.76 1150.93C1066.34 1276.32 1043.98 1442.22 926.427 1505.83C808.278 1569.77 651.71 1543.23 538.913 1469.03C432.108 1398.76 441.315 1223.43 352.738 1128.42C252.963 1021.41 21.2942 1041.98 1.1769 892.255C-18.9387 742.54 224.738 700.276 276.294 559.466C333.068 404.402 195.634 192.121 301.997 70.6464C401.25 -42.7076 587.161 5.21546 727.627 44.0088Z" fill="#F4F6FC"/>
</svg>
