<svg width="80" height="436" viewBox="0 0 80 436" fill="none" xmlns="http://www.w3.org/2000/svg">
<path fill-rule="evenodd" clip-rule="evenodd" d="M-125.51 423.396C-160.063 413.853 -187.336 387.165 -211.454 358.987C-231.24 335.87 -240.509 306.363 -250.81 277.003C-260.405 249.655 -271.747 222.618 -269.516 193.499C-267.205 163.331 -251.062 138.039 -238.101 111.143C-221.058 75.7727 -214.751 28.9727 -181.59 11.0288C-148.261 -7.00594 -104.095 0.479324 -72.2757 21.412C-42.1469 41.2327 -44.7442 90.6924 -19.7574 117.493C8.38809 147.681 73.7398 141.877 79.4147 184.114C85.0891 226.347 16.3502 238.269 1.80684 277.99C-14.2088 321.733 24.5601 381.615 -5.44393 415.882C-33.4421 447.858 -85.886 434.339 -125.51 423.396Z" fill="#F4F6FC"/>
</svg>
