<svg width="85" height="436" viewBox="0 0 85 436" fill="none" xmlns="http://www.w3.org/2000/svg">
<path fill-rule="evenodd" clip-rule="evenodd" d="M205.457 423.396C240.009 413.853 267.282 387.165 291.4 358.987C311.186 335.87 320.455 306.364 330.757 277.003C340.352 249.655 351.694 222.618 349.463 193.499C347.151 163.331 331.008 138.039 318.048 111.143C301.004 75.7727 294.697 28.9727 261.536 11.0288C228.208 -7.00592 184.041 0.47934 152.222 21.412C122.093 41.2328 124.691 90.6924 99.7038 117.493C71.5583 147.681 6.20666 141.877 0.531742 184.114C-5.14268 226.347 63.5963 238.269 78.1396 277.99C94.1552 321.733 55.3863 381.615 85.3903 415.882C113.389 447.858 165.832 434.339 205.457 423.396Z" fill="#F4F6FC"/>
</svg>
