<svg width="286" height="1403" viewBox="0 0 286 1403" fill="none" xmlns="http://www.w3.org/2000/svg">
<path fill-rule="evenodd" clip-rule="evenodd" d="M-106.935 1399.73C-233.131 1414.64 -358.372 1363.52 -475.25 1303.3C-571.133 1253.89 -641.045 1169.43 -714.148 1086.83C-782.241 1009.89 -855.651 936.316 -887.291 837.74C-920.072 735.614 -900.922 630.987 -894.367 525.354C-885.746 386.435 -927.666 224.365 -842.819 121.088C-757.543 17.2877 -602.541 -17.2396 -470.078 8.8993C-344.652 33.6496 -286.996 199.487 -169.109 254.031C-36.3202 315.469 170.443 208.966 245.59 340.024C320.73 471.071 111.033 602.188 116.442 752.042C122.399 917.066 329.795 1061.77 277.153 1214.4C228.031 1356.84 37.7831 1382.63 -106.935 1399.73Z" fill="#F4F6FC"/>
</svg>
