<svg width="335" height="1220" viewBox="0 0 335 1220" fill="none" xmlns="http://www.w3.org/2000/svg">
<path fill-rule="evenodd" clip-rule="evenodd" d="M165.803 208.044C246.017 109.488 371.511 58.9954 497.345 20.8662C600.575 -10.4137 709.561 1.54938 819.542 9.95342C921.985 17.7815 1025.91 19.4955 1117.25 68.2347C1211.87 118.73 1270.96 207.171 1339.8 287.567C1430.32 393.296 1573.24 480.461 1584.23 613.669C1595.27 747.552 1508.03 880.244 1394.74 953.695C1287.47 1023.24 1130.63 944.33 1008.03 987.242C869.931 1035.58 795.642 1255.98 650.457 1214.21C505.285 1172.44 564.545 932.329 456.34 828.517C337.18 714.196 87.5588 754.699 19.0897 608.476C-44.8021 472.028 73.8145 321.065 165.803 208.044Z" fill="#F4F6FC"/>
</svg>
