<svg width="302" height="1220" viewBox="0 0 302 1220" fill="none" xmlns="http://www.w3.org/2000/svg">
<path fill-rule="evenodd" clip-rule="evenodd" d="M-1118.2 208.044C-1037.98 109.488 -912.489 58.9952 -786.655 20.8659C-683.425 -10.4139 -574.439 1.54914 -464.458 9.95317C-362.015 17.7812 -258.093 19.4953 -166.755 68.2344C-72.1256 118.729 -13.0361 207.17 55.7961 287.567C146.317 393.296 289.237 480.46 300.225 613.669C311.268 747.551 224.031 880.244 110.741 953.695C3.46928 1023.24 -153.371 944.33 -275.971 987.242C-414.069 1035.58 -488.358 1255.98 -633.543 1214.21C-778.715 1172.44 -719.455 932.329 -827.66 828.517C-946.82 714.195 -1196.44 754.699 -1264.91 608.475C-1328.8 472.028 -1210.19 321.065 -1118.2 208.044Z" fill="#F4F6FC"/>
</svg>
