<svg width="293" height="1343" viewBox="0 0 293 1343" fill="none" xmlns="http://www.w3.org/2000/svg">
<path fill-rule="evenodd" clip-rule="evenodd" d="M-66.0835 12.8639C-189.075 -19.084 -320.108 14.509 -444.097 58.2681C-545.813 94.1664 -626.57 168.324 -710.236 240.202C-788.167 307.155 -870.91 370.054 -915.673 463.406C-962.049 560.12 -957.319 666.379 -965.203 771.922C-975.571 910.721 -1039.16 1065.58 -969.162 1179.44C-898.808 1293.88 -749.949 1349.19 -615.161 1341.32C-487.533 1333.87 -407.841 1177.43 -283.627 1139.44C-143.711 1096.65 46.6311 1230.3 138.917 1110.69C231.196 991.093 41.2974 832.653 67.0539 684.93C95.4179 522.253 320.58 407.13 289.204 248.748C259.926 100.954 74.9603 49.501 -66.0835 12.8639Z" fill="#F4F6FC"/>
</svg>
