<svg width="50" height="50" viewBox="0 0 50 50" fill="none" xmlns="http://www.w3.org/2000/svg">
<path fill-rule="evenodd" clip-rule="evenodd" d="M36.3645 5.30066C36.9146 4.36288 36.6032 3.14889 35.6247 2.6748C30.7553 0.315397 25.2286 -0.394993 19.8899 0.684811C13.9057 1.89517 8.57796 5.26975 4.92633 10.1627C1.27471 15.0557 -0.444338 21.1235 0.098183 27.2047C0.640704 33.2859 3.40669 38.9535 7.86678 43.1229C12.3269 47.2922 18.1678 49.6704 24.2718 49.8023C30.3757 49.9343 36.314 47.8107 40.9501 43.838C45.5862 39.8653 48.5945 34.3225 49.3993 28.2704C50.1173 22.8711 49.0365 17.4047 46.3546 12.7052C45.8157 11.7609 44.5836 11.5319 43.6849 12.1439C42.7863 12.7559 42.563 13.9767 43.0877 14.929C45.232 18.8207 46.0866 23.313 45.4964 27.7514C44.8193 32.843 42.2884 37.5061 38.3881 40.8483C34.4879 44.1904 29.4921 45.977 24.3569 45.866C19.2217 45.755 14.3077 43.7542 10.5555 40.2466C6.80328 36.739 4.47629 31.9709 4.01987 26.8548C3.56345 21.7388 5.00967 16.634 8.08174 12.5176C11.1538 8.40119 15.636 5.56219 20.6704 4.54393C25.0591 3.65629 29.5987 4.20658 33.6259 6.08398C34.6113 6.54337 35.8143 6.23845 36.3645 5.30066ZM42.85 8.08678C42.85 9.33232 41.8402 10.342 40.5947 10.342C39.3492 10.342 38.3394 9.33232 38.3394 8.08678C38.3394 6.84123 39.3492 5.83152 40.5947 5.83152C41.8402 5.83152 42.85 6.84123 42.85 8.08678ZM24.8079 42.4627C34.4367 42.4627 42.2425 34.6569 42.2425 25.0281C42.2425 18.0371 38.1278 12.0071 32.188 9.22795C31.687 8.99417 29.363 11.738 27.4476 13.9994L27.4476 13.9994C26.1433 15.5393 25.0286 16.8554 24.8079 16.8554C24.585 16.8554 23.4002 15.5341 22.0237 13.9989C20.0356 11.7817 17.6476 9.11839 17.1802 9.34614C11.374 12.1755 7.37327 18.1346 7.37327 25.0281C7.37327 34.6569 15.179 42.4627 24.8079 42.4627ZM32.0595 31.0494C34.398 31.0494 36.2937 29.1536 36.2937 26.8151C36.2937 24.4766 34.398 22.5808 32.0595 22.5808C29.7209 22.5808 27.8252 24.4766 27.8252 26.8151C27.8252 29.1536 29.7209 31.0494 32.0595 31.0494ZM21.7762 26.8151C21.7762 29.1536 19.8805 31.0494 17.542 31.0494C15.2034 31.0494 13.3077 29.1536 13.3077 26.8151C13.3077 24.4766 15.2034 22.5808 17.542 22.5808C19.8805 22.5808 21.7762 24.4766 21.7762 26.8151Z" fill="#425DC5"/>
</svg>
