<svg width="211" height="62" viewBox="0 0 211 62" fill="none" xmlns="http://www.w3.org/2000/svg">
<path fill-rule="evenodd" clip-rule="evenodd" d="M45.1163 3.61041C46.3284 4.19772 46.7142 5.70161 46.0327 6.86335C45.3512 8.02509 43.8609 8.40283 42.6401 7.83374C37.6512 5.50799 32.0275 4.82629 26.5908 5.9259C20.354 7.18733 14.8015 10.7043 10.9958 15.8038C7.19004 20.9033 5.39846 27.227 5.96387 33.5649C6.52928 39.9028 9.41199 45.8095 14.0603 50.1548C18.7086 54.5001 24.796 56.9786 31.1576 57.1161C37.5191 57.2537 43.7079 55.0405 48.5397 50.9001C53.3714 46.7598 56.5067 40.9831 57.3454 34.6756C58.0766 29.1772 57.0179 23.6121 54.3616 18.7911C53.7116 17.6114 53.9882 16.099 55.1014 15.3408C56.2146 14.5826 57.7411 14.8663 58.4086 16.0362C61.7309 21.858 63.0698 28.6298 62.1804 35.3185C61.1834 42.8159 57.4567 49.6824 51.7134 54.6038C45.9702 59.5253 38.6138 62.156 31.0522 61.9925C23.4905 61.8291 16.2547 58.8829 10.7295 53.7179C5.20425 48.5529 1.77772 41.5318 1.10564 33.9983C0.433558 26.4648 2.56313 18.948 7.0868 12.8866C11.6105 6.82506 18.2105 2.64458 25.6238 1.14518C32.2375 -0.192491 39.0841 0.687547 45.1163 3.61041ZM51.2732 13.1088C52.8162 13.1088 54.0671 11.858 54.0671 10.315C54.0671 8.77201 52.8162 7.52116 51.2732 7.52116C49.7302 7.52116 48.4794 8.77201 48.4794 10.315C48.4794 11.858 49.7302 13.1088 51.2732 13.1088ZM53.3145 31.3019C53.3145 43.2303 43.6446 52.9001 31.7163 52.9001C19.7879 52.9001 10.1181 43.2303 10.1181 31.3019C10.1181 22.7622 15.0742 15.3801 22.2671 11.875C22.8461 11.5928 25.8043 14.8921 28.2672 17.6389C29.9724 19.5407 31.4402 21.1776 31.7163 21.1776C31.9897 21.1776 33.3707 19.5471 34.9864 17.6395L34.9864 17.6395C37.3592 14.838 40.2382 11.439 40.8589 11.7286C48.2171 15.1714 53.3145 22.6414 53.3145 31.3019ZM45.9451 33.5151C45.9451 36.4121 43.5966 38.7606 40.6996 38.7606C37.8026 38.7606 35.4542 36.4121 35.4542 33.5151C35.4542 30.6181 37.8026 28.2697 40.6996 28.2697C43.5966 28.2697 45.9451 30.6181 45.9451 33.5151ZM22.7152 38.7606C25.6122 38.7606 27.9607 36.4121 27.9607 33.5151C27.9607 30.6181 25.6122 28.2697 22.7152 28.2697C19.8182 28.2697 17.4697 30.6181 17.4697 33.5151C17.4697 36.4121 19.8182 38.7606 22.7152 38.7606ZM92.8931 50.5897C98.2721 50.5897 102.837 48.7318 106.588 45.016C110.34 41.2648 112.215 36.682 112.215 31.2675C112.215 25.8531 110.34 21.2879 106.588 17.5721C102.837 13.8209 98.2721 11.9453 92.8931 11.9453C87.514 11.9453 82.9489 13.8209 79.1977 17.5721C75.4819 21.2879 73.624 25.8531 73.624 31.2675C73.624 36.6466 75.4819 41.2294 79.1977 45.016C82.9489 48.7318 87.514 50.5897 92.8931 50.5897ZM92.8931 43.4235C89.4604 43.4235 86.6116 42.2911 84.3467 40.0262C82.0464 37.7259 80.8963 34.8064 80.8963 31.2675C80.8963 27.7286 82.0464 24.8091 84.3467 22.5088C86.647 20.2086 89.4958 19.0584 92.8931 19.0584C96.2904 19.0584 99.1392 20.2086 101.439 22.5088C103.74 24.8091 104.89 27.7286 104.89 31.2675C104.89 34.8064 103.74 37.7259 101.439 40.0262C99.1746 42.2911 96.3258 43.4235 92.8931 43.4235ZM134.934 50.5897C140.313 50.5897 144.879 48.7318 148.63 45.016C152.381 41.2648 154.257 36.682 154.257 31.2675C154.257 25.8531 152.381 21.2879 148.63 17.5721C144.879 13.8209 140.313 11.9453 134.934 11.9453C129.555 11.9453 124.99 13.8209 121.239 17.5721C117.523 21.2879 115.665 25.8531 115.665 31.2675C115.665 36.6466 117.523 41.2294 121.239 45.016C124.99 48.7318 129.555 50.5897 134.934 50.5897ZM134.934 43.4235C131.502 43.4235 128.653 42.2911 126.388 40.0262C124.088 37.7259 122.938 34.8064 122.938 31.2675C122.938 27.7286 124.088 24.8091 126.388 22.5088C128.688 20.2086 131.537 19.0584 134.934 19.0584C138.332 19.0584 141.18 20.2086 143.481 22.5088C145.781 24.8091 146.931 27.7286 146.931 31.2675C146.931 34.8064 145.781 37.7259 143.481 40.0262C141.216 42.2911 138.367 43.4235 134.934 43.4235ZM188.229 12.6885H195.767V49.8465H188.495V25.7469L178.037 42.9988H177.188L166.731 25.8V49.8465H159.405V12.6885H166.943L177.613 30.2589L188.229 12.6885ZM202.691 12.6885V49.8465H210.016V12.6885H202.691Z" fill="#F4F6FC"/>
</svg>
