<svg width="414" height="291" viewBox="0 0 414 291" fill="none" xmlns="http://www.w3.org/2000/svg">
<path d="M310.472 244.157C304.887 250.095 299.603 253.924 295.427 256.949C246.346 292.51 188.271 282.144 175.927 279.613C157.701 275.874 122.47 268.649 96.9979 238.402C58.4615 192.644 64.4619 120.543 94.3554 72.9524C99.8234 64.2466 128.708 15.9282 187.406 8.18204C222.932 3.49262 264.342 12.9505 294.332 38.3248C357.28 91.5767 352.794 199.162 310.472 244.157Z" fill="url(#paint0_linear_290_6232)"/>
<path d="M74.571 100.282C74.4026 100.228 74.2596 100.141 74.1586 100.032C74.0575 99.9232 74.0025 99.7964 74 99.6665C74 98.7726 74.0159 97.8615 74.0649 96.9642C74.0704 96.8762 74.1008 96.7898 74.1545 96.7101C74.2081 96.6305 74.2839 96.5592 74.3774 96.5003C74.4708 96.4415 74.5801 96.3963 74.6988 96.3675C74.8175 96.3387 74.9431 96.3267 75.0685 96.3324C76.3648 96.3763 75.9262 97.265 75.9372 99.6845C75.9372 99.7727 75.9121 99.8599 75.8633 99.9412C75.8145 100.022 75.743 100.096 75.653 100.157C75.563 100.219 75.4563 100.267 75.3393 100.299C75.2223 100.332 75.0973 100.347 74.9717 100.345C74.8333 100.344 74.6967 100.323 74.571 100.282Z" fill="#91B3FA"/>
<path d="M75.0088 87.397C75.3354 85.4573 75.7453 83.5078 76.2269 81.6016C76.2526 81.5039 76.2973 81.4123 76.3585 81.332C76.4197 81.2518 76.4962 81.1845 76.5834 81.1341C76.6707 81.0836 76.7671 81.0511 76.867 81.0383C76.9669 81.0254 77.0683 81.0326 77.1654 81.0594C78.2972 81.3635 77.5038 81.9588 76.5378 87.6745C76.5202 87.774 76.4831 87.869 76.4286 87.954C76.3741 88.0389 76.3033 88.1121 76.2204 88.1694C76.1374 88.2266 76.0439 88.2667 75.9454 88.2874C75.8468 88.308 75.7451 88.3088 75.6463 88.2896C75.4451 88.2534 75.2659 88.1399 75.1469 87.9732C75.0278 87.8065 74.9783 87.5998 75.0088 87.397ZM79.1651 72.4553C79.8879 70.618 80.697 68.7758 81.5434 67.0428C81.9975 66.1108 83.3783 66.8351 82.9429 67.7316C82.1004 69.4597 81.3198 71.237 80.6127 73.036C80.5363 73.2286 80.3869 73.3829 80.1972 73.4649C80.0074 73.547 79.793 73.55 79.6011 73.4734C79.4091 73.3968 79.2553 73.2468 79.1736 73.0564C79.0918 72.8661 79.0888 72.6509 79.1651 72.4583V72.4553ZM86.3028 58.7054C87.3816 57.0679 88.5438 55.4529 89.753 53.9049C90.3778 53.1078 91.6076 54.0614 90.9868 54.8556C89.8011 56.3721 88.6644 57.9545 87.6052 59.5577C87.0453 60.402 85.7428 59.5458 86.3028 58.7054ZM96.1601 47.8153C96.0879 47.7452 96.0304 47.6614 95.9908 47.5687C95.9513 47.476 95.9307 47.3763 95.93 47.2755C95.9294 47.1747 95.9488 47.0748 95.9871 46.9816C96.0255 46.8884 96.0819 46.8038 96.1532 46.7328C97.5547 45.355 99.0307 44.0137 100.541 42.7481C101.317 42.0986 102.331 43.2746 101.555 43.9291C100.076 45.169 98.6296 46.4818 97.2556 47.832C97.1069 47.9732 96.9091 48.0504 96.7045 48.0473C96.4998 48.0442 96.3045 47.9609 96.1601 47.8153ZM108.095 38.1042C108.038 38.0208 107.999 37.927 107.979 37.8282C107.96 37.7294 107.96 37.6277 107.981 37.529C108.001 37.4304 108.041 37.3368 108.098 37.2539C108.155 37.1709 108.228 37.1003 108.312 37.0462C109.98 35.9824 111.7 34.9727 113.441 34.0427C114.338 33.5664 115.092 34.9156 114.197 35.3949C112.49 36.3062 110.798 37.2952 109.17 38.3374C108.996 38.4467 108.786 38.4835 108.585 38.4399C108.384 38.3964 108.208 38.2759 108.095 38.1042ZM122.217 31.4477C122.035 31.3641 121.891 31.2138 121.816 31.0275C121.778 30.9343 121.759 30.8344 121.76 30.7337C121.761 30.633 121.782 30.5335 121.822 30.4412C121.862 30.3489 121.92 30.2655 121.993 30.1962C122.066 30.1268 122.151 30.0728 122.245 30.0374C124.098 29.3328 126.001 28.6932 127.9 28.1342C128.098 28.0766 128.309 28.0985 128.491 28.1951C128.672 28.2918 128.809 28.4556 128.872 28.6518C128.903 28.7477 128.914 28.8487 128.905 28.949C128.896 29.0493 128.867 29.1467 128.82 29.2356C128.773 29.3244 128.708 29.4029 128.63 29.4662C128.552 29.5296 128.463 29.5766 128.366 29.6044C126.503 30.1516 124.639 30.7795 122.824 31.4742C122.726 31.5107 122.622 31.5271 122.517 31.5225C122.413 31.518 122.31 31.4925 122.216 31.4477H122.217ZM137.19 27.4404C137.075 27.3881 136.975 27.309 136.897 27.2096C136.82 27.1103 136.767 26.9937 136.743 26.8696C136.726 26.7705 136.728 26.6687 136.75 26.5704C136.771 26.472 136.813 26.3791 136.871 26.2971C136.93 26.2151 137.004 26.1456 137.089 26.0928C137.175 26.0401 137.27 26.005 137.369 25.9898C139.331 25.6749 141.331 25.4318 143.315 25.2695C143.52 25.2515 143.724 25.3149 143.882 25.4459C144.041 25.5769 144.142 25.7651 144.164 25.9701C144.174 26.0704 144.164 26.1716 144.134 26.2679C144.104 26.3642 144.056 26.4535 143.991 26.5306C143.927 26.6077 143.847 26.671 143.758 26.7167C143.668 26.7624 143.57 26.7896 143.47 26.7968C141.526 26.9562 139.566 27.1904 137.645 27.5034C137.49 27.529 137.331 27.5071 137.189 27.4404H137.19ZM152.269 25.8186C152.273 25.7177 152.296 25.6184 152.338 25.5267C152.38 25.435 152.44 25.3527 152.515 25.2846C152.589 25.2165 152.676 25.1639 152.771 25.1301C152.866 25.0962 152.966 25.0817 153.067 25.0874C155.058 25.176 157.074 25.3442 159.059 25.5873C160.081 25.7162 159.911 27.2337 158.894 27.1087C156.949 26.8706 154.971 26.7062 153.024 26.6167C152.819 26.609 152.625 26.5212 152.484 26.372C152.343 26.2229 152.265 26.0242 152.268 25.8186H152.269ZM200.703 45.9327C196.316 42.0494 195.269 42.0327 195.973 41.1106C196.101 40.9507 196.286 40.847 196.488 40.8214C196.691 40.7959 196.895 40.8505 197.058 40.9738C198.656 42.1813 200.226 43.4665 201.726 44.7941C202.496 45.479 201.476 46.6157 200.703 45.9327ZM167.739 27.9374C167.764 27.8394 167.808 27.7474 167.869 27.6666C167.929 27.5858 168.005 27.5178 168.092 27.4665C168.178 27.4151 168.275 27.3816 168.374 27.3676C168.474 27.3537 168.576 27.3597 168.673 27.3853C170.611 27.8773 172.557 28.4452 174.459 29.0819C175.44 29.4096 174.959 30.8602 173.985 30.5334C172.121 29.9095 170.215 29.3525 168.317 28.8703C168.118 28.8225 167.945 28.6978 167.837 28.5231C167.729 28.3484 167.694 28.1379 167.739 27.9374ZM188.122 36.8927C183.053 33.9739 182.013 34.1628 182.511 33.1147C182.828 32.4505 183.635 32.7644 183.542 32.7624C185.354 33.6284 187.152 34.5742 188.885 35.5711C188.973 35.6203 189.051 35.6865 189.113 35.766C189.176 35.8455 189.222 35.9366 189.25 36.0341C189.277 36.1316 189.285 36.2336 189.273 36.3342C189.261 36.4348 189.229 36.5319 189.179 36.6201C189.074 36.7959 188.904 36.9228 188.706 36.9731C188.507 37.0234 188.298 36.9931 188.122 36.8888V36.8927Z" fill="#91B3FA"/>
<path d="M209.839 54.9186C208.451 52.8136 207.559 52.0644 208.226 51.3651C208.359 51.2285 208.53 51.1614 208.703 51.1784C208.876 51.1953 209.036 51.295 209.15 51.4559C210.656 53.5608 211.423 54.412 210.76 55.0542C210.561 55.2458 210.066 55.2621 209.839 54.9186Z" fill="#91B3FA"/>
<path d="M226.489 112.307C226.328 112.232 226.194 112.106 226.107 111.949C226.021 111.791 225.985 111.609 226.006 111.429C226.139 110.334 226.252 109.223 226.34 108.129C226.35 108.018 226.381 107.911 226.431 107.813C226.481 107.715 226.55 107.628 226.634 107.558C226.718 107.488 226.814 107.435 226.918 107.403C227.021 107.372 227.13 107.362 227.237 107.374C227.456 107.395 227.658 107.503 227.8 107.675C227.943 107.847 228.013 108.069 227.998 108.294C227.907 109.411 227.793 110.543 227.656 111.662C227.642 111.772 227.607 111.877 227.552 111.973C227.498 112.069 227.425 112.152 227.339 112.219C227.253 112.285 227.154 112.333 227.05 112.361C226.945 112.388 226.836 112.393 226.729 112.377C226.646 112.366 226.565 112.342 226.489 112.307Z" fill="#91B3FA"/>
<path d="M117.542 169.41C115.6 168.454 113.676 167.406 111.823 166.295C111.735 166.244 111.659 166.176 111.598 166.095C111.537 166.015 111.492 165.923 111.467 165.825C111.441 165.727 111.436 165.626 111.45 165.526C111.464 165.426 111.498 165.329 111.55 165.243C112.168 164.231 112.539 165.243 118.22 168.046C118.311 168.089 118.393 168.151 118.461 168.226C118.529 168.301 118.581 168.389 118.614 168.485C118.648 168.58 118.662 168.681 118.656 168.782C118.651 168.883 118.625 168.982 118.581 169.073C118.253 169.732 117.447 169.407 117.542 169.41ZM126.82 172.48C127.196 171.358 127.813 172.278 133.922 173.806C134.122 173.853 134.295 173.978 134.403 174.152C134.511 174.326 134.546 174.535 134.5 174.735C134.475 174.833 134.431 174.925 134.371 175.006C134.31 175.087 134.234 175.155 134.147 175.206C134.06 175.257 133.963 175.291 133.863 175.305C133.763 175.319 133.661 175.312 133.563 175.287C131.473 174.764 129.372 174.147 127.318 173.452C127.123 173.388 126.962 173.25 126.868 173.068C126.775 172.886 126.758 172.675 126.82 172.48ZM103.145 160.266C101.461 158.918 99.8108 157.483 98.2428 156C98.1688 155.932 98.1093 155.849 98.0677 155.758C98.026 155.666 98.0031 155.567 98.0003 155.467C97.9975 155.366 98.0147 155.266 98.0511 155.172C98.0875 155.079 98.1423 154.993 98.2122 154.921C99.044 154.071 99.1769 155.139 104.118 159.088C104.198 159.15 104.265 159.227 104.315 159.316C104.365 159.404 104.396 159.501 104.408 159.602C104.419 159.702 104.411 159.804 104.382 159.901C104.354 159.998 104.306 160.089 104.242 160.167C104.109 160.324 103.919 160.421 103.714 160.44C103.508 160.458 103.304 160.396 103.145 160.266ZM143.717 177.091C143.57 177.025 143.447 176.914 143.366 176.774C143.284 176.635 143.248 176.474 143.263 176.313C143.273 176.213 143.303 176.116 143.352 176.028C143.401 175.939 143.466 175.861 143.545 175.799C143.625 175.736 143.715 175.69 143.813 175.662C143.91 175.635 144.012 175.628 144.112 175.64C146.217 175.874 148.353 176.023 150.46 176.082C150.666 176.086 150.862 176.171 151.005 176.318C151.149 176.464 151.23 176.662 151.23 176.867C151.228 176.968 151.207 177.067 151.166 177.159C151.126 177.252 151.067 177.335 150.993 177.404C150.92 177.473 150.833 177.527 150.739 177.563C150.644 177.598 150.543 177.614 150.442 177.61C148.291 177.55 146.111 177.398 143.961 177.159C143.876 177.15 143.793 177.127 143.715 177.091H143.717ZM160.543 177.125C160.421 177.07 160.316 176.985 160.237 176.878C160.158 176.772 160.107 176.647 160.089 176.515C160.076 176.416 160.084 176.314 160.111 176.218C160.138 176.121 160.185 176.031 160.248 175.952C160.31 175.873 160.388 175.808 160.477 175.76C160.566 175.712 160.663 175.682 160.763 175.672C162.856 175.448 164.965 175.132 167.031 174.733C167.234 174.694 167.444 174.736 167.616 174.849C167.788 174.962 167.91 175.137 167.955 175.338C167.976 175.436 167.977 175.537 167.959 175.636C167.94 175.734 167.902 175.828 167.846 175.912C167.79 175.995 167.718 176.067 167.634 176.122C167.55 176.177 167.456 176.215 167.357 176.234C165.248 176.641 163.095 176.963 160.959 177.193C160.816 177.209 160.671 177.185 160.541 177.125H160.543ZM176.904 173.53C176.81 173.487 176.724 173.425 176.654 173.349C176.583 173.273 176.528 173.184 176.492 173.086C176.457 172.992 176.442 172.892 176.446 172.791C176.451 172.691 176.476 172.592 176.52 172.502C176.564 172.411 176.625 172.331 176.701 172.264C176.777 172.198 176.865 172.147 176.96 172.116C178.946 171.445 180.926 170.684 182.847 169.851C183.036 169.771 183.25 169.766 183.442 169.84C183.635 169.913 183.791 170.058 183.878 170.244C183.921 170.335 183.945 170.433 183.949 170.534C183.953 170.634 183.937 170.734 183.901 170.828C183.865 170.922 183.811 171.008 183.741 171.081C183.672 171.153 183.588 171.211 183.495 171.251C181.536 172.1 179.515 172.877 177.491 173.561C177.298 173.627 177.087 173.616 176.902 173.53H176.904ZM192.019 166.504C191.881 166.44 191.764 166.337 191.682 166.209C191.627 166.125 191.59 166.031 191.572 165.932C191.554 165.833 191.557 165.731 191.579 165.633C191.602 165.535 191.644 165.442 191.702 165.361C191.761 165.279 191.836 165.21 191.922 165.158C193.705 164.079 195.466 162.907 197.139 161.681C197.307 161.561 197.514 161.511 197.718 161.542C197.922 161.572 198.105 161.682 198.229 161.846C198.291 161.925 198.337 162.016 198.363 162.113C198.389 162.21 198.395 162.311 198.381 162.411C198.368 162.511 198.334 162.606 198.282 162.693C198.23 162.779 198.162 162.854 198.08 162.914C196.364 164.166 194.571 165.359 192.751 166.463C192.641 166.529 192.517 166.567 192.389 166.574C192.261 166.581 192.133 166.557 192.017 166.504H192.019ZM204.926 156.22C204.07 155.366 205.154 155.284 209.222 150.606C209.885 149.844 211.077 150.849 210.413 151.611C209.025 153.207 207.549 154.764 206.026 156.237C205.877 156.378 205.678 156.455 205.472 156.452C205.267 156.449 205.07 156.366 204.926 156.22ZM215.556 143.57C214.533 142.921 215.562 142.612 218.469 137.146C218.941 136.262 220.327 136.981 219.847 137.872C218.855 139.737 217.77 141.58 216.624 143.349C216.511 143.518 216.335 143.636 216.136 143.677C215.936 143.719 215.728 143.68 215.556 143.57ZM222.998 128.869C222.821 128.79 222.68 128.647 222.604 128.469C222.527 128.291 222.52 128.091 222.585 127.908C223.297 125.958 223.932 123.961 224.471 121.975C224.498 121.877 224.545 121.787 224.608 121.707C224.67 121.628 224.748 121.562 224.837 121.513C224.926 121.464 225.023 121.433 225.124 121.422C225.224 121.411 225.326 121.419 225.423 121.448C225.621 121.501 225.79 121.63 225.894 121.807C225.997 121.983 226.026 122.194 225.976 122.392C225.425 124.419 224.778 126.457 224.051 128.447C224.016 128.542 223.961 128.628 223.892 128.702C223.823 128.776 223.74 128.835 223.647 128.876C223.555 128.918 223.455 128.941 223.354 128.944C223.253 128.947 223.152 128.93 223.057 128.894C223.037 128.886 223.021 128.878 223.002 128.869H222.998Z" fill="#91B3FA"/>
<path d="M91.3922 148.213C89.4217 146.103 88.4119 145.243 89.36 144.664C90.347 144.063 90.7845 145.116 92.8006 147.277C92.875 147.355 92.9305 147.445 92.9638 147.541C92.9971 147.637 93.0076 147.739 92.9946 147.839C92.9816 147.939 92.9454 148.036 92.8882 148.123C92.8309 148.211 92.7538 148.288 92.6613 148.35C92.471 148.474 92.2316 148.53 91.9943 148.504C91.7571 148.479 91.5409 148.374 91.3922 148.213Z" fill="#91B3FA"/>
<path d="M101.478 129.536L112.496 128.94C115.597 133.242 119.355 137.009 123.626 140.097C123.307 150.86 122.536 151.592 123.635 152.055L135.925 157.236C136.098 157.31 136.289 157.328 136.473 157.287C136.657 157.246 136.823 157.147 136.949 157.006L144.184 148.764C149.34 149.65 154.603 149.687 159.771 148.873L167.175 157.23C167.302 157.373 167.468 157.473 167.652 157.517C167.836 157.56 168.029 157.546 168.204 157.475L180.394 152.476C180.566 152.405 180.712 152.281 180.811 152.12C180.91 151.96 180.956 151.772 180.942 151.583L180.164 140.509C184.373 137.489 188.062 133.778 191.08 129.529L202.104 130.282C202.291 130.296 202.477 130.25 202.636 130.15C202.795 130.051 202.92 129.903 202.992 129.727L207.935 117.477C208.005 117.3 208.019 117.105 207.975 116.92C207.93 116.735 207.83 116.568 207.688 116.444L199.354 109.036C200.147 103.846 200.093 98.5574 199.192 93.3854C207.047 86.0929 208.075 86.1603 207.614 85.0663C202.313 73.0641 202.729 72.1079 201.522 72.1714L190.505 72.7666C187.404 68.4672 183.647 64.7021 179.376 61.6145C179.696 50.8582 180.468 50.1203 179.368 49.657C167.07 44.7233 166.831 43.8196 166.053 44.7054L158.819 52.9482C153.662 52.0612 148.4 52.0241 143.232 52.8381C135.922 44.9217 135.897 43.7859 134.797 44.2362C122.82 49.3962 121.971 48.929 122.058 50.1262L122.837 61.1999C118.627 64.2196 114.939 67.9301 111.921 72.1803C101.384 71.6844 100.461 70.8621 100.009 71.982C95.3295 84.1914 94.4078 84.4642 95.3101 85.2666L103.646 92.6742C102.852 97.8644 102.907 103.153 103.808 108.325C95.9798 115.591 94.9227 115.544 95.386 116.644C100.688 128.641 100.271 129.6 101.478 129.536Z" fill="#91B3FA"/>
<path d="M139.12 98.3594C140.087 91.2509 146.653 86.358 153.755 87.4533C160.857 88.5486 165.848 95.2221 164.88 102.331C163.912 109.439 157.348 114.331 150.245 113.237C143.141 112.142 138.154 105.466 139.12 98.3594ZM150.402 112.084H150.409H150.402ZM153.439 89.7576C147.674 88.8678 142.226 92.7881 141.419 98.7145C140.624 104.552 144.723 110.036 150.557 110.932C156.391 111.829 161.782 107.814 162.576 101.975C163.371 96.1369 159.264 90.6534 153.441 89.7576H153.439Z" fill="#BDD0FB"/>
<path d="M137.731 130.272C135.976 129.46 134.291 128.501 132.696 127.405C132.47 127.253 132.304 127.026 132.229 126.763C132.154 126.5 132.173 126.219 132.285 125.969C132.313 125.909 132.346 125.851 132.383 125.796C132.562 125.545 132.833 125.375 133.136 125.322C133.439 125.269 133.751 125.339 134.004 125.516C135.843 126.776 137.806 127.842 139.863 128.696C155.402 135.152 173.077 128.324 179.894 113.463C180.068 113.084 180.236 112.699 180.395 112.309C186.849 96.5566 179.037 78.5218 163.128 71.9073C147.242 65.3056 129.04 72.5853 122.595 88.2944C118.765 97.6459 121.071 104.268 120.627 105.227C120.152 106.264 118.591 106.028 118.41 104.897C117.391 98.5325 118.282 92.0074 120.969 86.1534C132.91 60.1272 170.912 61.1917 182.302 87.8456C185.808 96.0496 185.9 105.056 182.559 113.209C182.387 113.63 182.206 114.047 182.017 114.46C178.555 122.008 172.422 127.855 164.618 131.01C156.39 134.337 147.288 134.272 138.99 130.823C138.568 130.649 138.147 130.465 137.731 130.272Z" fill="#BDD0FB"/>
<path d="M234.63 81.51C236.544 83.7751 238.813 85.712 241.348 87.2446L241.474 93.5088C241.487 94.2018 242.08 93.9345 248.965 96.2968C249.603 96.5028 249.531 95.9008 253.284 91.1059C256.234 91.3477 259.203 91.1056 262.076 90.389L266.583 94.7325C267.085 95.2147 267.313 94.6038 273.846 91.391C273.941 91.342 274.019 91.2645 274.068 91.1692C274.117 91.0739 274.135 90.9656 274.12 90.8593L273.24 84.6525C275.498 82.7324 277.429 80.4561 278.957 77.9131C284.921 77.6685 285.471 78.0814 285.68 77.4309C287.834 70.3023 288.34 70.1043 287.8 69.7083L282.805 65.946C283.046 62.9868 282.805 60.0079 282.091 57.1264L286.421 52.6057C286.901 52.1037 286.293 51.874 283.089 45.3207C282.786 44.7267 282.44 45.191 276.373 45.9286C274.459 43.6635 272.189 41.7266 269.654 40.1941L269.529 33.9299C269.515 33.2368 268.923 33.5041 262.037 31.1418C261.403 30.9369 261.489 31.5081 257.719 36.3328C254.769 36.0905 251.799 36.3326 248.926 37.0496L244.419 32.7061C244.342 32.6312 244.243 32.5824 244.137 32.5668C244.03 32.5511 243.922 32.5694 243.826 32.619L237.153 36.0476C237.058 36.0968 236.981 36.1744 236.932 36.2697C236.883 36.3649 236.865 36.4732 236.88 36.5793L237.76 42.7861C235.502 44.7057 233.571 46.9821 232.043 49.5256C226.078 49.7701 225.529 49.3573 225.32 50.0077C223.166 57.1363 222.66 57.3284 223.2 57.7303L228.194 61.4926C227.952 64.4519 228.194 67.4309 228.909 70.3122C224.862 74.7161 224.18 74.8141 224.492 75.425L227.91 82.1179C228.219 82.7169 228.594 82.2437 234.63 81.51Z" fill="#91B3FA"/>
<path d="M248.015 63.2325C248.111 61.7472 248.644 60.3238 249.546 59.1423C250.448 57.9608 251.679 57.0742 253.083 56.5946C254.487 56.115 256.001 56.0639 257.434 56.4478C258.868 56.8317 260.155 57.6334 261.134 58.7515C262.113 59.8696 262.74 61.2538 262.935 62.7292C263.13 64.2047 262.885 65.705 262.23 67.0406C261.575 68.3761 260.541 69.4869 259.257 70.2325C257.973 70.978 256.498 71.3249 255.018 71.2293C253.033 71.0985 251.181 70.1831 249.868 68.6839C248.556 67.1847 247.889 65.2241 248.015 63.2325ZM255.087 70.1098H255.093H255.087ZM250.246 63.3768C250.157 64.7745 250.625 66.1503 251.546 67.2028C252.467 68.2552 253.766 68.8983 255.159 68.9913C259.811 69.2923 262.54 63.7604 259.456 60.2329C256.383 56.7226 250.55 58.6795 250.246 63.3768H250.246Z" fill="#BDD0FB"/>
<path d="M216.696 75.6533C216.441 74.5501 216.208 73.4176 216.015 72.2873C215.978 72.067 216.01 71.8367 216.106 71.647C216.202 71.4572 216.353 71.3235 216.526 71.275C217.436 71.026 217.307 72.3187 217.972 75.1661C217.997 75.2734 218.005 75.3859 217.996 75.4973C217.987 75.6086 217.961 75.7166 217.919 75.8151C217.878 75.9135 217.821 76.0006 217.753 76.0712C217.684 76.1418 217.606 76.1946 217.522 76.2266C217.437 76.2586 217.349 76.2691 217.261 76.2576C217.174 76.2461 217.089 76.2128 217.012 76.1596C216.934 76.1063 216.866 76.0342 216.81 75.9474C216.755 75.8605 216.713 75.7606 216.688 75.6533H216.696Z" fill="#91B3FA"/>
<path d="M215.001 62.3996C215.09 60.2467 215.342 58.1041 215.756 55.9908C215.952 54.9718 217.468 55.2842 217.269 56.2973C216.166 61.909 217.027 63.2723 215.738 63.2156C215.637 63.2113 215.537 63.1867 215.446 63.1433C215.354 63.1 215.271 63.0386 215.203 62.9628C215.135 62.8871 215.081 62.7983 215.047 62.7017C215.012 62.605 214.996 62.5024 215.001 62.3996ZM219.406 47.1091C219.222 47.0181 219.082 46.8567 219.015 46.6604C218.948 46.4641 218.961 46.2489 219.05 46.0622C219.979 44.124 221.055 42.2627 222.269 40.4953C222.856 39.6464 224.116 40.543 223.533 41.3909C222.365 43.0906 221.33 44.8807 220.437 46.7448C220.105 47.4305 219.308 47.1071 219.401 47.1091H219.406ZM229.366 34.0467C229.249 33.9916 229.147 33.9073 229.07 33.8017C228.993 33.6961 228.943 33.5726 228.926 33.4424C228.908 33.3122 228.923 33.1795 228.968 33.0566C229.014 32.9337 229.09 32.8245 229.188 32.739C230.799 31.3389 232.514 30.0679 234.319 28.9376C234.405 28.8836 234.5 28.8474 234.6 28.831C234.7 28.8147 234.802 28.8185 234.901 28.8422C234.999 28.866 235.092 28.9092 235.174 28.9695C235.256 29.0297 235.326 29.1058 235.379 29.1933C235.432 29.2809 235.467 29.3782 235.483 29.4798C235.5 29.5813 235.496 29.6851 235.472 29.7852C235.449 29.8852 235.407 29.9797 235.347 30.063C235.288 30.1464 235.213 30.2171 235.127 30.2711C233.391 31.3593 231.741 32.5827 230.19 33.9302C230.078 34.0285 229.94 34.0917 229.793 34.1124C229.646 34.133 229.496 34.1102 229.361 34.0467H229.366ZM243.605 26.0855C243.463 26.0191 243.345 25.9104 243.265 25.7738C243.185 25.6372 243.148 25.4792 243.159 25.3207C243.169 25.1622 243.227 25.0107 243.324 24.8864C243.422 24.7621 243.554 24.6708 243.703 24.6246C245.731 23.9941 247.804 23.5262 249.903 23.2254C250.005 23.2077 250.109 23.211 250.209 23.235C250.31 23.259 250.405 23.3033 250.488 23.3652C250.571 23.4271 250.642 23.5054 250.695 23.5954C250.748 23.6855 250.782 23.7854 250.797 23.8893C250.811 23.9933 250.805 24.0991 250.778 24.2005C250.752 24.3019 250.705 24.3968 250.642 24.4797C250.578 24.5625 250.499 24.6316 250.409 24.6828C250.319 24.734 250.22 24.7663 250.117 24.7778C248.098 25.0668 246.104 25.5166 244.155 26.1233C243.971 26.18 243.774 26.1651 243.601 26.0815L243.605 26.0855ZM259.348 23.7807C259.359 23.678 259.39 23.5785 259.439 23.4878C259.487 23.3972 259.553 23.3172 259.632 23.2525C259.712 23.1878 259.803 23.1396 259.9 23.1107C259.998 23.0818 260.1 23.0728 260.201 23.0841C262.308 23.3268 264.393 23.7357 266.438 24.3071C267.416 24.5768 267.013 26.0984 266.027 25.8188C264.061 25.2683 262.055 24.8751 260.029 24.6425C259.928 24.6315 259.83 24.6003 259.741 24.5508C259.652 24.5013 259.573 24.4344 259.509 24.354C259.446 24.2736 259.398 24.1812 259.37 24.0822C259.341 23.9831 259.332 23.8793 259.343 23.7767L259.348 23.7807Z" fill="#91B3FA"/>
<path d="M277.841 30.976C275.61 29.4648 274.628 29.3089 275.128 28.4607C275.176 28.3775 275.24 28.3046 275.317 28.2462C275.394 28.1878 275.482 28.1451 275.576 28.1206C275.67 28.096 275.768 28.0901 275.865 28.1032C275.961 28.1164 276.054 28.1482 276.137 28.197C276.997 28.6875 277.852 29.2204 278.679 29.7801C278.841 29.8894 278.952 30.0574 278.988 30.2471C279.023 30.4368 278.981 30.6326 278.87 30.7916C278.759 30.9505 278.588 31.0595 278.395 31.0946C278.202 31.1297 278.003 31.088 277.841 30.9787V30.976Z" fill="#91B3FA"/>
<path d="M294.478 58.4536C294.12 55.3796 293.565 54.4337 294.575 54.2039C294.673 54.1814 294.774 54.1804 294.873 54.2011C294.972 54.2217 295.066 54.2636 295.149 54.3242C295.233 54.3849 295.306 54.4631 295.362 54.5545C295.419 54.646 295.458 54.7487 295.478 54.857C295.688 55.9675 295.861 57.1015 295.992 58.2409C296.007 58.3514 296.001 58.4641 295.976 58.5722C295.951 58.6804 295.906 58.7819 295.845 58.8709C295.783 58.9599 295.706 59.0345 295.619 59.0904C295.531 59.1464 295.434 59.1825 295.333 59.1967C295.232 59.2109 295.13 59.2029 295.032 59.1731C294.935 59.1434 294.843 59.0925 294.764 59.0234C294.684 58.9543 294.617 58.8685 294.568 58.7708C294.519 58.6732 294.488 58.5657 294.477 58.4547L294.478 58.4536Z" fill="#91B3FA"/>
<path d="M242.039 101.48C242.444 100.274 243.361 101.516 248.888 102.426C249.898 102.59 249.647 104.102 248.633 103.935C246.564 103.594 244.524 103.096 242.532 102.447C242.435 102.415 242.346 102.365 242.269 102.299C242.192 102.234 242.128 102.154 242.083 102.064C242.037 101.974 242.009 101.877 242.002 101.776C241.995 101.676 242.007 101.576 242.039 101.48ZM257.98 103.656C257.964 103.454 258.029 103.253 258.162 103.099C258.295 102.944 258.485 102.848 258.69 102.831C264.322 102.375 265.29 101.21 265.593 102.45C265.617 102.547 265.621 102.648 265.605 102.748C265.59 102.847 265.554 102.942 265.501 103.028C265.448 103.113 265.379 103.188 265.296 103.247C265.214 103.306 265.121 103.349 265.022 103.372C262.982 103.857 260.908 104.186 258.816 104.356C258.611 104.372 258.408 104.308 258.251 104.177C258.095 104.045 257.997 103.858 257.98 103.656ZM273.502 99.4902C272.898 98.3655 274.428 98.5811 278.931 95.2664C279.753 94.6623 280.682 95.887 279.858 96.492C278.178 97.7291 276.404 98.8376 274.551 99.8078C274.37 99.9028 274.157 99.9227 273.96 99.8631C273.764 99.8036 273.599 99.6694 273.502 99.4902ZM286.117 89.6401C285.111 88.8359 286.609 88.4445 289.435 83.6573C289.95 82.7832 291.293 83.5515 290.777 84.4265C289.721 86.2143 288.528 87.9196 287.208 89.5274C287.079 89.6848 286.891 89.785 286.686 89.8061C286.482 89.8272 286.277 89.7675 286.117 89.6401ZM293.265 74.7541C294.799 69.3959 294.032 68.0877 295.319 68.247C295.42 68.2591 295.517 68.2908 295.606 68.3402C295.695 68.3895 295.773 68.4557 295.835 68.5348C295.898 68.6139 295.944 68.7044 295.972 68.8012C295.999 68.8979 296.007 68.999 295.994 69.0987C295.74 71.1523 295.327 73.1836 294.757 75.1747C294.701 75.3698 294.569 75.535 294.39 75.634C294.21 75.733 293.998 75.7577 293.8 75.7025C293.602 75.6474 293.435 75.517 293.334 75.3401C293.234 75.1632 293.209 74.9541 293.265 74.759V74.7541Z" fill="#91B3FA"/>
<path d="M233.551 98.2316C232.463 97.7175 231.399 97.1642 230.374 96.5941C230.174 96.4817 230.043 96.3157 230.009 96.1324C229.975 95.949 230.041 95.7632 230.193 95.6156C230.993 94.8409 231.789 95.7331 234.583 97.0575C234.789 97.1604 234.931 97.3183 234.981 97.4976C235.03 97.6769 234.983 97.8633 234.848 98.017C234.713 98.1707 234.502 98.2796 234.26 98.3204C234.017 98.3611 233.763 98.3306 233.551 98.2352V98.2316Z" fill="#91B3FA"/>
<path d="M245.759 80.6713C245.619 80.5984 245.495 80.4982 245.394 80.3765C245.293 80.2548 245.218 80.1141 245.172 79.9627C245.127 79.8113 245.112 79.6523 245.128 79.495C245.145 79.3377 245.193 79.1854 245.269 79.0469C245.345 78.9085 245.448 78.7867 245.572 78.6888C245.696 78.5909 245.838 78.5189 245.99 78.4769C246.142 78.435 246.301 78.424 246.457 78.4446C246.613 78.4652 246.764 78.5169 246.9 78.5969C249.382 80.0372 252.184 80.8307 255.051 80.9049C257.917 80.9792 260.756 80.3318 263.309 79.022C276.838 72.0666 275.239 52.0368 260.76 47.3545C252.429 44.6594 243.514 48.7271 239.939 56.5116C236.342 64.3523 240.409 68.432 237.918 69.0096C237.767 69.0448 237.61 69.0499 237.458 69.0244C237.305 68.999 237.158 68.9436 237.027 68.8614C236.895 68.7791 236.781 68.6717 236.691 68.5452C236.601 68.4188 236.537 68.2757 236.502 68.1242C235.706 64.677 235.859 61.0776 236.944 57.7108C240.236 47.4628 251.235 41.7828 261.484 45.0975C272.511 48.6649 278.137 61.1719 273.193 71.9383C269.205 80.6222 259.176 85.4579 249.515 82.3317C248.209 81.9113 246.95 81.3548 245.759 80.6713Z" fill="#BDD0FB"/>
<path d="M242.998 108.142C242.968 107.771 242.588 107.45 241.945 107.193C242.643 106.809 243.03 106.397 242.998 105.993C242.897 104.771 239.014 104.085 234.321 104.462C229.628 104.84 225.903 106.136 226.002 107.358C226.032 107.729 226.412 108.049 227.056 108.307C226.357 108.691 225.97 109.103 226.002 109.512C226.032 109.883 226.412 110.203 227.056 110.46C226.357 110.845 225.97 111.257 226.002 111.661C226.032 112.031 226.412 112.352 227.056 112.609C226.357 112.994 225.97 113.405 226.002 113.814C226.046 114.355 226.832 114.79 228.098 115.075C228.082 115.515 228.093 115.957 228.13 116.396C228.314 118.648 230.853 120.414 234.219 120.414C237.586 120.414 240.493 118.003 240.526 115.748C240.536 115.255 240.514 114.763 240.46 114.273C242.074 113.738 243.049 113.084 242.998 112.45C242.968 112.079 242.588 111.758 241.945 111.501C242.643 111.117 243.03 110.705 242.998 110.302C242.968 109.931 242.588 109.609 241.945 109.352C242.643 108.958 243.03 108.546 242.998 108.142Z" fill="url(#paint1_linear_290_6232)"/>
<path d="M232.592 115.395C231.417 115.407 230.243 115.324 229.086 115.149C229.072 115.147 229.059 115.142 229.048 115.135C229.036 115.129 229.026 115.12 229.018 115.11C229.01 115.1 229.005 115.089 229.002 115.077C228.999 115.066 228.999 115.053 229.002 115.042C229.005 115.03 229.01 115.019 229.017 115.008C229.025 114.998 229.035 114.99 229.046 114.983C229.058 114.976 229.071 114.972 229.085 114.969C229.098 114.967 229.112 114.967 229.126 114.969C230.678 115.226 232.752 115.283 234.966 115.128C236.777 115.002 238.471 114.749 239.864 114.397C239.877 114.393 239.891 114.392 239.905 114.394C239.919 114.395 239.932 114.399 239.945 114.404C239.957 114.41 239.968 114.418 239.976 114.427C239.985 114.437 239.992 114.448 239.996 114.459C240 114.471 240.001 114.483 239.999 114.495C239.998 114.507 239.994 114.519 239.987 114.529C239.98 114.54 239.971 114.549 239.96 114.557C239.949 114.564 239.937 114.57 239.924 114.574C238.516 114.929 236.808 115.184 234.986 115.313C234.161 115.368 233.357 115.395 232.592 115.395Z" fill="url(#paint2_linear_290_6232)"/>
<path d="M232.282 113.39C230.614 113.39 229.132 113.203 228.082 112.847C228.068 112.843 228.055 112.836 228.044 112.827C228.032 112.817 228.022 112.804 228.015 112.79C228.008 112.775 228.003 112.759 228.001 112.742C227.999 112.725 228 112.708 228.004 112.692C228.008 112.676 228.014 112.66 228.023 112.647C228.032 112.634 228.044 112.623 228.056 112.616C228.069 112.608 228.083 112.603 228.097 112.602C228.111 112.601 228.125 112.603 228.139 112.609C229.633 113.117 232.04 113.273 234.577 113.03C237.086 112.789 239.426 112.181 240.837 111.405C240.849 111.395 240.863 111.388 240.878 111.385C240.893 111.382 240.909 111.382 240.923 111.387C240.938 111.392 240.951 111.4 240.963 111.412C240.975 111.423 240.984 111.438 240.99 111.454C240.997 111.471 241 111.489 241 111.507C241 111.525 240.997 111.543 240.99 111.559C240.984 111.576 240.974 111.59 240.963 111.602C240.951 111.613 240.938 111.622 240.923 111.626C239.492 112.413 237.124 113.029 234.593 113.274C233.803 113.353 233.025 113.39 232.282 113.39Z" fill="url(#paint3_linear_290_6232)"/>
<path d="M231.757 111.383C229.857 111.383 228.195 111.162 227.076 110.748C227.048 110.738 227.025 110.715 227.012 110.686C226.999 110.657 226.996 110.623 227.005 110.592C227.015 110.56 227.034 110.535 227.06 110.52C227.086 110.505 227.116 110.502 227.144 110.513C228.701 111.091 231.342 111.286 234.207 111.022C236.86 110.781 239.335 110.174 240.827 109.398C240.84 109.388 240.855 109.381 240.871 109.378C240.887 109.375 240.903 109.376 240.919 109.38C240.934 109.385 240.949 109.393 240.961 109.405C240.973 109.417 240.983 109.431 240.99 109.448C240.997 109.464 241 109.482 241 109.5C241 109.518 240.996 109.536 240.99 109.552C240.983 109.568 240.973 109.583 240.961 109.595C240.948 109.606 240.934 109.615 240.918 109.619C239.405 110.406 236.901 111.021 234.224 111.265C233.376 111.342 232.546 111.383 231.757 111.383Z" fill="url(#paint4_linear_290_6232)"/>
<path d="M231.972 109.376C230.487 109.376 229.136 109.235 228.085 108.964C228.057 108.957 228.033 108.937 228.017 108.909C228.002 108.881 227.996 108.846 228.003 108.814C228.009 108.781 228.026 108.753 228.05 108.735C228.074 108.717 228.103 108.71 228.131 108.718C229.711 109.127 231.986 109.233 234.372 109.009C236.964 108.765 239.394 108.154 240.864 107.373C240.889 107.366 240.915 107.368 240.938 107.381C240.961 107.393 240.979 107.415 240.99 107.442C241.001 107.469 241.003 107.499 240.996 107.528C240.99 107.556 240.975 107.581 240.954 107.598C239.459 108.386 237.006 109.01 234.387 109.257C233.563 109.334 232.75 109.376 231.972 109.376Z" fill="url(#paint5_linear_290_6232)"/>
<path d="M223.303 97.774C222.758 95.793 221.836 93.9431 220.59 92.3312C217.923 88.8755 213.572 81.8415 213.036 72.2543C212.257 58.3011 224.298 51.3155 235.277 52.2645C246.257 53.2136 257.095 61.6132 255.911 74.5977C255.181 82.5847 250.833 88.643 247.596 92.1214C245.547 94.3352 244.064 97.0365 243.28 99.9837C242.309 103.59 239.997 108.085 234.5 108.359C227.389 108.718 224.436 101.898 223.303 97.774Z" fill="url(#paint6_linear_290_6232)"/>
<path d="M236.009 104.956L240.077 80.0554C240.161 79.5415 240.43 79.1924 240.678 79.2883C240.927 79.3842 241.058 79.8636 240.975 80.3795C240.975 80.3929 240.969 80.4102 240.967 80.4236L236.333 105.092C236.298 105.277 236.199 105.395 236.11 105.354C236.021 105.313 235.98 105.135 236.009 104.956Z" fill="url(#paint7_linear_290_6232)"/>
<path d="M231.992 105.948L228.738 80.0891C228.671 79.5544 228.456 79.1929 228.257 79.2875C228.058 79.3821 227.953 79.885 228.02 80.4207C228.02 80.4347 228.025 80.4526 228.027 80.4665L231.733 106.085C231.76 106.278 231.84 106.4 231.911 106.357C231.982 106.314 232.017 106.134 231.992 105.948Z" fill="url(#paint8_linear_290_6232)"/>
<path d="M239.96 77.2259C239.907 77.1492 239.828 77.0942 239.738 77.0707C239.648 77.0471 239.553 77.0566 239.47 77.0974L237.389 78.0781L236.667 75.9996C236.645 75.9412 236.611 75.8881 236.568 75.8438C236.524 75.7996 236.472 75.7651 236.414 75.7426C236.302 75.693 236.175 75.6858 236.058 75.7222C235.941 75.7586 235.84 75.8362 235.775 75.941V75.9476L234.063 79.0975L232.472 74.6136V74.6061C232.428 74.4883 232.343 74.3911 232.232 74.333C232.104 74.2618 231.955 74.2385 231.811 74.267C231.668 74.2955 231.539 74.374 231.447 74.4889L229.055 77.8135C229.031 77.8461 229.015 77.8832 229.007 77.9225C228.998 77.9618 228.998 78.0025 229.006 78.0419C229.014 78.0813 229.03 78.1186 229.053 78.1515C229.075 78.1844 229.105 78.2122 229.139 78.233C229.217 78.2849 229.31 78.3078 229.403 78.2976C229.496 78.2874 229.582 78.2449 229.647 78.1773L231.754 75.8059L233.65 80.0706C233.683 80.1445 233.742 80.2034 233.816 80.2359C233.901 80.2772 233.997 80.2868 234.088 80.2631C234.179 80.2394 234.258 80.1839 234.312 80.1065L236.143 77.1418L236.832 78.6411L236.837 78.6553C236.843 78.6657 236.848 78.6761 236.855 78.6865C236.908 78.7631 236.987 78.8181 237.076 78.8416C237.166 78.8651 237.261 78.8557 237.344 78.815L239.814 77.6501C239.853 77.6345 239.889 77.6105 239.918 77.5797C239.948 77.549 239.97 77.5122 239.984 77.4719C239.998 77.4316 240.003 77.3887 239.999 77.3463C239.995 77.3038 239.981 77.2627 239.96 77.2259Z" fill="white"/>
<path d="M248.35 88.3033C248.285 88.3033 248.222 88.2762 248.166 88.2251C248.111 88.1739 248.067 88.1008 248.037 88.0138C248.008 87.9268 247.996 87.8293 248.001 87.7323C248.007 87.6352 248.03 87.5424 248.069 87.4642C248.532 86.5287 248.96 85.5541 249.349 84.5452C249.396 84.4268 249.473 84.341 249.562 84.3064C249.651 84.2717 249.745 84.291 249.825 84.36C249.904 84.429 249.963 84.5423 249.987 84.6753C250.012 84.8084 250.001 84.9505 249.956 85.0711C249.553 86.1149 249.111 87.1231 248.632 88.0907C248.599 88.1571 248.557 88.2109 248.508 88.2479C248.459 88.2849 248.405 88.3039 248.35 88.3033Z" fill="white"/>
<path d="M251.486 83.2862C251.42 83.2858 251.354 83.2717 251.294 83.245C251.175 83.1923 251.082 83.0937 251.034 82.9707C250.987 82.8478 250.989 82.7106 251.04 82.5894C255.103 73.0408 251.599 65.0253 251.563 64.9457C251.533 64.8858 251.516 64.8204 251.511 64.7533C251.506 64.6862 251.515 64.6189 251.537 64.5554C251.558 64.4919 251.592 64.4336 251.637 64.3838C251.681 64.3341 251.735 64.294 251.795 64.266C251.854 64.238 251.919 64.2226 251.985 64.2209C252.051 64.2191 252.116 64.231 252.178 64.2557C252.239 64.2805 252.295 64.3176 252.341 64.3649C252.388 64.4122 252.425 64.4687 252.45 64.5309C252.604 64.8729 256.17 73.0329 251.936 82.9865C251.898 83.0758 251.835 83.1517 251.755 83.205C251.675 83.2582 251.582 83.2865 251.486 83.2862Z" fill="white"/>
<path d="M168.951 265.914C168.951 265.914 168.331 269.363 168.01 272.781C167.981 273.098 168.015 273.418 168.108 273.721C168.201 274.024 168.353 274.304 168.554 274.545C168.755 274.785 169 274.981 169.276 275.121C169.551 275.26 169.851 275.34 170.158 275.355C174.542 275.589 183.923 276.051 187.291 275.928C187.409 275.923 187.523 275.889 187.626 275.829C187.728 275.769 187.815 275.684 187.879 275.582C187.944 275.48 187.984 275.363 187.996 275.242C188.008 275.12 187.992 274.997 187.95 274.884C187.797 274.472 187.497 274.138 187.113 273.951L171.685 266.401L168.951 265.914Z" fill="url(#paint9_linear_290_6232)"/>
<path d="M168 263.585L168.434 268.287C168.434 268.287 171.134 269.808 173 268.15L171.918 262.903L168 263.585Z" fill="url(#paint10_linear_290_6232)"/>
<path d="M169.128 184.752C168.902 185.837 167.441 239.134 172.978 263.072C173.023 263.261 172.999 263.459 172.909 263.632C172.819 263.804 172.669 263.939 172.487 264.011C170.981 264.57 169.39 264.874 167.781 264.91C167.467 264.918 167.16 264.823 166.907 264.639C166.653 264.455 166.469 264.193 166.384 263.895C164.786 258.337 157.157 230.494 156.382 203.959C155.517 174.308 156.392 202.95 156.392 202.95L157.244 184.635L169.128 184.752Z" fill="url(#paint11_linear_290_6232)"/>
<path d="M149.911 266.917C149.911 266.917 148.969 268.767 148.031 273.696C147.99 273.906 147.99 274.123 148.029 274.333C148.068 274.543 148.146 274.741 148.258 274.916C148.37 275.09 148.514 275.236 148.68 275.344C148.846 275.452 149.03 275.52 149.221 275.543C150.653 275.716 152.857 275.943 154.626 275.948C154.818 275.949 155.009 275.905 155.185 275.819C155.361 275.732 155.518 275.604 155.647 275.445C155.776 275.285 155.874 275.097 155.933 274.893C155.993 274.688 156.013 274.472 155.992 274.258C155.812 272.453 155.227 269.489 153.363 267.164L149.911 266.917Z" fill="url(#paint12_linear_290_6232)"/>
<path d="M149 262.108L150.218 268.447C150.218 268.447 151.48 269.31 154 268.714L153.459 261.9L149 262.108Z" fill="url(#paint13_linear_290_6232)"/>
<path d="M147.042 186.355C142.131 214.363 147.388 255.699 149.216 263.797C149.27 264.04 149.394 264.261 149.574 264.433C149.753 264.605 149.979 264.721 150.223 264.765C151.072 264.913 152.469 265.042 153.857 264.653C154.09 264.588 154.296 264.451 154.447 264.261C154.597 264.072 154.685 263.84 154.696 263.599C155.015 257.068 154.936 216.96 159.412 201.154C159.638 200.354 160.135 199.657 160.816 199.181L169.264 193.285L170 183.631L147.042 186.355Z" fill="url(#paint14_linear_290_6232)"/>
<path d="M176.858 133.575C162.843 133.215 147.34 136.925 147.34 136.925C142.929 160.913 146.108 188.66 146.108 188.66C156.933 191.566 169.218 187.162 169.218 187.162C171.118 177.136 179.811 148.951 179.811 148.951C186.668 148.178 192.329 146.283 197 143.752C193.495 139.671 191.874 134.503 191.178 131.452C186.203 132.922 181.181 133.686 176.858 133.575Z" fill="url(#paint15_linear_290_6232)"/>
<path d="M218 113.45C216.653 111.803 214.921 112.56 214.921 112.56C212.798 121.101 202.028 127.941 191 131.23C191.686 134.272 193.293 139.424 196.761 143.493C215.106 133.476 218 113.45 218 113.45Z" fill="url(#paint16_linear_290_6232)"/>
<path d="M217.686 113.865C217.823 114.343 216.181 115.052 215.236 113.093C215.211 112.157 214.712 108.146 215.245 107.393C218.081 103.366 223.555 98.3379 223.555 98.3379C224.463 99.3087 223.7 100.246 223.7 100.246L221.04 103.131C221.581 104.194 222.245 105.089 222.548 106.376C222.771 107.355 222.63 108.389 222.154 109.261C221.684 110.141 221.043 111.284 220.439 112.178C219.295 113.868 217.686 113.865 217.686 113.865Z" fill="url(#paint17_linear_290_6232)"/>
<path d="M219.578 105.362L217.626 107.248L217 109.139L218.709 111.383C218.709 111.383 219.32 107.623 219.759 106.812C220.197 106.002 219.979 105.607 219.578 105.362Z" fill="url(#paint18_linear_290_6232)"/>
<path d="M153 150.029L147.673 136.469C147.673 136.469 134.296 145.198 132 156.404C134.513 156.609 139.074 157.291 143.525 159.548C144.56 154.257 153 150.029 153 150.029Z" fill="url(#paint19_linear_290_6232)"/>
<path d="M164.103 163.167C164.103 163.167 149.429 171.528 144.572 164.217C143.564 162.696 143.333 161.198 143.598 159.772C139.244 157.451 134.781 156.749 132.326 156.538C131.65 160.012 131.956 163.718 133.906 167.479C142.381 183.834 166 166.896 166 166.896L164.103 163.167Z" fill="url(#paint20_linear_290_6232)"/>
<path d="M162.716 121.417L158.029 134.636C157.99 134.742 157.991 134.858 158.029 134.964C158.068 135.07 158.143 135.158 158.24 135.214C159.477 135.917 163.937 137.963 169.368 134.568C169.649 134.396 169.888 134.163 170.069 133.887C170.249 133.611 170.367 133.298 170.414 132.971L172 121.506L162.716 121.417Z" fill="url(#paint21_linear_290_6232)"/>
<path d="M172.703 110.379C172.703 110.379 177.613 119.268 176.936 122.835C176.259 126.402 170.063 126.089 164.684 123.139L161 113.561L172.703 110.379Z" fill="url(#paint22_linear_290_6232)"/>
<path d="M164.78 118.195C164.832 118.173 164.878 118.142 164.915 118.101C164.953 118.061 164.981 118.013 164.997 117.962C165.014 117.91 165.018 117.855 165.011 117.801C165.003 117.748 164.984 117.696 164.954 117.651C164.562 117.059 163.83 115.851 163.604 114.798C163.604 114.798 162.718 114.237 165.883 113.535C169.048 112.834 173.767 111.737 174.782 109.138C175.772 106.605 173.299 100.187 169.205 105.244C169.169 105.289 169.123 105.326 169.07 105.351C169.017 105.376 168.959 105.389 168.901 105.389C168.842 105.389 168.784 105.376 168.731 105.351C168.678 105.326 168.632 105.289 168.596 105.244C167.941 104.401 166.215 102.647 163.789 103.678C161.515 104.643 161.244 106.251 161.267 107.062C161.269 107.118 161.258 107.174 161.235 107.225C161.211 107.276 161.176 107.321 161.132 107.357C161.089 107.393 161.037 107.42 160.981 107.434C160.925 107.448 160.867 107.449 160.811 107.438C159.668 107.216 156.922 107.008 155.612 109.732C154.533 111.975 155.211 113.256 155.827 113.886C155.873 113.932 155.906 113.989 155.923 114.051C155.939 114.113 155.939 114.178 155.922 114.24C155.905 114.302 155.871 114.359 155.825 114.405C155.778 114.45 155.721 114.484 155.657 114.501C154.902 114.718 153.925 115.328 154.005 117.04C154.116 119.407 156.843 119.223 157.62 119.123C157.683 119.114 157.746 119.121 157.806 119.142C157.865 119.163 157.918 119.198 157.96 119.243C158.618 119.963 161.586 123.024 164.827 123.422C164.891 123.429 164.957 123.42 165.017 123.396C165.077 123.372 165.131 123.334 165.172 123.285C165.213 123.236 165.24 123.177 165.252 123.115C165.263 123.053 165.259 122.989 165.238 122.929L163.873 118.956C163.843 118.867 163.848 118.77 163.887 118.684C163.927 118.598 163.998 118.53 164.086 118.493L164.78 118.195Z" fill="url(#paint23_linear_290_6232)"/>
<path d="M165.896 118.895C165.896 118.895 162.3 115.91 162.016 118.386C161.733 120.862 165.247 122.015 167 121.111L165.896 118.895Z" fill="url(#paint24_linear_290_6232)"/>
<path d="M161.032 176.369L168.889 147.871C168.931 147.712 169.018 147.57 169.139 147.463C169.259 147.355 169.408 147.288 169.565 147.269C170.99 147.097 175.115 146.612 179.878 146.194C185.615 145.692 192.278 145.282 196.259 145.629C196.39 145.639 196.517 145.683 196.628 145.757C196.739 145.83 196.831 145.931 196.896 146.05C196.961 146.169 196.996 146.302 197 146.439C197.003 146.575 196.974 146.711 196.915 146.833C194.651 151.591 185.336 170.939 180.675 177.28C180.599 177.384 180.501 177.467 180.388 177.525C180.276 177.582 180.152 177.611 180.027 177.61L161.796 177.434C161.672 177.433 161.55 177.402 161.44 177.344C161.329 177.286 161.233 177.202 161.159 177.099C161.085 176.996 161.035 176.876 161.013 176.749C160.991 176.623 160.997 176.493 161.032 176.369Z" fill="url(#paint25_linear_290_6232)"/>
<path d="M162.797 169.528C162.797 169.528 161.646 164.725 162.11 163.021C162.574 161.318 163.474 159.127 166.469 159.619C169.465 160.11 173 161.387 173 161.387C173 161.387 172.821 163.607 170.545 162.891L171.956 164C171.956 164 171.753 165.778 169.831 164.825L171.145 166.296C171.145 166.296 170.318 167.756 168.903 166.82C167.488 165.885 166.81 170.107 162.797 169.528Z" fill="url(#paint26_linear_290_6232)"/>
<path d="M180 155.033C180 155.529 180.117 156.014 180.337 156.427C180.557 156.839 180.869 157.161 181.235 157.35C181.6 157.54 182.002 157.59 182.39 157.493C182.778 157.396 183.135 157.157 183.414 156.807C183.694 156.456 183.884 156.009 183.962 155.522C184.039 155.036 183.999 154.531 183.848 154.073C183.696 153.614 183.44 153.223 183.111 152.947C182.782 152.671 182.396 152.524 182 152.524C181.47 152.524 180.961 152.788 180.586 153.259C180.211 153.729 180 154.367 180 155.033Z" fill="#91B3FA"/>
<path d="M169.602 156.538L169 156.356L170.637 150.668C170.765 150.217 171.009 149.809 171.345 149.49C171.681 149.17 172.095 148.949 172.544 148.852C177.736 147.738 191.41 147.517 191.99 147.507L192 148.15C191.859 148.15 177.806 148.385 172.672 149.481C172.334 149.555 172.023 149.721 171.771 149.962C171.518 150.204 171.335 150.51 171.24 150.85L169.602 156.538Z" fill="#91B3FA"/>
<path d="M75.3976 234.807C74.6119 236.083 71.4898 264.962 71.0013 275.629C70.9938 275.8 71.0181 275.971 71.0726 276.131C71.127 276.291 71.2107 276.438 71.3183 276.561C71.4259 276.685 71.5554 276.783 71.6987 276.85C71.8421 276.918 71.9964 276.952 72.1523 276.952C72.427 276.952 72.6927 276.844 72.9015 276.648C73.1102 276.452 73.2482 276.181 73.2905 275.883L79 235.726L75.3976 234.807Z" fill="#7D97F4"/>
<path d="M102.602 234.807C103.388 236.083 106.51 264.962 106.999 275.629C107.006 275.8 106.982 275.971 106.928 276.131C106.873 276.291 106.79 276.438 106.682 276.562C106.574 276.685 106.445 276.784 106.301 276.851C106.158 276.918 106.003 276.952 105.848 276.952C105.573 276.952 105.307 276.844 105.099 276.648C104.89 276.452 104.752 276.18 104.71 275.883L99 235.726L102.602 234.807Z" fill="#7D97F4"/>
<path d="M70.0002 232.861V233.174C69.9792 235.43 71.9368 237.281 74.3881 237.321L103.433 237.816C105.848 237.857 107.862 236.124 107.98 233.904L107.995 233.617C108.117 231.301 106.136 229.349 103.617 229.305L74.5586 228.787C72.0685 228.74 70.0211 230.572 70.0002 232.861Z" fill="#7D97F4"/>
<path d="M130.445 274.502C125.296 274.502 123.019 274.209 122 273.941C122.1 274.227 122.342 274.481 122.688 274.663C123.033 274.846 123.462 274.945 123.903 274.945H142.115C142.251 274.945 142.385 274.924 142.507 274.884C142.629 274.844 142.736 274.786 142.818 274.714C142.901 274.642 142.957 274.559 142.984 274.47C143.01 274.381 143.005 274.29 142.969 274.203C140.893 274.313 136.483 274.502 130.445 274.502Z" fill="#91B3FA"/>
<path d="M143 273.512C142.971 273.405 142.92 273.305 142.851 273.217C141.46 271.526 138.679 268.874 134.894 268.925C129.346 268.999 127.412 269.574 123.1 268.957L122.083 272.175C121.984 272.487 121.973 272.819 122.052 273.136C123.07 273.52 125.345 273.941 130.488 273.941C136.525 273.941 140.93 273.671 143 273.512Z" fill="url(#paint27_linear_290_6232)"/>
<path d="M124.32 265.914L123 270.273C123 270.273 125.924 271.566 128.495 270.528L129 266.752L124.32 265.914Z" fill="url(#paint28_linear_290_6232)"/>
<path d="M161.709 271.978C157.922 275.155 155.985 276.223 155 276.544C155.328 276.811 155.732 276.955 156.148 276.952C156.563 276.948 156.966 276.799 157.29 276.526L170.687 265.288C170.787 265.205 170.867 265.098 170.922 264.977C170.976 264.856 171.003 264.724 171 264.59C170.997 264.456 170.965 264.325 170.905 264.207C170.846 264.088 170.761 263.986 170.658 263.907C169.225 265.315 166.151 268.252 161.709 271.978Z" fill="#91B3FA"/>
<path d="M171 263.425C170.91 263.357 170.808 263.308 170.698 263.281C168.57 262.788 164.772 262.385 161.931 264.743C157.772 268.199 156.665 269.838 153 271.988L154.274 275.167C154.397 275.475 154.6 275.744 154.861 275.948C155.877 275.63 157.873 274.572 161.776 271.424C166.355 267.731 169.523 264.821 171 263.425Z" fill="url(#paint29_linear_290_6232)"/>
<path d="M97.9371 217.748C97.9371 217.748 128.777 220.25 135.1 223.21C141.423 226.169 129.938 267.642 129.938 267.642C129.938 267.642 128.216 268.465 124.384 267.282C124.384 267.282 128.313 236.676 125.388 230.04L92 224.613L97.9371 217.748Z" fill="url(#paint30_linear_290_6232)"/>
<path d="M150 266.574C150.253 266.812 152.709 271.935 152.709 271.935C152.709 271.935 155.442 271.323 156 269.534L153.537 264.91L150 266.574Z" fill="url(#paint31_linear_290_6232)"/>
<path d="M79.9537 216.745C79.9537 216.745 78.9609 219.165 79.0012 222.379C79.0572 226.826 82.587 230.434 86.973 230.655L122.992 232.318C123.362 232.335 123.717 232.472 124.004 232.709C124.291 232.946 124.496 233.27 124.588 233.633C125.434 236.948 129.571 247.129 149.795 267.443C150.057 267.706 150.399 267.87 150.765 267.911C151.131 267.951 151.5 267.865 151.812 267.666L154.691 265.825C154.836 265.732 154.94 265.585 154.981 265.416C155.022 265.246 154.996 265.068 154.909 264.917L133.937 228.653C132.835 226.812 131.065 225.482 129.005 224.949L98.3055 217.003L79.9537 216.745Z" fill="url(#paint32_linear_290_6232)"/>
<path d="M115.261 160.552C115.261 160.552 111.17 167.556 107 170.945L115.62 175.603C115.62 175.603 117.562 168.189 122 166.017L115.261 160.552Z" fill="url(#paint33_linear_290_6232)"/>
<path d="M79 217.679C79 217.679 88.7448 220.093 98.0464 217.679C98.0464 217.679 111.061 199.894 116.096 195.048C116.096 195.048 124.128 207.933 142.002 209.758L143 207.493C143 207.493 128.767 200.824 124.383 190.576C119.999 180.329 118.247 175.963 114.259 173.292C111.777 171.627 110.29 170.488 109.522 169.869C109.318 169.702 109.069 169.604 108.808 169.586C108.547 169.568 108.286 169.632 108.062 169.768C103.834 172.391 83.93 186.25 79 217.679Z" fill="url(#paint34_linear_290_6232)"/>
<path d="M115.378 194.669C115.284 194.668 115.191 194.646 115.106 194.602C115.021 194.559 114.948 194.496 114.89 194.418C111.817 190.262 110.11 185.68 110.034 185.488C109.982 185.33 109.99 185.158 110.058 185.006C110.125 184.855 110.247 184.737 110.397 184.677C110.548 184.617 110.714 184.621 110.862 184.686C111.01 184.751 111.128 184.874 111.19 185.028C111.207 185.073 112.912 189.632 115.872 193.636C115.942 193.731 115.986 193.844 115.997 193.963C116.008 194.082 115.988 194.202 115.937 194.309C115.886 194.416 115.808 194.507 115.71 194.571C115.613 194.634 115.5 194.668 115.385 194.669H115.378Z" fill="url(#paint35_linear_290_6232)"/>
<path d="M141 205.872L142.945 205.296L148.847 203.778C149.199 203.688 149.564 203.676 149.92 203.742C150.276 203.809 150.617 203.953 150.923 204.167L156 207.714L141.98 207.687L141 205.872Z" fill="url(#paint36_linear_290_6232)"/>
<path d="M120.952 150.517C120.952 150.517 124.713 156.8 125.366 160.273C126.019 163.746 127.067 165.921 123.134 167.155C119.201 168.388 115.542 166.827 113.25 163.588C113.25 163.588 109.668 158.599 110.025 156.314C110.382 154.029 120.952 150.517 120.952 150.517Z" fill="url(#paint37_linear_290_6232)"/>
<path d="M114.746 160.687L115.266 160.622C115.266 160.622 112.549 156.717 114.326 155.749C116.103 154.781 123.352 152.401 124.611 149.69C125.824 147.074 124.007 144.118 121.821 143.502C121.754 143.485 121.682 143.493 121.619 143.524C121.557 143.555 121.51 143.607 121.486 143.67L121.358 143.999C121.338 144.049 121.304 144.092 121.258 144.123C121.212 144.155 121.158 144.172 121.102 144.174C121.046 144.175 120.991 144.161 120.943 144.132C120.896 144.104 120.859 144.062 120.836 144.013C120.815 143.966 120.78 143.926 120.735 143.897C120.691 143.868 120.638 143.852 120.584 143.851C120.531 143.85 120.478 143.864 120.432 143.891C120.386 143.918 120.349 143.957 120.326 144.003C119.938 144.816 118.775 146.204 115.295 147.279C110.349 148.803 107.268 151.173 107.647 154.513C107.653 154.561 107.645 154.609 107.625 154.653C107.604 154.697 107.572 154.734 107.53 154.762C107.489 154.79 107.441 154.807 107.391 154.811C107.341 154.815 107.29 154.806 107.245 154.785C106.842 154.616 106.227 154.594 105.516 155.328C104.278 156.616 105.248 159.43 108.628 161.422C108.666 161.443 108.699 161.473 108.722 161.508C108.746 161.543 108.761 161.583 108.765 161.625C108.77 161.666 108.764 161.708 108.748 161.747C108.732 161.786 108.706 161.821 108.674 161.849C108.171 162.26 107.457 163.179 109.744 163.996C112.084 164.833 113.36 164.55 113.832 164.371C113.893 164.348 113.944 164.305 113.976 164.25C114.007 164.195 114.018 164.131 114.005 164.069L113.401 161.142C113.394 161.106 113.394 161.069 113.402 161.034C113.411 160.998 113.426 160.964 113.449 160.935C113.471 160.905 113.5 160.88 113.533 160.861C113.566 160.842 113.602 160.83 113.641 160.826L114.746 160.687Z" fill="url(#paint38_linear_290_6232)"/>
<path d="M115 161.587C115 161.587 113.299 157.381 111.504 158.86C109.71 160.34 113.16 163.605 114.746 163.562L115 161.587Z" fill="url(#paint39_linear_290_6232)"/>
<path d="M135.34 210.724H135.412L166.57 210.69C166.756 210.696 166.941 210.661 167.115 210.589C167.288 210.516 167.446 210.408 167.579 210.269C167.712 210.13 167.818 209.964 167.89 209.781C167.963 209.598 168 209.401 168 209.202C168 209.004 167.963 208.807 167.89 208.624C167.818 208.44 167.712 208.275 167.579 208.136C167.446 207.997 167.288 207.888 167.115 207.816C166.941 207.744 166.756 207.709 166.57 207.714L135.411 207.748C135.045 207.743 134.691 207.892 134.427 208.164C134.163 208.435 134.009 208.807 134 209.199C133.991 209.591 134.127 209.97 134.379 210.256C134.63 210.541 134.976 210.708 135.343 210.722L135.34 210.724Z" fill="url(#paint40_linear_290_6232)"/>
<path d="M178.366 180.356C178.355 180.378 178.345 180.399 178.335 180.421L165.146 208.711C165.063 208.878 165.014 209.059 165.003 209.245C164.991 209.431 165.017 209.617 165.079 209.792C165.141 209.968 165.238 210.129 165.364 210.267C165.489 210.405 165.642 210.516 165.811 210.595C165.981 210.673 166.165 210.717 166.352 210.723C166.538 210.73 166.725 210.699 166.9 210.633C167.074 210.566 167.234 210.466 167.369 210.337C167.504 210.209 167.612 210.054 167.686 209.884L180.875 181.586C181.025 181.257 181.041 180.883 180.919 180.543C180.797 180.203 180.547 179.923 180.221 179.762C179.896 179.602 179.521 179.573 179.175 179.683C178.829 179.792 178.539 180.031 178.366 180.349V180.356Z" fill="url(#paint41_linear_290_6232)"/>
<path d="M259 238.821H256V274.945H259V238.821Z" fill="#7D97F4"/>
<path d="M271 274.945H243C243 274.681 243.054 274.42 243.158 274.177C243.263 273.933 243.416 273.712 243.609 273.526C243.803 273.339 244.032 273.192 244.284 273.091C244.537 272.99 244.807 272.938 245.08 272.938H268.92C269.193 272.938 269.463 272.99 269.716 273.091C269.968 273.191 270.198 273.339 270.391 273.526C270.584 273.712 270.737 273.933 270.842 274.177C270.946 274.42 271 274.681 271 274.945Z" fill="#7D97F4"/>
<path d="M272.484 230.793H243.516C241.574 230.793 240 232.495 240 234.594V238.031C240 240.13 241.574 241.831 243.516 241.831H272.484C274.426 241.831 276 240.13 276 238.031V234.594C276 232.495 274.426 230.793 272.484 230.793Z" fill="#7D97F4"/>
<path d="M233.42 215.741C233.42 215.741 228.614 216.497 223.209 220.16C222.791 220.44 222.459 220.833 222.249 221.294C222.038 221.755 221.959 222.267 222.02 222.771C222.668 227.969 225.332 244.791 234.099 261.222C234.558 262.091 234.696 263.098 234.489 264.061L232.964 271.254L230.139 273.941H237.421L242.272 260.636L240.198 259.971C239.415 259.719 238.728 259.225 238.237 258.556C237.745 257.888 237.473 257.08 237.459 256.247L237.217 241.977C237.424 235.619 233.372 231.232 233.372 231.232L245 230.659L233.42 215.741Z" fill="url(#paint42_linear_290_6232)"/>
<path d="M227.041 274.817C226.361 275.675 234.359 276.807 238.399 274.93C238.399 274.93 244 265.53 244 260.689C244 260.689 243.556 259.703 240.267 259.926C240.267 259.926 238.386 271.057 236.4 272.304C234.415 273.551 230.845 272.43 230.845 272.43C230.845 272.43 228.044 273.55 227.041 274.817Z" fill="url(#paint43_linear_290_6232)"/>
<path d="M243 231.496C242.937 231.388 230.361 229.991 230.361 229.991C230.361 229.991 230.772 233.797 229.486 239.035C228.199 244.273 209.733 266.97 209.733 266.97L211.67 273.079C205.683 275.154 199.794 275.486 194 274.136L205.998 266.97C205.998 266.97 217.228 228.887 224.107 222.092L236.706 217.748L243 231.496Z" fill="url(#paint44_linear_290_6232)"/>
<path d="M271.206 208.717C271.206 208.717 278.335 219.411 278.919 224.289C279.504 229.166 276.967 231.148 269.488 231.475C262.009 231.801 242.041 231.797 242.041 231.797L225 217.108C225 217.108 237.419 212.64 240.647 211.376C243.876 210.113 271.206 208.717 271.206 208.717Z" fill="url(#paint45_linear_290_6232)"/>
<path d="M211.807 270.931C211.807 270.931 213.942 272.889 212.5 275.066C212.5 275.066 195.591 277.904 191 276.617C191 276.617 191.954 274.556 197.123 272.212L196.742 272.489C196.637 272.565 196.56 272.67 196.523 272.791C196.486 272.911 196.491 273.039 196.536 273.156C196.582 273.274 196.666 273.374 196.777 273.443C196.887 273.511 197.018 273.545 197.15 273.538C200.556 273.354 207.606 272.763 211.807 270.931Z" fill="url(#paint46_linear_290_6232)"/>
<path d="M240.123 139.825C254.708 137.29 261.575 149.45 261.072 152.002C261.058 152.08 261.064 152.16 261.088 152.236C261.113 152.311 261.156 152.379 261.213 152.432C261.271 152.486 261.34 152.524 261.416 152.542C261.492 152.561 261.571 152.559 261.646 152.538C263.32 152.077 267.019 151.496 269.312 154.434C271.336 157.027 269.823 159.475 268.59 160.818C268.524 160.888 268.481 160.977 268.467 161.073C268.453 161.169 268.468 161.267 268.51 161.354C268.553 161.44 268.62 161.512 268.704 161.558C268.787 161.603 268.883 161.622 268.977 161.61C272.055 161.214 278.745 161.115 279.839 167.524C280.859 173.499 276.792 175.183 274.38 175.658C274.29 175.676 274.208 175.722 274.143 175.789C274.079 175.856 274.036 175.941 274.019 176.033C274.003 176.125 274.014 176.221 274.051 176.306C274.088 176.392 274.149 176.465 274.227 176.514C275.431 177.294 276.825 178.908 276.261 182.091C275.378 187.079 265.81 186.672 264.693 186.606C264.623 186.602 264.554 186.581 264.493 186.545L249.168 177.62C249.109 177.586 249.059 177.539 249.02 177.482C248.981 177.425 248.954 177.36 248.943 177.291L245.848 159.03C245.836 158.958 245.84 158.883 245.861 158.812C245.883 158.741 245.92 158.677 245.97 158.624L235.98 144.205C232.353 143.66 239.951 139.858 240.123 139.825Z" fill="url(#paint47_linear_290_6232)"/>
<path d="M252.006 207.714C252.006 207.714 243.55 199.665 239.391 194.334C238.283 192.913 237.53 191.248 237.196 189.477C236.862 187.707 236.956 185.882 237.47 184.155C239.37 177.752 242.748 171.127 243.056 170.096C243.528 168.514 253.011 168.58 253.011 168.58C253.011 168.58 271.669 180.684 279 201.187L270.768 203.748C270.768 203.748 265.896 195.578 261.082 190.384C261.082 190.384 269.411 201.382 269.704 205.884L252.006 207.714Z" fill="url(#paint48_linear_290_6232)"/>
<path d="M242 160.928C242.092 161.25 244.415 169.289 244.596 169.455C244.778 169.621 249.688 169.898 252 168.249L246.267 156.538L242 160.928Z" fill="url(#paint49_linear_290_6232)"/>
<path d="M232.204 150.487C232.204 150.487 231.045 155.065 234.25 161.223C237.455 167.381 241.082 167.374 243.066 165.403C245.049 163.432 247.493 160.087 246.913 154.135C246.333 148.182 233.876 144.662 232.204 150.487Z" fill="url(#paint50_linear_290_6232)"/>
<path d="M242.749 154.264C242.749 154.264 237.287 146.008 232.165 152.506L232.073 154.869C232.073 154.869 226.074 154.165 227.123 148.726C228.172 143.288 233.358 139.889 240.034 142.245C246.71 144.601 250.536 147.016 250.966 151.745C251.396 156.474 247.59 155.439 247.59 155.439C247.59 155.439 246.349 152.108 244.584 151.762C242.819 151.416 243.277 154.013 243.277 154.013L242.749 154.264Z" fill="url(#paint51_linear_290_6232)"/>
<path d="M244.011 154.501C244.011 154.501 241.699 150.211 244.067 149.572C246.436 148.932 246.068 153.752 245.813 155.534L244.011 154.501Z" fill="url(#paint52_linear_290_6232)"/>
<path d="M235 207.667L241.192 201.805L249.764 205.359C249.764 205.359 258.297 206.656 263.18 205.359L268.064 204.061L279.099 200.69L280.833 205.497C281.046 206.091 281.056 206.737 280.86 207.338C280.665 207.938 280.276 208.459 279.752 208.822C278.797 209.489 277.678 210.22 276.965 210.527C275.511 211.151 241.14 210.095 241.14 210.095L235 207.667Z" fill="url(#paint53_linear_290_6232)"/>
<path d="M258.48 210.724H258.398L222.602 210.688C222.177 210.688 221.77 210.531 221.469 210.252C221.169 209.973 221 209.595 221 209.201C221 208.806 221.169 208.428 221.469 208.149C221.77 207.871 222.177 207.714 222.602 207.714L258.398 207.75C258.816 207.75 259.217 207.902 259.517 208.173C259.816 208.444 259.989 208.812 260 209.2C260.01 209.588 259.856 209.965 259.572 210.249C259.287 210.533 258.894 210.703 258.477 210.722L258.48 210.724Z" fill="url(#paint54_linear_290_6232)"/>
<path d="M190.377 177.61H220.122C221.196 177.61 222.249 177.923 223.157 178.511C224.065 179.099 224.79 179.938 225.249 180.932L239 210.724H202.034C201.343 210.724 200.668 210.512 200.097 210.115C199.525 209.718 199.084 209.154 198.83 208.498L188.166 180.93C188.024 180.561 187.972 180.163 188.014 179.77C188.057 179.376 188.194 178.999 188.411 178.672C188.629 178.345 188.922 178.077 189.265 177.892C189.607 177.707 189.989 177.61 190.377 177.61Z" fill="url(#paint55_linear_290_6232)"/>
<path d="M210.715 192.887C211.355 195.06 210.882 197.171 209.659 197.602C208.436 198.033 206.925 196.619 206.285 194.445C205.645 192.272 206.118 190.159 207.341 189.729C208.565 189.298 210.08 190.712 210.715 192.887Z" fill="#7D97F4"/>
<path d="M299.469 270.52C299.726 272.072 299.902 273.636 299.996 275.207C300.027 275.729 299.859 276.242 299.527 276.64C299.194 277.037 298.724 277.288 298.214 277.338C294.527 277.703 286.133 278.377 280.777 277.588C280.609 277.564 280.45 277.492 280.32 277.381C280.19 277.269 280.094 277.122 280.042 276.957C279.991 276.791 279.986 276.614 280.029 276.446C280.072 276.278 280.161 276.126 280.285 276.008C282.494 273.906 287.832 269.818 296.615 268.924L299.469 270.52Z" fill="url(#paint56_linear_290_6232)"/>
<path d="M301 266.022L298.949 270.914C298.814 271.241 298.573 271.516 298.263 271.699C297.953 271.882 297.591 271.961 297.23 271.926C296.663 271.872 296.102 271.766 295.555 271.61C295 271.444 294.534 271.071 294.26 270.572C293.986 270.073 293.926 269.489 294.093 268.947L295.64 263.907L301 266.022Z" fill="url(#paint57_linear_290_6232)"/>
<path d="M332.184 274.945C332.184 274.945 328.525 277.947 327.099 281.798C326.706 282.858 327.535 283.976 328.685 283.976H336.219C336.478 283.976 336.734 283.922 336.969 283.815C337.204 283.708 337.413 283.552 337.58 283.358C337.747 283.164 337.869 282.937 337.938 282.692C338.006 282.446 338.018 282.19 337.974 281.939C337.492 279.278 336.113 274.956 332.184 274.945Z" fill="url(#paint58_linear_290_6232)"/>
<path d="M337 270.53C337 270.53 336.209 274.063 335.602 276.398C335.575 276.498 335.529 276.591 335.465 276.672C335.4 276.753 335.32 276.819 335.23 276.867C335.139 276.915 335.039 276.943 334.937 276.95C334.834 276.957 334.732 276.942 334.636 276.907C333.417 276.467 332.425 276.272 331.704 276.37C331.625 276.378 331.544 276.369 331.468 276.344C331.392 276.319 331.323 276.278 331.263 276.224C331.204 276.17 331.157 276.104 331.124 276.03C331.092 275.956 331.075 275.876 331.075 275.795L331 269.928L337 270.53Z" fill="url(#paint59_linear_290_6232)"/>
<path d="M317.63 195.258L295 264.366C295 264.366 299.34 267.211 301.409 267.093L328.288 211.553C328.288 211.553 332.992 245.772 330.715 270.341L338.414 270.931C338.414 270.931 350.933 208.145 341.451 186.641L317.63 195.258Z" fill="url(#paint60_linear_290_6232)"/>
<path d="M327.834 210.724H327.855C327.898 210.717 327.938 210.689 327.965 210.645C327.992 210.602 328.004 210.547 327.999 210.492L327.332 203.882C327.329 203.855 327.322 203.829 327.311 203.805C327.301 203.781 327.286 203.761 327.269 203.744C327.252 203.727 327.232 203.715 327.211 203.707C327.19 203.7 327.168 203.698 327.146 203.702C327.124 203.705 327.103 203.714 327.084 203.727C327.065 203.74 327.049 203.759 327.035 203.78C327.022 203.802 327.012 203.826 327.006 203.852C327 203.879 326.999 203.906 327.001 203.933L327.673 210.543C327.678 210.593 327.697 210.638 327.726 210.671C327.756 210.704 327.794 210.723 327.834 210.724Z" fill="url(#paint61_linear_290_6232)"/>
<path d="M313.168 133.458C313.168 133.458 331.617 135.116 329.007 148.422C329.007 148.422 339.204 167.847 343.972 190.731C344.008 190.908 344.009 191.091 343.975 191.268C343.94 191.445 343.87 191.614 343.769 191.763C343.669 191.912 343.539 192.04 343.389 192.137C343.239 192.235 343.07 192.301 342.894 192.331L312.171 197.656C311.763 197.726 311.343 197.638 310.996 197.41C310.648 197.182 310.398 196.831 310.294 196.425L302.953 167.708L300.088 181.06L291 178.66L298.651 139.426C298.651 139.426 299.719 133.704 313.168 133.458Z" fill="url(#paint62_linear_290_6232)"/>
<path d="M302.772 166.571C302.788 166.573 302.805 166.573 302.821 166.571C302.88 166.558 302.931 166.522 302.964 166.472C302.996 166.422 303.008 166.361 302.995 166.302L300.449 154.708C300.443 154.679 300.431 154.652 300.413 154.627C300.396 154.603 300.375 154.582 300.349 154.566C300.324 154.55 300.296 154.54 300.267 154.534C300.237 154.529 300.207 154.53 300.178 154.536C300.149 154.543 300.121 154.555 300.097 154.572C300.073 154.589 300.052 154.61 300.036 154.635C300.02 154.66 300.009 154.688 300.003 154.717C299.998 154.746 299.999 154.776 300.005 154.805L302.55 166.4C302.563 166.449 302.591 166.492 302.631 166.523C302.672 166.554 302.721 166.571 302.772 166.571Z" fill="#91B3FA"/>
<path d="M304.382 201.698C305.354 201.17 306.491 201.024 307.568 201.289L309.713 201.817C309.821 201.843 309.933 201.847 310.042 201.827C310.151 201.807 310.254 201.764 310.345 201.702C310.436 201.639 310.513 201.558 310.569 201.464C310.626 201.37 310.662 201.265 310.674 201.156L312.895 181.624C315.673 182.927 319.679 182.772 321 182.676L315.889 205.707H298L304.382 201.698Z" fill="url(#paint63_linear_290_6232)"/>
<path d="M258 158.738L258.529 156.969C258.679 156.466 258.939 156.003 259.291 155.616C259.642 155.228 260.076 154.925 260.56 154.73L270.123 150.856C270.123 150.856 270.266 149.62 268.101 148.781C265.937 147.942 266.443 145.5 266.443 145.5C266.443 145.5 269.401 146.859 273.73 149.017C276.206 150.25 277.596 152.426 278.332 154.063L300 180.669L297.456 182.427C296.667 182.973 295.772 183.346 294.83 183.519C293.888 183.693 292.921 183.664 291.991 183.434C291.061 183.204 290.189 182.779 289.434 182.186C288.679 181.593 288.057 180.846 287.609 179.993L275.873 157.322C269.977 159.105 264.014 159.442 258 158.738Z" fill="url(#paint64_linear_290_6232)"/>
<path d="M307.106 121.605L313 137.589C313 137.589 307.78 141.544 303.97 140.207L301 131.043C301 131.043 303.272 119.845 307.106 121.605Z" fill="url(#paint65_linear_290_6232)"/>
<path d="M290 115.618C290 115.869 295.429 131.452 295.429 131.452L304 128.069L300.984 112.512C300.984 112.512 290 111.429 290 115.618Z" fill="url(#paint66_linear_290_6232)"/>
<path d="M299.794 116.518L302.001 124.45C302.03 124.551 302.044 124.655 302.044 124.76C302.044 125.406 301.887 127.632 299.653 127.33C297.625 127.056 295.771 126.833 294.592 127.399C294.336 127.52 294.133 127.734 294.024 127.998C293.916 128.263 293.908 128.559 294.004 128.829C294.494 130.222 295.67 133.34 297.087 135.891C297.228 136.14 297.455 136.327 297.725 136.414C297.994 136.502 298.286 136.484 298.543 136.363C300.151 135.621 303.499 133.959 305.885 131.987C306.043 131.857 306.164 131.685 306.235 131.49C306.306 131.296 306.323 131.086 306.286 130.882C305.91 128.852 304.793 122.681 304.744 120.913C304.697 119.253 306.533 117.986 307.341 117.509C307.472 117.432 307.586 117.329 307.676 117.206C307.766 117.083 307.831 116.942 307.867 116.793C308.12 115.725 308.335 113.312 305.296 112.774C305.145 112.748 305.001 112.691 304.873 112.607C304.744 112.524 304.633 112.415 304.547 112.287C304.461 112.159 304.401 112.014 304.372 111.862C304.342 111.71 304.342 111.554 304.373 111.402C304.631 110.124 304.549 108.244 302.157 107.551C299.726 106.848 298.197 108.332 297.419 109.47C297.265 109.691 297.041 109.851 296.784 109.92C296.526 109.99 296.253 109.965 296.012 109.851C295.725 109.721 295.379 109.716 295.006 110.034C294.885 110.134 294.745 110.207 294.595 110.248C294.445 110.29 294.288 110.299 294.134 110.275C293.98 110.251 293.832 110.195 293.701 110.11C293.57 110.025 293.458 109.913 293.371 109.782C292.663 108.723 291.375 107.667 289.195 108.382C285.327 109.652 285.511 114.178 286.929 116.638C288.348 119.098 292.464 117.479 294.412 115.849C295.894 114.61 298.151 115.352 299.147 115.777C299.302 115.844 299.441 115.945 299.553 116.073C299.665 116.201 299.748 116.354 299.794 116.518Z" fill="url(#paint67_linear_290_6232)"/>
<path d="M305.428 123.373C305.428 123.373 302.899 119.377 304.572 118.123C306.244 116.868 309.075 117.074 308.998 120.198C308.904 124.084 305.428 123.373 305.428 123.373Z" fill="url(#paint68_linear_290_6232)"/>
<path d="M319.276 182.627C319.995 182.631 320.713 182.595 321.429 182.52L321.585 182.501L327.996 150.796C328.007 150.737 327.996 150.675 327.964 150.624C327.933 150.573 327.884 150.537 327.828 150.524C327.773 150.511 327.714 150.522 327.665 150.554C327.617 150.586 327.582 150.637 327.569 150.696L321.224 182.077C320.27 182.166 315.175 182.525 312.486 180.504L318.039 152.954L316.881 150.636C316.853 150.583 316.806 150.544 316.752 150.527C316.697 150.51 316.638 150.516 316.587 150.544C316.537 150.573 316.499 150.621 316.481 150.679C316.464 150.736 316.469 150.799 316.494 150.853L317.579 153.023L312 180.697L312.112 180.785C314.055 182.334 317.185 182.627 319.276 182.627Z" fill="#91B3FA"/>
<path d="M119.175 277.955C119.015 277.956 118.856 277.923 118.711 277.857C118.115 277.58 117.84 276.837 118.096 276.194L142.745 214.5C143.001 213.858 143.692 213.562 144.289 213.838C144.886 214.114 145.16 214.858 144.904 215.501L120.259 277.19C120.178 277.411 120.031 277.602 119.837 277.738C119.644 277.875 119.413 277.951 119.175 277.955Z" fill="url(#paint69_linear_290_6232)"/>
<path d="M146.825 277.955C146.587 277.95 146.357 277.874 146.164 277.737C145.972 277.601 145.825 277.41 145.744 277.19L121.096 215.502C120.84 214.86 121.115 214.116 121.712 213.838C122.308 213.561 123.001 213.859 123.255 214.501L147.904 276.189C148.161 276.831 147.885 277.574 147.289 277.852C147.144 277.92 146.985 277.955 146.825 277.955Z" fill="url(#paint70_linear_290_6232)"/>
<path d="M285.131 277.955C284.977 277.956 284.825 277.923 284.685 277.857C284.112 277.58 283.845 276.837 284.092 276.194L307.828 214.5C308.075 213.858 308.74 213.562 309.315 213.838C309.89 214.114 310.155 214.858 309.907 215.501L286.171 277.195C286.093 277.414 285.951 277.604 285.766 277.74C285.58 277.875 285.359 277.95 285.131 277.955Z" fill="url(#paint71_linear_290_6232)"/>
<path d="M311.868 277.955C311.64 277.95 311.418 277.874 311.232 277.737C311.047 277.601 310.906 277.41 310.828 277.19L287.093 215.502C286.845 214.86 287.111 214.116 287.685 213.838C288.259 213.561 288.927 213.859 289.172 214.501L312.907 276.189C313.155 276.831 312.889 277.574 312.315 277.852C312.175 277.92 312.023 277.955 311.868 277.955Z" fill="url(#paint72_linear_290_6232)"/>
<path d="M281 209.721H317V205.707H281C281.77 205.707 281.77 209.721 281 209.721Z" fill="#91B3FA"/>
<path d="M316.115 209.786C316.203 209.786 316.287 209.746 316.349 209.676C316.412 209.605 316.447 209.509 316.447 209.409V206.018C316.447 205.918 316.412 205.822 316.349 205.752C316.287 205.681 316.203 205.641 316.115 205.641H280.332C280.244 205.64 280.16 205.6 280.098 205.53C280.036 205.459 280.001 205.364 280 205.264V205.081C280.001 204.981 280.036 204.885 280.098 204.815C280.16 204.744 280.244 204.704 280.332 204.703H318.473C318.878 204.703 319.266 204.886 319.553 205.211C319.839 205.537 320 205.978 320 206.438V209.088C320 209.522 319.848 209.938 319.578 210.245C319.308 210.552 318.942 210.724 318.559 210.724H280.336C280.248 210.723 280.164 210.684 280.102 210.613C280.04 210.542 280.004 210.447 280.004 210.347V210.169C280.004 210.069 280.04 209.974 280.102 209.903C280.164 209.833 280.248 209.793 280.336 209.792L316.115 209.786Z" fill="url(#paint73_linear_290_6232)"/>
<path d="M321.962 212.432C322.081 212.011 321.919 211.576 321.522 211.246C321.124 210.917 320.532 210.724 319.908 210.724H108.407C107.586 210.724 106.822 211.011 106.38 211.486C105.937 211.96 105.877 212.557 106.222 213.068L108.514 216.47C109.038 217.249 110.181 217.748 111.428 217.748H318.457C319.621 217.748 320.621 217.182 320.842 216.398L321.962 212.432Z" fill="url(#paint74_linear_290_6232)"/>
<defs>
<linearGradient id="paint0_linear_290_6232" x1="377.368" y1="364.418" x2="131.326" y2="61.8118" gradientUnits="userSpaceOnUse">
<stop stop-color="#DAE3FE"/>
<stop offset="1" stop-color="#E9EFFD"/>
</linearGradient>
<linearGradient id="paint1_linear_290_6232" x1="235.032" y1="106.403" x2="231.605" y2="129.109" gradientUnits="userSpaceOnUse">
<stop stop-color="#09005D"/>
<stop offset="1" stop-color="#1A0F91"/>
</linearGradient>
<linearGradient id="paint2_linear_290_6232" x1="236.025" y1="100.208" x2="231.809" y2="153.923" gradientUnits="userSpaceOnUse">
<stop stop-color="#53D8FF"/>
<stop offset="1" stop-color="#3840F7"/>
</linearGradient>
<linearGradient id="paint3_linear_290_6232" x1="235.77" y1="95.3455" x2="227.996" y2="167.199" gradientUnits="userSpaceOnUse">
<stop stop-color="#53D8FF"/>
<stop offset="1" stop-color="#3840F7"/>
</linearGradient>
<linearGradient id="paint4_linear_290_6232" x1="235.148" y1="95.6865" x2="227.804" y2="167.549" gradientUnits="userSpaceOnUse">
<stop stop-color="#53D8FF"/>
<stop offset="1" stop-color="#3840F7"/>
</linearGradient>
<linearGradient id="paint5_linear_290_6232" x1="235.47" y1="95.8072" x2="227.743" y2="168.967" gradientUnits="userSpaceOnUse">
<stop stop-color="#53D8FF"/>
<stop offset="1" stop-color="#3840F7"/>
</linearGradient>
<linearGradient id="paint6_linear_290_6232" x1="237.408" y1="51.5807" x2="228.138" y2="112.697" gradientUnits="userSpaceOnUse">
<stop stop-color="#FF928E"/>
<stop offset="1" stop-color="#FE7062"/>
</linearGradient>
<linearGradient id="paint7_linear_290_6232" x1="322.835" y1="-18.6407" x2="284.293" y2="38.4915" gradientUnits="userSpaceOnUse">
<stop stop-color="#E1473D"/>
<stop offset="1" stop-color="#E9605A"/>
</linearGradient>
<linearGradient id="paint8_linear_290_6232" x1="300.167" y1="-26.6831" x2="257.376" y2="22.1684" gradientUnits="userSpaceOnUse">
<stop stop-color="#E1473D"/>
<stop offset="1" stop-color="#E9605A"/>
</linearGradient>
<linearGradient id="paint9_linear_290_6232" x1="186.927" y1="261.256" x2="127.291" y2="322.562" gradientUnits="userSpaceOnUse">
<stop stop-color="#09005D"/>
<stop offset="1" stop-color="#1A0F91"/>
</linearGradient>
<linearGradient id="paint10_linear_290_6232" x1="167.976" y1="265.802" x2="173.012" y2="265.843" gradientUnits="userSpaceOnUse">
<stop stop-color="#FEBBBA"/>
<stop offset="1" stop-color="#FF928E"/>
</linearGradient>
<linearGradient id="paint11_linear_290_6232" x1="193.014" y1="187.4" x2="141.9" y2="256.162" gradientUnits="userSpaceOnUse">
<stop stop-color="#09005D"/>
<stop offset="1" stop-color="#1A0F91"/>
</linearGradient>
<linearGradient id="paint12_linear_290_6232" x1="172.871" y1="247.133" x2="109.363" y2="307.756" gradientUnits="userSpaceOnUse">
<stop stop-color="#09005D"/>
<stop offset="1" stop-color="#1A0F91"/>
</linearGradient>
<linearGradient id="paint13_linear_290_6232" x1="148.964" y1="265.319" x2="154.033" y2="265.372" gradientUnits="userSpaceOnUse">
<stop stop-color="#FEBBBA"/>
<stop offset="1" stop-color="#FF928E"/>
</linearGradient>
<linearGradient id="paint14_linear_290_6232" x1="184.088" y1="180.851" x2="132.903" y2="248.765" gradientUnits="userSpaceOnUse">
<stop stop-color="#09005D"/>
<stop offset="1" stop-color="#1A0F91"/>
</linearGradient>
<linearGradient id="paint15_linear_290_6232" x1="-38.5277" y1="-193.847" x2="7.29404" y2="-113.258" gradientUnits="userSpaceOnUse">
<stop stop-color="#FF928E"/>
<stop offset="1" stop-color="#FE7062"/>
</linearGradient>
<linearGradient id="paint16_linear_290_6232" x1="191.015" y1="127.737" x2="217.841" y2="127.992" gradientUnits="userSpaceOnUse">
<stop stop-color="#FEBBBA"/>
<stop offset="1" stop-color="#FF928E"/>
</linearGradient>
<linearGradient id="paint17_linear_290_6232" x1="211.925" y1="123.921" x2="191.79" y2="165.903" gradientUnits="userSpaceOnUse">
<stop stop-color="#FEBBBA"/>
<stop offset="1" stop-color="#FF928E"/>
</linearGradient>
<linearGradient id="paint18_linear_290_6232" x1="217.991" y1="109.546" x2="225.413" y2="99.9212" gradientUnits="userSpaceOnUse">
<stop stop-color="#FEBBBA"/>
<stop offset="1" stop-color="#FF928E"/>
</linearGradient>
<linearGradient id="paint19_linear_290_6232" x1="-57.201" y1="-188.401" x2="-11.0526" y2="-106.812" gradientUnits="userSpaceOnUse">
<stop stop-color="#FF928E"/>
<stop offset="1" stop-color="#FE7062"/>
</linearGradient>
<linearGradient id="paint20_linear_290_6232" x1="131.935" y1="165.445" x2="165.996" y2="165.756" gradientUnits="userSpaceOnUse">
<stop stop-color="#FEBBBA"/>
<stop offset="1" stop-color="#FF928E"/>
</linearGradient>
<linearGradient id="paint21_linear_290_6232" x1="158.041" y1="128.84" x2="171.913" y2="128.97" gradientUnits="userSpaceOnUse">
<stop stop-color="#FEBBBA"/>
<stop offset="1" stop-color="#FF928E"/>
</linearGradient>
<linearGradient id="paint22_linear_290_6232" x1="175.716" y1="120.07" x2="161.108" y2="110.438" gradientUnits="userSpaceOnUse">
<stop stop-color="#FEBBBA"/>
<stop offset="1" stop-color="#FF928E"/>
</linearGradient>
<linearGradient id="paint23_linear_290_6232" x1="152.512" y1="101.37" x2="171.415" y2="116.981" gradientUnits="userSpaceOnUse">
<stop stop-color="#09005D"/>
<stop offset="1" stop-color="#1A0F91"/>
</linearGradient>
<linearGradient id="paint24_linear_290_6232" x1="172.16" y1="124.398" x2="157.1" y2="116.528" gradientUnits="userSpaceOnUse">
<stop stop-color="#FEBBBA"/>
<stop offset="1" stop-color="#FF928E"/>
</linearGradient>
<linearGradient id="paint25_linear_290_6232" x1="174.833" y1="143.504" x2="194.673" y2="223.109" gradientUnits="userSpaceOnUse">
<stop stop-color="#09005D"/>
<stop offset="1" stop-color="#1A0F91"/>
</linearGradient>
<linearGradient id="paint26_linear_290_6232" x1="162.001" y1="164.564" x2="173" y2="164.564" gradientUnits="userSpaceOnUse">
<stop stop-color="#FEBBBA"/>
<stop offset="1" stop-color="#FF928E"/>
</linearGradient>
<linearGradient id="paint27_linear_290_6232" x1="130.171" y1="218.571" x2="132.212" y2="270.926" gradientUnits="userSpaceOnUse">
<stop stop-color="#4F52FF"/>
<stop offset="1" stop-color="#4042E2"/>
</linearGradient>
<linearGradient id="paint28_linear_290_6232" x1="123" y1="268.424" x2="129" y2="268.424" gradientUnits="userSpaceOnUse">
<stop stop-color="#FEBBBA"/>
<stop offset="1" stop-color="#FF928E"/>
</linearGradient>
<linearGradient id="paint29_linear_290_6232" x1="159.904" y1="216.172" x2="162.099" y2="269.747" gradientUnits="userSpaceOnUse">
<stop stop-color="#4F52FF"/>
<stop offset="1" stop-color="#4042E2"/>
</linearGradient>
<linearGradient id="paint30_linear_290_6232" x1="92" y1="242.835" x2="137.001" y2="242.835" gradientUnits="userSpaceOnUse">
<stop stop-color="#09005D"/>
<stop offset="1" stop-color="#1A0F91"/>
</linearGradient>
<linearGradient id="paint31_linear_290_6232" x1="150" y1="268.422" x2="156" y2="268.422" gradientUnits="userSpaceOnUse">
<stop stop-color="#FEBBBA"/>
<stop offset="1" stop-color="#FF928E"/>
</linearGradient>
<linearGradient id="paint32_linear_290_6232" x1="132.828" y1="223.503" x2="83.3258" y2="278.931" gradientUnits="userSpaceOnUse">
<stop stop-color="#09005D"/>
<stop offset="1" stop-color="#1A0F91"/>
</linearGradient>
<linearGradient id="paint33_linear_290_6232" x1="112.508" y1="173.349" x2="115.823" y2="164.718" gradientUnits="userSpaceOnUse">
<stop stop-color="#FEBBBA"/>
<stop offset="1" stop-color="#FF928E"/>
</linearGradient>
<linearGradient id="paint34_linear_290_6232" x1="202.114" y1="65.5947" x2="98.1197" y2="221.48" gradientUnits="userSpaceOnUse">
<stop stop-color="#4F52FF"/>
<stop offset="1" stop-color="#4042E2"/>
</linearGradient>
<linearGradient id="paint35_linear_290_6232" x1="114.593" y1="186.877" x2="181.858" y2="78.7959" gradientUnits="userSpaceOnUse">
<stop stop-color="#09005D"/>
<stop offset="1" stop-color="#1A0F91"/>
</linearGradient>
<linearGradient id="paint36_linear_290_6232" x1="141" y1="205.707" x2="156.002" y2="205.707" gradientUnits="userSpaceOnUse">
<stop stop-color="#FEBBBA"/>
<stop offset="1" stop-color="#FF928E"/>
</linearGradient>
<linearGradient id="paint37_linear_290_6232" x1="122.322" y1="156.337" x2="107.404" y2="171.141" gradientUnits="userSpaceOnUse">
<stop stop-color="#FEBBBA"/>
<stop offset="1" stop-color="#FF928E"/>
</linearGradient>
<linearGradient id="paint38_linear_290_6232" x1="109.759" y1="148.093" x2="126.708" y2="165.714" gradientUnits="userSpaceOnUse">
<stop stop-color="#09005D"/>
<stop offset="1" stop-color="#1A0F91"/>
</linearGradient>
<linearGradient id="paint39_linear_290_6232" x1="120.563" y1="153.813" x2="105.307" y2="169.023" gradientUnits="userSpaceOnUse">
<stop stop-color="#FEBBBA"/>
<stop offset="1" stop-color="#FF928E"/>
</linearGradient>
<linearGradient id="paint40_linear_290_6232" x1="-3204.17" y1="-3624.76" x2="-3145.04" y2="-3565.62" gradientUnits="userSpaceOnUse">
<stop stop-color="#09005D"/>
<stop offset="1" stop-color="#1A0F91"/>
</linearGradient>
<linearGradient id="paint41_linear_290_6232" x1="4864.66" y1="-1333.25" x2="4787.52" y2="-1307.89" gradientUnits="userSpaceOnUse">
<stop stop-color="#09005D"/>
<stop offset="1" stop-color="#1A0F91"/>
</linearGradient>
<linearGradient id="paint42_linear_290_6232" x1="197.857" y1="380.4" x2="239.97" y2="214.265" gradientUnits="userSpaceOnUse">
<stop stop-color="#FEBBBA"/>
<stop offset="1" stop-color="#FF928E"/>
</linearGradient>
<linearGradient id="paint43_linear_290_6232" x1="292.04" y1="178.534" x2="254.141" y2="244.678" gradientUnits="userSpaceOnUse">
<stop stop-color="#09005D"/>
<stop offset="1" stop-color="#1A0F91"/>
</linearGradient>
<linearGradient id="paint44_linear_290_6232" x1="217.015" y1="274.8" x2="225.218" y2="151.82" gradientUnits="userSpaceOnUse">
<stop stop-color="#FEBBBA"/>
<stop offset="1" stop-color="#FF928E"/>
</linearGradient>
<linearGradient id="paint45_linear_290_6232" x1="225" y1="220.261" x2="279.001" y2="220.261" gradientUnits="userSpaceOnUse">
<stop stop-color="#09005D"/>
<stop offset="1" stop-color="#1A0F91"/>
</linearGradient>
<linearGradient id="paint46_linear_290_6232" x1="270.365" y1="166.459" x2="233.218" y2="232.507" gradientUnits="userSpaceOnUse">
<stop stop-color="#09005D"/>
<stop offset="1" stop-color="#1A0F91"/>
</linearGradient>
<linearGradient id="paint47_linear_290_6232" x1="262.853" y1="128.046" x2="254.547" y2="170.726" gradientUnits="userSpaceOnUse">
<stop stop-color="#09005D"/>
<stop offset="1" stop-color="#1A0F91"/>
</linearGradient>
<linearGradient id="paint48_linear_290_6232" x1="224.868" y1="266.668" x2="255.813" y2="197.257" gradientUnits="userSpaceOnUse">
<stop stop-color="#4F52FF"/>
<stop offset="1" stop-color="#4042E2"/>
</linearGradient>
<linearGradient id="paint49_linear_290_6232" x1="249.513" y1="181.424" x2="246.129" y2="160.629" gradientUnits="userSpaceOnUse">
<stop stop-color="#FEBBBA"/>
<stop offset="1" stop-color="#FF928E"/>
</linearGradient>
<linearGradient id="paint50_linear_290_6232" x1="232.139" y1="159.165" x2="256.236" y2="151.082" gradientUnits="userSpaceOnUse">
<stop stop-color="#FEBBBA"/>
<stop offset="1" stop-color="#FF928E"/>
</linearGradient>
<linearGradient id="paint51_linear_290_6232" x1="226.852" y1="137.199" x2="255.357" y2="169.159" gradientUnits="userSpaceOnUse">
<stop stop-color="#09005D"/>
<stop offset="1" stop-color="#1A0F91"/>
</linearGradient>
<linearGradient id="paint52_linear_290_6232" x1="233.601" y1="157.248" x2="254.498" y2="151.515" gradientUnits="userSpaceOnUse">
<stop stop-color="#FEBBBA"/>
<stop offset="1" stop-color="#FF928E"/>
</linearGradient>
<linearGradient id="paint53_linear_290_6232" x1="263.674" y1="205.707" x2="309.679" y2="205.707" gradientUnits="userSpaceOnUse">
<stop stop-color="#FEBBBA"/>
<stop offset="1" stop-color="#FF928E"/>
</linearGradient>
<linearGradient id="paint54_linear_290_6232" x1="264.541" y1="201.899" x2="236.564" y2="211.787" gradientUnits="userSpaceOnUse">
<stop stop-color="#09005D"/>
<stop offset="1" stop-color="#1A0F91"/>
</linearGradient>
<linearGradient id="paint55_linear_290_6232" x1="225.393" y1="182.053" x2="204.511" y2="203.655" gradientUnits="userSpaceOnUse">
<stop stop-color="#09005D"/>
<stop offset="1" stop-color="#1A0F91"/>
</linearGradient>
<linearGradient id="paint56_linear_290_6232" x1="289.689" y1="309.329" x2="289.372" y2="342.235" gradientUnits="userSpaceOnUse">
<stop stop-color="#09005D"/>
<stop offset="1" stop-color="#1A0F91"/>
</linearGradient>
<linearGradient id="paint57_linear_290_6232" x1="296.774" y1="273.25" x2="298.518" y2="259.237" gradientUnits="userSpaceOnUse">
<stop stop-color="#FEBBBA"/>
<stop offset="1" stop-color="#FF928E"/>
</linearGradient>
<linearGradient id="paint58_linear_290_6232" x1="332.249" y1="308.382" x2="331.962" y2="339.365" gradientUnits="userSpaceOnUse">
<stop stop-color="#09005D"/>
<stop offset="1" stop-color="#1A0F91"/>
</linearGradient>
<linearGradient id="paint59_linear_290_6232" x1="333.033" y1="277.861" x2="334.775" y2="264.377" gradientUnits="userSpaceOnUse">
<stop stop-color="#FEBBBA"/>
<stop offset="1" stop-color="#FF928E"/>
</linearGradient>
<linearGradient id="paint60_linear_290_6232" x1="308.083" y1="174.461" x2="323.151" y2="247.735" gradientUnits="userSpaceOnUse">
<stop stop-color="#09005D"/>
<stop offset="1" stop-color="#1A0F91"/>
</linearGradient>
<linearGradient id="paint61_linear_290_6232" x1="332.761" y1="220.341" x2="330.825" y2="217.238" gradientUnits="userSpaceOnUse">
<stop stop-color="#4F52FF"/>
<stop offset="1" stop-color="#4042E2"/>
</linearGradient>
<linearGradient id="paint62_linear_290_6232" x1="304.429" y1="143.829" x2="336.531" y2="238.049" gradientUnits="userSpaceOnUse">
<stop stop-color="#4F52FF"/>
<stop offset="1" stop-color="#4042E2"/>
</linearGradient>
<linearGradient id="paint63_linear_290_6232" x1="321" y1="193.664" x2="298" y2="193.664" gradientUnits="userSpaceOnUse">
<stop stop-color="#FEBBBA"/>
<stop offset="1" stop-color="#FF928E"/>
</linearGradient>
<linearGradient id="paint64_linear_290_6232" x1="300" y1="164.566" x2="258" y2="164.566" gradientUnits="userSpaceOnUse">
<stop stop-color="#FEBBBA"/>
<stop offset="1" stop-color="#FF928E"/>
</linearGradient>
<linearGradient id="paint65_linear_290_6232" x1="315.727" y1="141.034" x2="300.761" y2="125.189" gradientUnits="userSpaceOnUse">
<stop stop-color="#FEBBBA"/>
<stop offset="1" stop-color="#FF928E"/>
</linearGradient>
<linearGradient id="paint66_linear_290_6232" x1="293.618" y1="115.729" x2="312.759" y2="140.307" gradientUnits="userSpaceOnUse">
<stop stop-color="#FEBBBA"/>
<stop offset="1" stop-color="#FF928E"/>
</linearGradient>
<linearGradient id="paint67_linear_290_6232" x1="322.013" y1="45.6397" x2="302.068" y2="102.596" gradientUnits="userSpaceOnUse">
<stop stop-color="#E1473D"/>
<stop offset="1" stop-color="#E9605A"/>
</linearGradient>
<linearGradient id="paint68_linear_290_6232" x1="322.421" y1="134.035" x2="309.07" y2="117.642" gradientUnits="userSpaceOnUse">
<stop stop-color="#FEBBBA"/>
<stop offset="1" stop-color="#FF928E"/>
</linearGradient>
<linearGradient id="paint69_linear_290_6232" x1="83.2116" y1="415.703" x2="137.189" y2="220.572" gradientUnits="userSpaceOnUse">
<stop stop-color="#4F52FF"/>
<stop offset="1" stop-color="#4042E2"/>
</linearGradient>
<linearGradient id="paint70_linear_290_6232" x1="85.9847" y1="416.49" x2="139.954" y2="221.374" gradientUnits="userSpaceOnUse">
<stop stop-color="#4F52FF"/>
<stop offset="1" stop-color="#4042E2"/>
</linearGradient>
<linearGradient id="paint71_linear_290_6232" x1="238.756" y1="458.604" x2="294.497" y2="264.554" gradientUnits="userSpaceOnUse">
<stop stop-color="#4F52FF"/>
<stop offset="1" stop-color="#4042E2"/>
</linearGradient>
<linearGradient id="paint72_linear_290_6232" x1="241.537" y1="459.387" x2="297.269" y2="265.351" gradientUnits="userSpaceOnUse">
<stop stop-color="#4F52FF"/>
<stop offset="1" stop-color="#4042E2"/>
</linearGradient>
<linearGradient id="paint73_linear_290_6232" x1="314.285" y1="138.994" x2="303.09" y2="180.389" gradientUnits="userSpaceOnUse">
<stop stop-color="#09005D"/>
<stop offset="1" stop-color="#1A0F91"/>
</linearGradient>
<linearGradient id="paint74_linear_290_6232" x1="151.56" y1="442.506" x2="209.796" y2="241.671" gradientUnits="userSpaceOnUse">
<stop stop-color="#4F52FF"/>
<stop offset="1" stop-color="#4042E2"/>
</linearGradient>
</defs>
</svg>
