<svg width="731" height="686" viewBox="0 0 731 686" fill="none" xmlns="http://www.w3.org/2000/svg">
<g clip-path="url(#clip0_201_25213)">
<path fill-rule="evenodd" clip-rule="evenodd" d="M262.896 632.998C179.121 618.865 72.2362 626.404 31.5477 551.823C-9.0371 477.433 57.7869 392.918 88.9194 314.104C114.653 248.958 139.123 185.135 193.725 141.26C259.669 88.2717 335.141 42.4509 419.526 48.45C520.552 55.6322 641.93 83.2102 682.5 176.009C722.386 267.245 636.793 359.342 594.941 449.692C563.737 517.057 538.849 590.558 473.853 626.44C409.826 661.786 335.014 645.164 262.896 632.998Z" fill="#E5EBFC"/>
<path d="M73.2606 570.746L623.968 566.058V579.931C623.968 583.695 621.566 586.898 618.313 587.468L462.589 614.784C460.746 615.109 458.868 615.196 457.003 615.041L79.2355 583.896C75.861 583.618 73.2499 580.407 73.2499 576.537L73.2606 570.746Z" fill="#26264F"/>
<path d="M273.111 548.516L618.274 573.894C624.449 574.346 629.471 569.522 629.471 563.113V306.394C629.471 299.987 624.449 294.793 618.274 294.793H273.111C268.022 294.793 263.908 299.488 263.908 305.281V537.35C263.908 543.143 268.022 548.141 273.111 548.516Z" fill="#26264F"/>
<path d="M267.606 548.516L612.769 573.894C618.947 574.346 623.968 569.522 623.968 563.113V306.394C623.968 299.987 618.947 294.793 612.769 294.793H267.606C262.517 294.793 258.403 299.488 258.403 305.281V537.35C258.403 543.143 262.517 548.141 267.606 548.516Z" fill="url(#paint0_linear_201_25213)"/>
<path d="M278.359 532.153L599.849 554.197C604.875 554.542 608.961 550.581 608.961 545.35V320.595C608.961 315.364 604.864 311.106 599.849 311.085L278.359 309.7C274.163 309.681 270.767 313.529 270.767 318.295V523.009C270.767 527.769 274.163 531.86 278.359 532.153Z" fill="url(#paint1_linear_201_25213)"/>
<path d="M427.997 301.814C427.997 304.2 429.774 306.138 431.969 306.147C434.164 306.155 435.947 304.221 435.947 301.829C435.947 299.436 434.164 297.5 431.969 297.498C429.774 297.496 427.997 299.43 427.997 301.814Z" fill="white"/>
<g style="mix-blend-mode:soft-light" opacity="0.48">
<path d="M612.771 573.894L269.355 548.643L267.606 548.516C265.273 548.344 263.149 547.192 261.528 545.443C286.24 544.09 301.59 535.321 311.491 526.276C331.376 508.102 327.926 490.178 349.369 478.228C376.106 463.321 397.144 482.21 417.441 463.573C429.744 452.275 423.694 443.85 438.843 426.962C455.612 408.262 466.529 414.549 483.382 397.719C504.689 376.437 494.033 359.883 512.387 344.603C534.654 326.069 558.668 343.223 579.865 325.449C589.008 317.782 594.023 306.635 596.643 294.782H612.769C618.947 294.782 623.968 299.977 623.968 306.384V563.113C623.968 569.522 618.947 574.346 612.771 573.894Z" fill="white"/>
</g>
<path d="M253.849 547.108L623.968 573.813L462.589 602.121C460.746 602.444 458.868 602.53 457.003 602.378L73.2607 570.737L247.963 547.281C249.914 547.021 251.887 546.963 253.849 547.108Z" fill="url(#paint2_linear_201_25213)"/>
<path d="M569.961 574.05L261.827 551.48L166.462 564.182L471.942 588.308L569.961 574.05Z" fill="#26264F"/>
<g opacity="0.67">
<path d="M489.287 407.672C482.722 394.925 470.455 385.652 456.123 383.552L455.124 321.773C496.079 323.812 531.652 350.314 547.675 387.588L489.287 407.672Z" fill="white"/>
<path d="M409.423 433.011C412.873 453.557 430.137 469.911 451.124 470.936C457.111 471.244 463.093 470.232 468.645 467.973L500.805 522.673C485.912 529.976 468.971 533.551 451.124 532.397C398.456 528.99 356.234 485.492 351.507 433.173L409.423 433.011Z" fill="white"/>
<path d="M510.784 517.046L478.463 462.248C488.166 454.569 494.399 442.493 494.399 428.652C494.399 425.37 494.045 422.097 493.343 418.89L551.853 398.985C555.02 409.367 556.629 420.16 556.627 431.013C556.627 467.753 538.373 499.221 510.784 517.046Z" fill="white"/>
</g>
<path d="M444.727 383.453C425.571 385.902 410.739 401.543 408.973 421.429L313.511 421.998C313.511 421.955 313.511 421.91 313.511 421.867C313.511 346.578 369.76 285.115 443.076 280.917L444.727 383.453Z" fill="#8D9EDC"/>
<path d="M628.979 109.976V265.143C628.979 270.294 624.714 274.47 619.457 274.47H299.757C298.554 274.471 297.363 274.235 296.251 273.775C295.14 273.316 294.13 272.643 293.279 271.794C292.429 270.944 291.754 269.936 291.293 268.827C290.832 267.717 290.595 266.527 290.595 265.326V113.183L628.979 109.976Z" fill="#EBEFF2"/>
<path d="M299.757 93.7728L619.457 90.3787C624.714 90.3227 628.979 94.4533 628.979 99.6046V115.504L290.591 118.614V103.016C290.595 100.581 291.559 98.2459 293.275 96.516C294.99 94.786 297.319 93.8005 299.757 93.7728Z" fill="#D8DEE8"/>
<path d="M550.906 192.889L533.287 132.537C506.626 141.207 487.36 165.894 487.207 194.904L550.906 192.889Z" fill="#D8DEE8"/>
<path d="M504.999 197.49C505.989 211.287 512.727 223.507 522.878 231.845L550.531 195.999L504.999 197.49Z" fill="white"/>
<path d="M554.836 190.81C565.505 180.712 578.371 168.508 588.6 158.761C579.142 149.998 566.681 145.191 553.781 145.327C549.785 145.354 545.804 145.848 541.922 146.798L554.836 190.81Z" fill="white"/>
<path d="M557.07 194.586L595.758 222.352C601.987 213.265 604.966 202.347 604.215 191.361C603.464 180.375 599.026 169.962 591.619 161.806C588.785 164.502 585.641 167.493 582.185 170.778C571.73 180.708 561.227 190.653 557.07 194.586Z" fill="white"/>
<path d="M555.949 199.053L556.697 244.358C563.737 243.96 570.616 242.103 576.899 238.905C583.181 235.708 588.729 231.24 593.189 225.786L555.949 199.053Z" fill="white"/>
<path d="M551.662 200.987L524.971 235.576C533.051 241.124 542.575 244.201 552.378 244.429L551.662 200.987Z" fill="white"/>
<path d="M314.353 162.426L478.185 161.345V145.999L314.353 147.226V162.426Z" fill="white"/>
<path d="M314.353 189.932L478.185 189.118V173.769L314.353 174.732V189.932Z" fill="white"/>
<path d="M314.353 217.437L478.185 216.887V201.541L314.353 202.237V217.437Z" fill="white"/>
<path d="M314.353 244.942L478.185 244.658V229.311L314.353 229.742V244.942Z" fill="white"/>
<path d="M607.119 102.928C607.125 103.474 607.239 104.015 607.455 104.517C607.67 105.02 607.984 105.474 608.377 105.855C608.77 106.235 609.235 106.534 609.744 106.734C610.254 106.934 610.798 107.031 611.346 107.019C612.459 107.016 613.527 106.575 614.317 105.792C615.108 105.009 615.559 103.947 615.572 102.835C615.566 102.288 615.453 101.748 615.237 101.245C615.021 100.743 614.707 100.288 614.314 99.9076C613.921 99.527 613.456 99.2281 612.947 99.0282C612.437 98.8283 611.893 98.7314 611.346 98.7431C610.232 98.7459 609.164 99.1865 608.373 99.9696C607.582 100.753 607.132 101.815 607.119 102.928Z" fill="white"/>
<path d="M206.711 312.401L218.628 330.596L159.076 369.504L147.159 351.308L206.711 312.401Z" fill="white"/>
<path d="M208.072 342.2C195.642 342.2 185.566 332.135 185.566 319.721C185.566 307.306 195.642 297.242 208.072 297.242C220.502 297.242 230.579 307.306 230.579 319.721C230.579 332.135 220.502 342.2 208.072 342.2Z" fill="url(#paint3_linear_201_25213)"/>
<path d="M208.072 342.2C195.642 342.2 185.566 332.135 185.566 319.721C185.566 307.306 195.642 297.242 208.072 297.242C220.502 297.242 230.579 307.306 230.579 319.721C230.579 332.135 220.502 342.2 208.072 342.2Z" fill="url(#paint4_radial_201_25213)"/>
<path d="M208.072 342.2C195.642 342.2 185.566 332.135 185.566 319.721C185.566 307.306 195.642 297.242 208.072 297.242C220.502 297.242 230.579 307.306 230.579 319.721C230.579 332.135 220.502 342.2 208.072 342.2Z" fill="url(#paint5_radial_201_25213)"/>
<path d="M208.072 342.2C195.642 342.2 185.566 332.135 185.566 319.721C185.566 307.306 195.642 297.242 208.072 297.242C220.502 297.242 230.579 307.306 230.579 319.721C230.579 332.135 220.502 342.2 208.072 342.2Z" fill="url(#paint6_radial_201_25213)"/>
<path d="M149.18 358.262C146.835 348.341 152.987 338.399 162.921 336.058C172.855 333.716 182.808 339.861 185.153 349.782C187.498 359.704 181.345 369.645 171.412 371.987C161.478 374.329 151.524 368.184 149.18 358.262Z" fill="url(#paint7_linear_201_25213)"/>
<path d="M163.949 224.503C150.17 217.066 147.461 195.359 157.9 176.019C168.338 156.678 187.971 147.029 201.75 154.466C215.53 161.903 218.238 183.611 207.799 202.951C197.361 222.291 177.729 231.941 163.949 224.503Z" fill="url(#paint8_linear_201_25213)"/>
<path d="M163.949 224.503C150.17 217.066 147.461 195.359 157.9 176.019C168.338 156.678 187.971 147.029 201.75 154.466C215.53 161.903 218.238 183.611 207.799 202.951C197.361 222.291 177.729 231.941 163.949 224.503Z" fill="url(#paint9_radial_201_25213)"/>
<path d="M163.949 224.503C150.17 217.066 147.461 195.359 157.9 176.019C168.338 156.678 187.971 147.029 201.75 154.466C215.53 161.903 218.238 183.611 207.799 202.951C197.361 222.291 177.729 231.941 163.949 224.503Z" fill="url(#paint10_radial_201_25213)"/>
<path d="M254.692 129.225H308.061C362.777 129.225 407.13 173.524 407.13 228.173C407.13 257.332 383.463 280.972 354.266 280.972H281.381H208.496C179.301 280.972 155.632 257.332 155.632 228.173C155.632 173.526 199.987 129.225 254.692 129.225Z" fill="url(#paint11_radial_201_25213)"/>
<path d="M264.072 389.167H298.679C334.176 389.167 362.953 360.427 362.953 324.973C362.953 315.888 359.34 307.175 352.908 300.751C346.476 294.327 337.753 290.719 328.657 290.719H234.083C224.989 290.721 216.269 294.332 209.84 300.755C203.41 307.179 199.799 315.89 199.8 324.973C199.8 360.436 228.574 389.167 264.072 389.167Z" fill="url(#paint12_radial_201_25213)"/>
<path d="M257.159 174.899L257.063 174.923L256.966 174.908L206.154 167.309C200.224 167.606 194.826 171.359 190.888 177.302C186.942 183.257 184.499 191.367 184.499 200.217V227.627C184.499 236.481 186.942 244.472 190.884 250.237C194.827 256.003 200.235 259.5 206.179 259.5H307.902C314.592 259.5 320.73 255.716 325.214 249.505C329.698 243.295 332.499 234.691 332.499 225.167V195.669C332.499 186.144 329.698 177.679 325.219 171.687C320.752 165.711 314.642 162.222 307.973 162.517L257.159 174.899Z" fill="#1D3089" stroke="url(#paint13_linear_201_25213)"/>
<path d="M259.159 174.899L259.063 174.923L258.966 174.908L208.154 167.309C202.224 167.606 196.826 171.359 192.888 177.302C188.942 183.257 186.499 191.367 186.499 200.217V227.627C186.499 236.481 188.942 244.472 192.884 250.237C196.827 256.003 202.235 259.5 208.179 259.5H309.902C316.592 259.5 322.73 255.716 327.214 249.505C331.698 243.295 334.499 234.691 334.499 225.167V195.669C334.499 186.144 331.698 177.679 327.219 171.687C322.752 165.711 316.642 162.222 309.973 162.517L259.159 174.899Z" fill="url(#paint14_linear_201_25213)" stroke="url(#paint15_linear_201_25213)"/>
<path d="M263.999 229.895C263.999 240.029 272.399 248.134 282.846 247.998C293.386 247.862 301.999 239.399 301.999 229.102C301.999 218.805 293.386 210.703 282.846 211.008C272.399 211.307 263.999 219.764 263.999 229.895Z" fill="white"/>
<path d="M212.999 231.861C212.999 241.45 220.96 249.111 230.859 248.998C240.842 248.872 248.999 240.866 248.999 231.136C248.999 221.407 240.842 213.728 230.859 214.007C220.96 214.28 212.999 222.275 212.999 231.861Z" fill="white"/>
<g style="mix-blend-mode:soft-light" opacity="0.3">
<path d="M244.571 267.092C259.665 249.39 252.954 235.232 272.675 211.243C299.811 178.244 331.466 181.97 338.718 159.581C340.727 153.377 340.958 144.864 335.57 133.093C376.9 145 407.13 183.055 407.13 228.173C407.13 257.332 383.463 280.972 354.266 280.972H227.229C234.838 276.828 240.399 271.989 244.571 267.092Z" fill="white"/>
</g>
<g filter="url(#filter0_d_201_25213)">
<path d="M395.396 225.225C381.105 231.623 362.239 220.549 353.259 200.49C344.279 180.431 348.584 158.983 362.876 152.585C377.167 146.187 396.033 157.261 405.013 177.32C413.993 197.379 409.688 218.827 395.396 225.225Z" fill="url(#paint16_radial_201_25213)"/>
<path d="M395.396 225.225C381.105 231.623 362.239 220.549 353.259 200.49C344.279 180.431 348.584 158.983 362.876 152.585C377.167 146.187 396.033 157.261 405.013 177.32C413.993 197.379 409.688 218.827 395.396 225.225Z" fill="url(#paint17_radial_201_25213)"/>
</g>
<g filter="url(#filter1_d_201_25213)">
<path d="M406.717 195.622C400.467 198.42 392.218 193.578 388.291 184.807C384.364 176.035 386.247 166.656 392.496 163.859C398.746 161.061 406.996 165.903 410.923 174.674C414.849 183.446 412.966 192.824 406.717 195.622Z" fill="url(#paint18_radial_201_25213)"/>
</g>
<path style="mix-blend-mode:multiply" opacity="0.4" d="M255.555 353.827C260.298 331.55 312.841 332.076 314.268 317.524C315.37 306.3 285.207 295.185 281.416 293.79C278.182 292.594 274.948 291.584 271.771 290.719H328.667C337.763 290.719 346.487 294.327 352.919 300.751C359.35 307.175 362.964 315.888 362.964 324.973C362.964 360.427 334.187 389.167 298.69 389.167H264.072C260.797 389.168 257.526 388.921 254.289 388.428C257.308 384.698 259.265 380.619 259.74 376.168C260.792 366.298 253.705 362.46 255.555 353.827Z" fill="url(#paint19_linear_201_25213)"/>
<path d="M226.352 293.626C226.352 293.79 226.504 294.107 227.217 294.528C227.891 294.927 228.918 295.328 230.286 295.719C233.015 296.499 236.988 297.208 241.926 297.805C251.795 298.998 265.442 299.738 280.527 299.738C295.612 299.738 309.259 298.998 319.128 297.805C324.066 297.208 328.039 296.499 330.768 295.719C332.136 295.328 333.163 294.927 333.837 294.528C334.55 294.107 334.702 293.79 334.702 293.626C334.702 293.462 334.55 293.146 333.837 292.724C333.163 292.326 332.136 291.925 330.768 291.534C328.039 290.753 324.066 290.045 319.128 289.448C309.259 288.254 295.612 287.515 280.527 287.515C265.442 287.515 251.795 288.254 241.926 289.448C236.988 290.045 233.015 290.753 230.286 291.534C228.918 291.925 227.891 292.326 227.217 292.724C226.504 293.146 226.352 293.462 226.352 293.626Z" fill="url(#paint20_radial_201_25213)" stroke="url(#paint21_radial_201_25213)"/>
<path d="M350.701 312.395L362.618 330.59L303.066 369.498L291.149 351.302L350.701 312.395Z" fill="white"/>
<path d="M352.051 342.2C339.621 342.2 329.544 332.135 329.544 319.721C329.544 307.306 339.621 297.242 352.051 297.242C364.481 297.242 374.557 307.306 374.557 319.721C374.557 332.135 364.481 342.2 352.051 342.2Z" fill="url(#paint22_radial_201_25213)"/>
<path d="M352.051 342.2C339.621 342.2 329.544 332.135 329.544 319.721C329.544 307.306 339.621 297.242 352.051 297.242C364.481 297.242 374.557 307.306 374.557 319.721C374.557 332.135 364.481 342.2 352.051 342.2Z" fill="url(#paint23_radial_201_25213)"/>
<path d="M352.051 342.2C339.621 342.2 329.544 332.135 329.544 319.721C329.544 307.306 339.621 297.242 352.051 297.242C364.481 297.242 374.557 307.306 374.557 319.721C374.557 332.135 364.481 342.2 352.051 342.2Z" fill="url(#paint24_radial_201_25213)"/>
<path d="M300.641 347.905H248.51L250.58 369.449L301.676 367.741L300.641 347.905Z" fill="white"/>
<path d="M298.054 367.098C290.837 359.89 290.837 348.203 298.054 340.994C305.271 333.786 316.972 333.786 324.19 340.994C331.407 348.203 331.407 359.89 324.19 367.098C316.972 374.307 305.271 374.307 298.054 367.098Z" fill="url(#paint25_linear_201_25213)"/>
<path d="M298.054 367.098C290.837 359.89 290.837 348.203 298.054 340.994C305.271 333.786 316.972 333.786 324.19 340.994C331.407 348.203 331.407 359.89 324.19 367.098C316.972 374.307 305.271 374.307 298.054 367.098Z" fill="url(#paint26_radial_201_25213)"/>
<path d="M298.054 367.098C290.837 359.89 290.837 348.203 298.054 340.994C305.271 333.786 316.972 333.786 324.19 340.994C331.407 348.203 331.407 359.89 324.19 367.098C316.972 374.307 305.271 374.307 298.054 367.098Z" fill="url(#paint27_radial_201_25213)"/>
<path d="M298.054 367.098C290.837 359.89 290.837 348.203 298.054 340.994C305.271 333.786 316.972 333.786 324.19 340.994C331.407 348.203 331.407 359.89 324.19 367.098C316.972 374.307 305.271 374.307 298.054 367.098Z" fill="url(#paint28_radial_201_25213)"/>
<path d="M243.965 347.299C247.124 345.533 251.585 344.284 257.862 344.519C259.305 344.571 260.683 345.136 261.746 346.113C262.809 347.09 263.487 348.414 263.658 349.847L265.473 365.26H238.579L237.701 361.58C237.046 358.843 237.303 355.967 238.434 353.39C239.564 350.812 241.507 348.674 243.965 347.299Z" fill="url(#paint29_linear_201_25213)"/>
<path d="M243.965 347.299C247.124 345.533 251.585 344.284 257.862 344.519C259.305 344.571 260.683 345.136 261.746 346.113C262.809 347.09 263.487 348.414 263.658 349.847L265.473 365.26H238.579L237.701 361.58C237.046 358.843 237.303 355.967 238.434 353.39C239.564 350.812 241.507 348.674 243.965 347.299Z" fill="url(#paint30_radial_201_25213)"/>
<path d="M243.965 347.299C247.124 345.533 251.585 344.284 257.862 344.519C259.305 344.571 260.683 345.136 261.746 346.113C262.809 347.09 263.487 348.414 263.658 349.847L265.473 365.26H238.579L237.701 361.58C237.046 358.843 237.303 355.967 238.434 353.39C239.564 350.812 241.507 348.674 243.965 347.299Z" fill="url(#paint31_radial_201_25213)"/>
<path d="M243.965 347.299C247.124 345.533 251.585 344.284 257.862 344.519C259.305 344.571 260.683 345.136 261.746 346.113C262.809 347.09 263.487 348.414 263.658 349.847L265.473 365.26H238.579L237.701 361.58C237.046 358.843 237.303 355.967 238.434 353.39C239.564 350.812 241.507 348.674 243.965 347.299Z" fill="url(#paint32_radial_201_25213)"/>
<path d="M196.475 365.626L293.489 363.953C294.147 363.941 294.797 364.089 295.385 364.384C295.973 364.679 296.48 365.112 296.864 365.646L299.822 369.759C300.156 370.223 300.357 370.768 300.404 371.338C300.451 371.907 300.342 372.478 300.088 372.99C299.834 373.502 299.445 373.935 298.963 374.242C298.481 374.55 297.925 374.721 297.353 374.736L194.666 377.589L196.475 365.626Z" fill="#FF9E3F"/>
<path d="M92.3472 318.472L192.378 313.82C193.833 313.753 195.28 314.065 196.578 314.724C197.876 315.384 198.98 316.368 199.782 317.582L238.396 376.097L132.606 378.851C131.176 378.889 129.76 378.57 128.485 377.924C127.21 377.277 126.116 376.324 125.303 375.149L89.7252 323.78C89.3811 323.284 89.1761 322.704 89.1316 322.102C89.0871 321.5 89.2048 320.897 89.4722 320.355C89.7397 319.814 90.1473 319.354 90.6528 319.022C91.1583 318.691 91.7433 318.501 92.3472 318.472Z" fill="#FF9E3F"/>
<g style="mix-blend-mode:overlay" opacity="0.3">
<path d="M199.782 317.58C198.98 316.366 197.876 315.381 196.578 314.722C195.28 314.062 193.833 313.751 192.378 313.818L190.187 313.919C190.073 317.162 189.277 320.164 187.462 322.682C181.793 330.517 171.256 326.61 164.147 334.972C156.337 344.157 164.757 353.924 157.797 362.454C150.466 371.432 137.261 365.387 122.961 371.764L125.303 375.147C126.116 376.322 127.21 377.275 128.485 377.921C129.76 378.568 131.176 378.887 132.606 378.849L238.396 376.095L199.782 317.58Z" fill="white"/>
</g>
<path opacity="0.68" d="M326.895 442.591V572.032C326.895 576.339 323.678 579.645 319.719 579.436L91.8797 567.488C88.4664 567.309 85.7043 563.939 85.7043 559.961V440.119L326.895 442.591Z" fill="white"/>
<path d="M91.8797 424.946L319.719 426.12C323.678 426.142 326.895 429.641 326.895 433.938V447.201L85.7043 444.402V432.126C85.7043 428.14 88.4664 424.929 91.8797 424.946Z" fill="#FF9E3F"/>
<path d="M310.458 436.401C310.458 438.301 311.875 439.847 313.626 439.873C315.377 439.899 316.798 438.365 316.798 436.453C316.798 434.541 315.377 432.994 313.626 432.982C311.875 432.969 310.458 434.5 310.458 436.401Z" fill="white"/>
<path d="M277.703 560.482L295.63 561.329V465.114L277.703 464.803V560.482Z" fill="white"/>
<path d="M277.703 560.482L295.63 561.329V515.647L277.703 515.057V560.482Z" fill="#FF9E3F"/>
<path d="M253.088 559.319L270.741 560.153V464.683L253.088 464.377V559.319Z" fill="white"/>
<path d="M253.088 559.319L270.741 560.153V537.49L253.088 536.782V559.319Z" fill="#FF9E3F"/>
<path d="M228.85 558.176L246.233 558.996V464.259L228.85 463.957V558.176Z" fill="white"/>
<path d="M228.85 558.176L246.233 558.996V547.19L228.85 546.434V558.176Z" fill="#FF9E3F"/>
<path d="M204.979 557.05L222.101 557.857V463.841L204.979 463.544V557.05Z" fill="white"/>
<path d="M204.979 557.05L222.101 557.858V484.205L204.979 483.798V557.05Z" fill="#FF9E3F"/>
<path d="M181.468 555.938L198.332 556.735V463.43L181.468 463.137V555.938Z" fill="white"/>
<path d="M181.468 555.938L198.332 556.735V491.947L181.468 491.501V555.938Z" fill="#FF9E3F"/>
<path d="M158.306 554.846L174.92 555.63V463.022L158.306 462.736V554.846Z" fill="white"/>
<path d="M158.306 554.846L174.92 555.63V476.489L158.306 476.129V554.846Z" fill="#FF9E3F"/>
<path d="M135.49 553.768L151.855 554.541V462.624L135.49 462.34V553.768Z" fill="white"/>
<path d="M135.49 553.767L151.855 554.54V498.08L135.49 497.609V553.767Z" fill="#FF9E3F"/>
<path d="M113.007 552.708L129.131 553.468V462.23L113.007 461.952V552.708Z" fill="white"/>
<path d="M113.007 552.708L129.131 553.468V521.791L113.007 521.199V552.708Z" fill="#FF9E3F"/>
</g>
<defs>
<filter id="filter0_d_201_25213" x="347.57" y="150.772" width="62.1313" height="77.2662" filterUnits="userSpaceOnUse" color-interpolation-filters="sRGB">
<feFlood flood-opacity="0" result="BackgroundImageFix"/>
<feColorMatrix in="SourceAlpha" type="matrix" values="0 0 0 0 0 0 0 0 0 0 0 0 0 0 0 0 0 0 127 0" result="hardAlpha"/>
<feOffset dx="-1" dy="1"/>
<feComposite in2="hardAlpha" operator="out"/>
<feColorMatrix type="matrix" values="0 0 0 0 0.101562 0 0 0 0 0.187799 0 0 0 0 0.541667 0 0 0 1 0"/>
<feBlend mode="normal" in2="BackgroundImageFix" result="effect1_dropShadow_201_25213"/>
<feBlend mode="normal" in="SourceGraphic" in2="effect1_dropShadow_201_25213" result="shape"/>
</filter>
<filter id="filter1_d_201_25213" x="385.24" y="163.066" width="27.7322" height="34.3496" filterUnits="userSpaceOnUse" color-interpolation-filters="sRGB">
<feFlood flood-opacity="0" result="BackgroundImageFix"/>
<feColorMatrix in="SourceAlpha" type="matrix" values="0 0 0 0 0 0 0 0 0 0 0 0 0 0 0 0 0 0 127 0" result="hardAlpha"/>
<feOffset dx="-1" dy="1"/>
<feComposite in2="hardAlpha" operator="out"/>
<feColorMatrix type="matrix" values="0 0 0 0 0.101562 0 0 0 0 0.187799 0 0 0 0 0.541667 0 0 0 1 0"/>
<feBlend mode="normal" in2="BackgroundImageFix" result="effect1_dropShadow_201_25213"/>
<feBlend mode="normal" in="SourceGraphic" in2="effect1_dropShadow_201_25213" result="shape"/>
</filter>
<linearGradient id="paint0_linear_201_25213" x1="623.968" y1="434.357" x2="258.403" y2="434.357" gradientUnits="userSpaceOnUse">
<stop stop-color="#444B8C"/>
<stop offset="1" stop-color="#26264F"/>
</linearGradient>
<linearGradient id="paint1_linear_201_25213" x1="608.955" y1="431.958" x2="270.767" y2="431.958" gradientUnits="userSpaceOnUse">
<stop stop-color="#AA80F9"/>
<stop offset="1" stop-color="#6165D7"/>
</linearGradient>
<linearGradient id="paint2_linear_201_25213" x1="623.968" y1="574.747" x2="73.2607" y2="574.747" gradientUnits="userSpaceOnUse">
<stop stop-color="#444B8C"/>
<stop offset="1" stop-color="#26264F"/>
</linearGradient>
<linearGradient id="paint3_linear_201_25213" x1="230.579" y1="319.721" x2="185.566" y2="319.721" gradientUnits="userSpaceOnUse">
<stop stop-color="#40447E"/>
<stop offset="1" stop-color="#3C3B6B"/>
</linearGradient>
<radialGradient id="paint4_radial_201_25213" cx="0" cy="0" r="1" gradientUnits="userSpaceOnUse" gradientTransform="translate(200.52 311) rotate(51.4831) scale(31.3129 31.2747)">
<stop stop-color="#676CB5"/>
<stop offset="1" stop-color="#3C3B6B"/>
</radialGradient>
<radialGradient id="paint5_radial_201_25213" cx="0" cy="0" r="1" gradientUnits="userSpaceOnUse" gradientTransform="translate(209.186 310.85) rotate(122.873) scale(30.2492 22.6062)">
<stop stop-color="#FFE2C6"/>
<stop offset="0.234375" stop-color="#FFC48A"/>
<stop offset="1" stop-color="#D7771A"/>
</radialGradient>
<radialGradient id="paint6_radial_201_25213" cx="0" cy="0" r="1" gradientUnits="userSpaceOnUse" gradientTransform="translate(211.332 308.13) rotate(112.772) scale(48.3652 56.4598)">
<stop stop-color="#7EC4EB"/>
<stop offset="0.456926" stop-color="#3353E6"/>
<stop offset="0.657245" stop-color="#2840AD"/>
<stop offset="0.788806" stop-color="#132A92"/>
</radialGradient>
<linearGradient id="paint7_linear_201_25213" x1="185.666" y1="354.049" x2="148.704" y2="354.049" gradientUnits="userSpaceOnUse">
<stop stop-color="#40447E"/>
<stop offset="1" stop-color="#3C3B6B"/>
</linearGradient>
<linearGradient id="paint8_linear_201_25213" x1="207.799" y1="202.951" x2="157.9" y2="176.019" gradientUnits="userSpaceOnUse">
<stop stop-color="#FFC444"/>
<stop offset="1" stop-color="#F36F56"/>
</linearGradient>
<radialGradient id="paint9_radial_201_25213" cx="0" cy="0" r="1" gradientUnits="userSpaceOnUse" gradientTransform="translate(191.542 176.332) rotate(143.053) scale(49.5025 30.8054)">
<stop stop-color="#FFE2C6"/>
<stop offset="0.234375" stop-color="#FFC48A"/>
<stop offset="1" stop-color="#D7771A"/>
</radialGradient>
<radialGradient id="paint10_radial_201_25213" cx="0" cy="0" r="1" gradientUnits="userSpaceOnUse" gradientTransform="translate(196.209 173.379) rotate(134.988) scale(82.3924 73.9091)">
<stop stop-color="#7EC4EB"/>
<stop offset="0.456926" stop-color="#3353E6"/>
<stop offset="0.657245" stop-color="#2840AD"/>
<stop offset="0.788806" stop-color="#132A92"/>
</radialGradient>
<radialGradient id="paint11_radial_201_25213" cx="0" cy="0" r="1" gradientUnits="userSpaceOnUse" gradientTransform="translate(295 200.5) rotate(130.764) scale(153.154 146.173)">
<stop stop-color="#7EC4EB"/>
<stop offset="0.536458" stop-color="#3353E6"/>
<stop offset="0.779468" stop-color="#2840AD"/>
<stop offset="1" stop-color="#132A92"/>
</radialGradient>
<radialGradient id="paint12_radial_201_25213" cx="0" cy="0" r="1" gradientUnits="userSpaceOnUse" gradientTransform="translate(269.5 328.5) rotate(117.812) scale(94.6502 90.3357)">
<stop stop-color="#0096EB"/>
<stop offset="0.536458" stop-color="#3353E6"/>
<stop offset="0.779468" stop-color="#2840AD"/>
<stop offset="1" stop-color="#132A92"/>
</radialGradient>
<linearGradient id="paint13_linear_201_25213" x1="184" y1="215.5" x2="330" y2="218" gradientUnits="userSpaceOnUse">
<stop stop-color="#4C76ED"/>
<stop offset="1" stop-color="#4369EC"/>
</linearGradient>
<linearGradient id="paint14_linear_201_25213" x1="334.999" y1="211" x2="185.999" y2="211" gradientUnits="userSpaceOnUse">
<stop stop-color="#444B8C"/>
<stop offset="1" stop-color="#26264F"/>
</linearGradient>
<linearGradient id="paint15_linear_201_25213" x1="320" y1="239.5" x2="262" y2="184.5" gradientUnits="userSpaceOnUse">
<stop stop-color="#7798FB"/>
<stop offset="0.938288" stop-color="#466FED" stop-opacity="0"/>
</linearGradient>
<radialGradient id="paint16_radial_201_25213" cx="0" cy="0" r="1" gradientUnits="userSpaceOnUse" gradientTransform="translate(374 174) rotate(90.5787) scale(49.5025 30.8054)">
<stop stop-color="#FFE2C6"/>
<stop offset="0.234375" stop-color="#FFC48A"/>
<stop offset="1" stop-color="#D7771A"/>
</radialGradient>
<radialGradient id="paint17_radial_201_25213" cx="0" cy="0" r="1" gradientUnits="userSpaceOnUse" gradientTransform="translate(374.5 168.5) rotate(82.5138) scale(82.3924 73.9091)">
<stop stop-color="#7EC4EB"/>
<stop offset="0.456926" stop-color="#3353E6"/>
<stop offset="0.657245" stop-color="#2840AD"/>
<stop offset="0.788806" stop-color="#132A92"/>
</radialGradient>
<radialGradient id="paint18_radial_201_25213" cx="0" cy="0" r="1" gradientUnits="userSpaceOnUse" gradientTransform="translate(397.5 173.5) rotate(101.482) scale(32.6535 23.5732)">
<stop stop-color="#7EC4EB"/>
<stop offset="0.536458" stop-color="#3353E6"/>
<stop offset="0.779468" stop-color="#2840AD"/>
<stop offset="1" stop-color="#132A92"/>
</radialGradient>
<linearGradient id="paint19_linear_201_25213" x1="362.964" y1="339.943" x2="254.289" y2="339.943" gradientUnits="userSpaceOnUse">
<stop stop-color="#FCB148"/>
<stop offset="0.05" stop-color="#FDBA46"/>
<stop offset="0.14" stop-color="#FFC244"/>
<stop offset="0.32" stop-color="#FFC444"/>
<stop offset="0.48" stop-color="#FDB946"/>
<stop offset="0.78" stop-color="#F99C4D"/>
<stop offset="0.87" stop-color="#F8924F"/>
<stop offset="1" stop-color="#F8924F"/>
</linearGradient>
<radialGradient id="paint20_radial_201_25213" cx="0" cy="0" r="1" gradientUnits="userSpaceOnUse" gradientTransform="translate(280.999 303) rotate(-90) scale(14.5 119.911)">
<stop offset="1" stop-color="#1A2B6D"/>
</radialGradient>
<radialGradient id="paint21_radial_201_25213" cx="0" cy="0" r="1" gradientUnits="userSpaceOnUse" gradientTransform="translate(281 298.5) rotate(90) scale(28 57.5733)">
<stop offset="0.0235545" stop-color="#82A5FC"/>
<stop offset="1" stop-color="#295FE6" stop-opacity="0"/>
</radialGradient>
<radialGradient id="paint22_radial_201_25213" cx="0" cy="0" r="1" gradientUnits="userSpaceOnUse" gradientTransform="translate(344.499 311) rotate(51.4831) scale(31.3129 31.2747)">
<stop stop-color="#676CB5"/>
<stop offset="1" stop-color="#3C3B6B"/>
</radialGradient>
<radialGradient id="paint23_radial_201_25213" cx="0" cy="0" r="1" gradientUnits="userSpaceOnUse" gradientTransform="translate(349 311.5) rotate(64.4861) scale(24.3772 22.846)">
<stop stop-color="#FFE2C6"/>
<stop offset="0.210351" stop-color="#FFC48A"/>
<stop offset="1" stop-color="#D7771A"/>
</radialGradient>
<radialGradient id="paint24_radial_201_25213" cx="0" cy="0" r="1" gradientUnits="userSpaceOnUse" gradientTransform="translate(355.311 308.13) rotate(112.772) scale(48.3652 56.4598)">
<stop stop-color="#7EC4EB"/>
<stop offset="0.456926" stop-color="#3353E6"/>
<stop offset="0.657245" stop-color="#2840AD"/>
<stop offset="0.788806" stop-color="#132A92"/>
</radialGradient>
<linearGradient id="paint25_linear_201_25213" x1="329.602" y1="354.046" x2="292.643" y2="354.046" gradientUnits="userSpaceOnUse">
<stop stop-color="#40447E"/>
<stop offset="1" stop-color="#3C3B6B"/>
</linearGradient>
<radialGradient id="paint26_radial_201_25213" cx="0" cy="0" r="1" gradientUnits="userSpaceOnUse" gradientTransform="translate(311.807 344.603) rotate(96.5251) scale(25.7004 25.6925)">
<stop stop-color="#676CB5"/>
<stop offset="1" stop-color="#3C3B6B"/>
</radialGradient>
<radialGradient id="paint27_radial_201_25213" cx="0" cy="0" r="1" gradientUnits="userSpaceOnUse" gradientTransform="translate(316.925 349.541) rotate(167.855) scale(24.8588 18.5477)">
<stop stop-color="#FFE2C6"/>
<stop offset="0.234375" stop-color="#FFC48A"/>
<stop offset="1" stop-color="#D7771A"/>
</radialGradient>
<radialGradient id="paint28_radial_201_25213" cx="0" cy="0" r="1" gradientUnits="userSpaceOnUse" gradientTransform="translate(319.752 349.207) rotate(157.771) scale(39.7486 46.3211)">
<stop stop-color="#7EC4EB"/>
<stop offset="0.456926" stop-color="#3353E6"/>
<stop offset="0.657245" stop-color="#2840AD"/>
<stop offset="0.788806" stop-color="#132A92"/>
</radialGradient>
<linearGradient id="paint29_linear_201_25213" x1="265.475" y1="354.88" x2="237.352" y2="354.88" gradientUnits="userSpaceOnUse">
<stop stop-color="#40447E"/>
<stop offset="1" stop-color="#3C3B6B"/>
</linearGradient>
<radialGradient id="paint30_radial_201_25213" cx="0" cy="0" r="1" gradientUnits="userSpaceOnUse" gradientTransform="translate(246.691 350.847) rotate(42.889) scale(16.6305 16.9985)">
<stop stop-color="#676CB5"/>
<stop offset="1" stop-color="#3C3B6B"/>
</radialGradient>
<radialGradient id="paint31_radial_201_25213" cx="0" cy="0" r="1" gradientUnits="userSpaceOnUse" gradientTransform="translate(252.106 350.778) rotate(131.157) scale(15.5886 12.6629)">
<stop stop-color="#FFE2C6"/>
<stop offset="0.234375" stop-color="#FFC48A"/>
<stop offset="1" stop-color="#D7771A"/>
</radialGradient>
<radialGradient id="paint32_radial_201_25213" cx="0" cy="0" r="1" gradientUnits="userSpaceOnUse" gradientTransform="translate(253.447 349.521) rotate(119.587) scale(23.6911 33.2725)">
<stop stop-color="#7EC4EB"/>
<stop offset="0.456926" stop-color="#3353E6"/>
<stop offset="0.657245" stop-color="#2840AD"/>
<stop offset="0.788806" stop-color="#132A92"/>
</radialGradient>
<clipPath id="clip0_201_25213">
<rect width="731" height="686" fill="white" transform="matrix(-1 0 0 1 731 0)"/>
</clipPath>
</defs>
</svg>
